<?xml version="1.0" encoding="UTF-8" standalone="no"?>
<!-- Created with Inkscape (http://www.inkscape.org/) -->

<svg
   xmlns:dc="http://purl.org/dc/elements/1.1/"
   xmlns:cc="http://creativecommons.org/ns#"
   xmlns:rdf="http://www.w3.org/1999/02/22-rdf-syntax-ns#"
   xmlns:svg="http://www.w3.org/2000/svg"
   xmlns="http://www.w3.org/2000/svg"
   xmlns:sodipodi="http://sodipodi.sourceforge.net/DTD/sodipodi-0.dtd"
   xmlns:inkscape="http://www.inkscape.org/namespaces/inkscape"
   width="419.85312"
   height="210.0582"
   id="svg2"
   version="1.1"
   inkscape:version="0.48.5 r"
   sodipodi:docname="Nouveau document 1">
  <defs
     id="defs4" />
  <sodipodi:namedview
     id="base"
     pagecolor="#ffffff"
     bordercolor="#666666"
     borderopacity="1.0"
     inkscape:pageopacity="0.0"
     inkscape:pageshadow="2"
     inkscape:zoom="1.987633"
     inkscape:cx="184.46966"
     inkscape:cy="105.62202"
     inkscape:document-units="px"
     inkscape:current-layer="layer1"
     showgrid="true"
     fit-margin-top="0"
     fit-margin-left="0"
     fit-margin-right="0"
     fit-margin-bottom="0"
     inkscape:window-width="1360"
     inkscape:window-height="706"
     inkscape:window-x="-8"
     inkscape:window-y="-8"
     inkscape:window-maximized="1">
    <inkscape:grid
       type="xygrid"
       id="grid5333"
       empspacing="5"
       visible="true"
       enabled="true"
       snapvisiblegridlinesonly="true"
       originx="43.953125px"
       originy="-469.1px" />
  </sodipodi:namedview>
  <metadata
     id="metadata7">
    <rdf:RDF>
      <cc:Work
         rdf:about="">
        <dc:format>image/svg+xml</dc:format>
        <dc:type
           rdf:resource="http://purl.org/dc/dcmitype/StillImage" />
        <dc:title></dc:title>
      </cc:Work>
    </rdf:RDF>
  </metadata>
  <g
     inkscape:label="Calque 1"
     inkscape:groupmode="layer"
     id="layer1"
     transform="translate(43.953125,-373.20398)">
    <path
       sodipodi:type="arc"
       style="fill:#ff0000;fill-opacity:1;stroke:#ff0000;stroke-width:0.99921262;stroke-linejoin:round;stroke-miterlimit:4;stroke-opacity:1;stroke-dasharray:none;stroke-dashoffset:0"
       id="path5335"
       sodipodi:cx="25"
       sodipodi:cy="382.36218"
       sodipodi:rx="5"
       sodipodi:ry="5"
       d="m 30,382.36218 c 0,2.76143 -2.238576,5 -5,5 -2.761424,0 -5,-2.23857 -5,-5 0,-2.76142 2.238576,-5 5,-5 2.761424,0 5,2.23858 5,5 z" />
    <path
       transform="translate(50,0)"
       sodipodi:type="arc"
       style="fill:#ff0000;fill-opacity:1;stroke:#ff0000;stroke-width:0.99921262;stroke-linejoin:round;stroke-miterlimit:4;stroke-opacity:1;stroke-dasharray:none;stroke-dashoffset:0"
       id="path5335-0"
       sodipodi:cx="25"
       sodipodi:cy="382.36218"
       sodipodi:rx="5"
       sodipodi:ry="5"
       d="m 30,382.36218 c 0,2.76143 -2.238576,5 -5,5 -2.761424,0 -5,-2.23857 -5,-5 0,-2.76142 2.238576,-5 5,-5 2.761424,0 5,2.23858 5,5 z" />
    <path
       transform="translate(100,0)"
       sodipodi:type="arc"
       style="fill:#ff0000;fill-opacity:1;stroke:#ff0000;stroke-width:0.99921262;stroke-linejoin:round;stroke-miterlimit:4;stroke-opacity:1;stroke-dasharray:none;stroke-dashoffset:0"
       id="path5335-9"
       sodipodi:cx="25"
       sodipodi:cy="382.36218"
       sodipodi:rx="5"
       sodipodi:ry="5"
       d="m 30,382.36218 c 0,2.76143 -2.238576,5 -5,5 -2.761424,0 -5,-2.23857 -5,-5 0,-2.76142 2.238576,-5 5,-5 2.761424,0 5,2.23858 5,5 z" />
    <path
       transform="translate(150,0)"
       sodipodi:type="arc"
       style="fill:#ff0000;fill-opacity:1;stroke:#ff0000;stroke-width:0.99921262;stroke-linejoin:round;stroke-miterlimit:4;stroke-opacity:1;stroke-dasharray:none;stroke-dashoffset:0"
       id="path5335-0-6"
       sodipodi:cx="25"
       sodipodi:cy="382.36218"
       sodipodi:rx="5"
       sodipodi:ry="5"
       d="m 30,382.36218 c 0,2.76143 -2.238576,5 -5,5 -2.761424,0 -5,-2.23857 -5,-5 0,-2.76142 2.238576,-5 5,-5 2.761424,0 5,2.23858 5,5 z" />
    <path
       transform="translate(150,0)"
       sodipodi:type="arc"
       style="fill:#ff0000;fill-opacity:1;stroke:#ff0000;stroke-width:0.99921262;stroke-linejoin:round;stroke-miterlimit:4;stroke-opacity:1;stroke-dasharray:none;stroke-dashoffset:0"
       id="path5335-94"
       sodipodi:cx="25"
       sodipodi:cy="382.36218"
       sodipodi:rx="5"
       sodipodi:ry="5"
       d="m 30,382.36218 c 0,2.76143 -2.238576,5 -5,5 -2.761424,0 -5,-2.23857 -5,-5 0,-2.76142 2.238576,-5 5,-5 2.761424,0 5,2.23858 5,5 z" />
    <path
       transform="translate(200,0)"
       sodipodi:type="arc"
       style="fill:#ff0000;fill-opacity:1;stroke:#ff0000;stroke-width:0.99921262;stroke-linejoin:round;stroke-miterlimit:4;stroke-opacity:1;stroke-dasharray:none;stroke-dashoffset:0"
       id="path5335-0-4"
       sodipodi:cx="25"
       sodipodi:cy="382.36218"
       sodipodi:rx="5"
       sodipodi:ry="5"
       d="m 30,382.36218 c 0,2.76143 -2.238576,5 -5,5 -2.761424,0 -5,-2.23857 -5,-5 0,-2.76142 2.238576,-5 5,-5 2.761424,0 5,2.23858 5,5 z" />
    <path
       transform="translate(250,0)"
       sodipodi:type="arc"
       style="fill:#ff0000;fill-opacity:1;stroke:#ff0000;stroke-width:0.99921262;stroke-linejoin:round;stroke-miterlimit:4;stroke-opacity:1;stroke-dasharray:none;stroke-dashoffset:0"
       id="path5335-9-8"
       sodipodi:cx="25"
       sodipodi:cy="382.36218"
       sodipodi:rx="5"
       sodipodi:ry="5"
       d="m 30,382.36218 c 0,2.76143 -2.238576,5 -5,5 -2.761424,0 -5,-2.23857 -5,-5 0,-2.76142 2.238576,-5 5,-5 2.761424,0 5,2.23858 5,5 z" />
    <path
       transform="translate(300,0)"
       sodipodi:type="arc"
       style="fill:#ff0000;fill-opacity:1;stroke:#ff0000;stroke-width:0.99921262;stroke-linejoin:round;stroke-miterlimit:4;stroke-opacity:1;stroke-dasharray:none;stroke-dashoffset:0"
       id="path5335-0-6-2"
       sodipodi:cx="25"
       sodipodi:cy="382.36218"
       sodipodi:rx="5"
       sodipodi:ry="5"
       d="m 30,382.36218 c 0,2.76143 -2.238576,5 -5,5 -2.761424,0 -5,-2.23857 -5,-5 0,-2.76142 2.238576,-5 5,-5 2.761424,0 5,2.23858 5,5 z" />
    <path
       transform="translate(0,50)"
       sodipodi:type="arc"
       style="fill:#ff0000;fill-opacity:1;stroke:#ff0000;stroke-width:0.99921262;stroke-linejoin:round;stroke-miterlimit:4;stroke-opacity:1;stroke-dasharray:none;stroke-dashoffset:0"
       id="path5335-4"
       sodipodi:cx="25"
       sodipodi:cy="382.36218"
       sodipodi:rx="5"
       sodipodi:ry="5"
       d="m 30,382.36218 c 0,2.76143 -2.238576,5 -5,5 -2.761424,0 -5,-2.23857 -5,-5 0,-2.76142 2.238576,-5 5,-5 2.761424,0 5,2.23858 5,5 z" />
    <path
       transform="translate(50,50)"
       sodipodi:type="arc"
       style="fill:#ff0000;fill-opacity:1;stroke:#ff0000;stroke-width:0.99921262;stroke-linejoin:round;stroke-miterlimit:4;stroke-opacity:1;stroke-dasharray:none;stroke-dashoffset:0"
       id="path5335-0-8"
       sodipodi:cx="25"
       sodipodi:cy="382.36218"
       sodipodi:rx="5"
       sodipodi:ry="5"
       d="m 30,382.36218 c 0,2.76143 -2.238576,5 -5,5 -2.761424,0 -5,-2.23857 -5,-5 0,-2.76142 2.238576,-5 5,-5 2.761424,0 5,2.23858 5,5 z" />
    <path
       transform="translate(100,50)"
       sodipodi:type="arc"
       style="fill:#ff0000;fill-opacity:1;stroke:#ff0000;stroke-width:0.99921262;stroke-linejoin:round;stroke-miterlimit:4;stroke-opacity:1;stroke-dasharray:none;stroke-dashoffset:0"
       id="path5335-9-1"
       sodipodi:cx="25"
       sodipodi:cy="382.36218"
       sodipodi:rx="5"
       sodipodi:ry="5"
       d="m 30,382.36218 c 0,2.76143 -2.238576,5 -5,5 -2.761424,0 -5,-2.23857 -5,-5 0,-2.76142 2.238576,-5 5,-5 2.761424,0 5,2.23858 5,5 z" />
    <path
       transform="translate(150,50)"
       sodipodi:type="arc"
       style="fill:#ff0000;fill-opacity:1;stroke:#ff0000;stroke-width:0.99921262;stroke-linejoin:round;stroke-miterlimit:4;stroke-opacity:1;stroke-dasharray:none;stroke-dashoffset:0"
       id="path5335-0-6-9"
       sodipodi:cx="25"
       sodipodi:cy="382.36218"
       sodipodi:rx="5"
       sodipodi:ry="5"
       d="m 30,382.36218 c 0,2.76143 -2.238576,5 -5,5 -2.761424,0 -5,-2.23857 -5,-5 0,-2.76142 2.238576,-5 5,-5 2.761424,0 5,2.23858 5,5 z" />
    <path
       transform="translate(150,50)"
       sodipodi:type="arc"
       style="fill:#ff0000;fill-opacity:1;stroke:#ff0000;stroke-width:0.99921262;stroke-linejoin:round;stroke-miterlimit:4;stroke-opacity:1;stroke-dasharray:none;stroke-dashoffset:0"
       id="path5335-94-4"
       sodipodi:cx="25"
       sodipodi:cy="382.36218"
       sodipodi:rx="5"
       sodipodi:ry="5"
       d="m 30,382.36218 c 0,2.76143 -2.238576,5 -5,5 -2.761424,0 -5,-2.23857 -5,-5 0,-2.76142 2.238576,-5 5,-5 2.761424,0 5,2.23858 5,5 z" />
    <path
       transform="translate(200,50)"
       sodipodi:type="arc"
       style="fill:#ff0000;fill-opacity:1;stroke:#ff0000;stroke-width:0.99921262;stroke-linejoin:round;stroke-miterlimit:4;stroke-opacity:1;stroke-dasharray:none;stroke-dashoffset:0"
       id="path5335-0-4-9"
       sodipodi:cx="25"
       sodipodi:cy="382.36218"
       sodipodi:rx="5"
       sodipodi:ry="5"
       d="m 30,382.36218 c 0,2.76143 -2.238576,5 -5,5 -2.761424,0 -5,-2.23857 -5,-5 0,-2.76142 2.238576,-5 5,-5 2.761424,0 5,2.23858 5,5 z" />
    <path
       transform="translate(250,50)"
       sodipodi:type="arc"
       style="fill:#ff0000;fill-opacity:1;stroke:#ff0000;stroke-width:0.99921262;stroke-linejoin:round;stroke-miterlimit:4;stroke-opacity:1;stroke-dasharray:none;stroke-dashoffset:0"
       id="path5335-9-8-4"
       sodipodi:cx="25"
       sodipodi:cy="382.36218"
       sodipodi:rx="5"
       sodipodi:ry="5"
       d="m 30,382.36218 c 0,2.76143 -2.238576,5 -5,5 -2.761424,0 -5,-2.23857 -5,-5 0,-2.76142 2.238576,-5 5,-5 2.761424,0 5,2.23858 5,5 z" />
    <path
       transform="translate(300,50)"
       sodipodi:type="arc"
       style="fill:#ff0000;fill-opacity:1;stroke:#ff0000;stroke-width:0.99921262;stroke-linejoin:round;stroke-miterlimit:4;stroke-opacity:1;stroke-dasharray:none;stroke-dashoffset:0"
       id="path5335-0-6-2-9"
       sodipodi:cx="25"
       sodipodi:cy="382.36218"
       sodipodi:rx="5"
       sodipodi:ry="5"
       d="m 30,382.36218 c 0,2.76143 -2.238576,5 -5,5 -2.761424,0 -5,-2.23857 -5,-5 0,-2.76142 2.238576,-5 5,-5 2.761424,0 5,2.23858 5,5 z" />
    <path
       transform="translate(0,100)"
       sodipodi:type="arc"
       style="fill:#ff0000;fill-opacity:1;stroke:#ff0000;stroke-width:0.99921262;stroke-linejoin:round;stroke-miterlimit:4;stroke-opacity:1;stroke-dasharray:none;stroke-dashoffset:0"
       id="path5335-1"
       sodipodi:cx="25"
       sodipodi:cy="382.36218"
       sodipodi:rx="5"
       sodipodi:ry="5"
       d="m 30,382.36218 c 0,2.76143 -2.238576,5 -5,5 -2.761424,0 -5,-2.23857 -5,-5 0,-2.76142 2.238576,-5 5,-5 2.761424,0 5,2.23858 5,5 z" />
    <path
       transform="translate(50,100)"
       sodipodi:type="arc"
       style="fill:#ff0000;fill-opacity:1;stroke:#ff0000;stroke-width:0.99921262;stroke-linejoin:round;stroke-miterlimit:4;stroke-opacity:1;stroke-dasharray:none;stroke-dashoffset:0"
       id="path5335-0-1"
       sodipodi:cx="25"
       sodipodi:cy="382.36218"
       sodipodi:rx="5"
       sodipodi:ry="5"
       d="m 30,382.36218 c 0,2.76143 -2.238576,5 -5,5 -2.761424,0 -5,-2.23857 -5,-5 0,-2.76142 2.238576,-5 5,-5 2.761424,0 5,2.23858 5,5 z" />
    <path
       transform="translate(100,100)"
       sodipodi:type="arc"
       style="fill:#ff0000;fill-opacity:1;stroke:#ff0000;stroke-width:0.99921262;stroke-linejoin:round;stroke-miterlimit:4;stroke-opacity:1;stroke-dasharray:none;stroke-dashoffset:0"
       id="path5335-9-0"
       sodipodi:cx="25"
       sodipodi:cy="382.36218"
       sodipodi:rx="5"
       sodipodi:ry="5"
       d="m 30,382.36218 c 0,2.76143 -2.238576,5 -5,5 -2.761424,0 -5,-2.23857 -5,-5 0,-2.76142 2.238576,-5 5,-5 2.761424,0 5,2.23858 5,5 z" />
    <path
       transform="translate(150,100)"
       sodipodi:type="arc"
       style="fill:#ff0000;fill-opacity:1;stroke:#ff0000;stroke-width:0.99921262;stroke-linejoin:round;stroke-miterlimit:4;stroke-opacity:1;stroke-dasharray:none;stroke-dashoffset:0"
       id="path5335-0-6-0"
       sodipodi:cx="25"
       sodipodi:cy="382.36218"
       sodipodi:rx="5"
       sodipodi:ry="5"
       d="m 30,382.36218 c 0,2.76143 -2.238576,5 -5,5 -2.761424,0 -5,-2.23857 -5,-5 0,-2.76142 2.238576,-5 5,-5 2.761424,0 5,2.23858 5,5 z" />
    <path
       transform="translate(150,100)"
       sodipodi:type="arc"
       style="fill:#ff0000;fill-opacity:1;stroke:#ff0000;stroke-width:0.99921262;stroke-linejoin:round;stroke-miterlimit:4;stroke-opacity:1;stroke-dasharray:none;stroke-dashoffset:0"
       id="path5335-94-7"
       sodipodi:cx="25"
       sodipodi:cy="382.36218"
       sodipodi:rx="5"
       sodipodi:ry="5"
       d="m 30,382.36218 c 0,2.76143 -2.238576,5 -5,5 -2.761424,0 -5,-2.23857 -5,-5 0,-2.76142 2.238576,-5 5,-5 2.761424,0 5,2.23858 5,5 z" />
    <path
       transform="translate(200,100)"
       sodipodi:type="arc"
       style="fill:#ff0000;fill-opacity:1;stroke:#ff0000;stroke-width:0.99921262;stroke-linejoin:round;stroke-miterlimit:4;stroke-opacity:1;stroke-dasharray:none;stroke-dashoffset:0"
       id="path5335-0-4-6"
       sodipodi:cx="25"
       sodipodi:cy="382.36218"
       sodipodi:rx="5"
       sodipodi:ry="5"
       d="m 30,382.36218 c 0,2.76143 -2.238576,5 -5,5 -2.761424,0 -5,-2.23857 -5,-5 0,-2.76142 2.238576,-5 5,-5 2.761424,0 5,2.23858 5,5 z" />
    <path
       transform="translate(250,100)"
       sodipodi:type="arc"
       style="fill:#ff0000;fill-opacity:1;stroke:#ff0000;stroke-width:0.99921262;stroke-linejoin:round;stroke-miterlimit:4;stroke-opacity:1;stroke-dasharray:none;stroke-dashoffset:0"
       id="path5335-9-8-0"
       sodipodi:cx="25"
       sodipodi:cy="382.36218"
       sodipodi:rx="5"
       sodipodi:ry="5"
       d="m 30,382.36218 c 0,2.76143 -2.238576,5 -5,5 -2.761424,0 -5,-2.23857 -5,-5 0,-2.76142 2.238576,-5 5,-5 2.761424,0 5,2.23858 5,5 z" />
    <path
       transform="translate(300,100)"
       sodipodi:type="arc"
       style="fill:#ff0000;fill-opacity:1;stroke:#ff0000;stroke-width:0.99921262;stroke-linejoin:round;stroke-miterlimit:4;stroke-opacity:1;stroke-dasharray:none;stroke-dashoffset:0"
       id="path5335-0-6-2-7"
       sodipodi:cx="25"
       sodipodi:cy="382.36218"
       sodipodi:rx="5"
       sodipodi:ry="5"
       d="m 30,382.36218 c 0,2.76143 -2.238576,5 -5,5 -2.761424,0 -5,-2.23857 -5,-5 0,-2.76142 2.238576,-5 5,-5 2.761424,0 5,2.23858 5,5 z" />
    <path
       transform="translate(0,150)"
       sodipodi:type="arc"
       style="fill:#ff0000;fill-opacity:1;stroke:#ff0000;stroke-width:0.99921262;stroke-linejoin:round;stroke-miterlimit:4;stroke-opacity:1;stroke-dasharray:none;stroke-dashoffset:0"
       id="path5335-4-0"
       sodipodi:cx="25"
       sodipodi:cy="382.36218"
       sodipodi:rx="5"
       sodipodi:ry="5"
       d="m 30,382.36218 c 0,2.76143 -2.238576,5 -5,5 -2.761424,0 -5,-2.23857 -5,-5 0,-2.76142 2.238576,-5 5,-5 2.761424,0 5,2.23858 5,5 z" />
    <path
       transform="translate(50,150)"
       sodipodi:type="arc"
       style="fill:#ff0000;fill-opacity:1;stroke:#ff0000;stroke-width:0.99921262;stroke-linejoin:round;stroke-miterlimit:4;stroke-opacity:1;stroke-dasharray:none;stroke-dashoffset:0"
       id="path5335-0-8-3"
       sodipodi:cx="25"
       sodipodi:cy="382.36218"
       sodipodi:rx="5"
       sodipodi:ry="5"
       d="m 30,382.36218 c 0,2.76143 -2.238576,5 -5,5 -2.761424,0 -5,-2.23857 -5,-5 0,-2.76142 2.238576,-5 5,-5 2.761424,0 5,2.23858 5,5 z" />
    <path
       transform="translate(100,150)"
       sodipodi:type="arc"
       style="fill:#ff0000;fill-opacity:1;stroke:#ff0000;stroke-width:0.99921262;stroke-linejoin:round;stroke-miterlimit:4;stroke-opacity:1;stroke-dasharray:none;stroke-dashoffset:0"
       id="path5335-9-1-4"
       sodipodi:cx="25"
       sodipodi:cy="382.36218"
       sodipodi:rx="5"
       sodipodi:ry="5"
       d="m 30,382.36218 c 0,2.76143 -2.238576,5 -5,5 -2.761424,0 -5,-2.23857 -5,-5 0,-2.76142 2.238576,-5 5,-5 2.761424,0 5,2.23858 5,5 z" />
    <path
       transform="translate(150,150)"
       sodipodi:type="arc"
       style="fill:#ff0000;fill-opacity:1;stroke:#ff0000;stroke-width:0.99921262;stroke-linejoin:round;stroke-miterlimit:4;stroke-opacity:1;stroke-dasharray:none;stroke-dashoffset:0"
       id="path5335-0-6-9-1"
       sodipodi:cx="25"
       sodipodi:cy="382.36218"
       sodipodi:rx="5"
       sodipodi:ry="5"
       d="m 30,382.36218 c 0,2.76143 -2.238576,5 -5,5 -2.761424,0 -5,-2.23857 -5,-5 0,-2.76142 2.238576,-5 5,-5 2.761424,0 5,2.23858 5,5 z" />
    <path
       transform="translate(150,150)"
       sodipodi:type="arc"
       style="fill:#ff0000;fill-opacity:1;stroke:#ff0000;stroke-width:0.99921262;stroke-linejoin:round;stroke-miterlimit:4;stroke-opacity:1;stroke-dasharray:none;stroke-dashoffset:0"
       id="path5335-94-4-2"
       sodipodi:cx="25"
       sodipodi:cy="382.36218"
       sodipodi:rx="5"
       sodipodi:ry="5"
       d="m 30,382.36218 c 0,2.76143 -2.238576,5 -5,5 -2.761424,0 -5,-2.23857 -5,-5 0,-2.76142 2.238576,-5 5,-5 2.761424,0 5,2.23858 5,5 z" />
    <path
       transform="translate(200,150)"
       sodipodi:type="arc"
       style="fill:#ff0000;fill-opacity:1;stroke:#ff0000;stroke-width:0.99921262;stroke-linejoin:round;stroke-miterlimit:4;stroke-opacity:1;stroke-dasharray:none;stroke-dashoffset:0"
       id="path5335-0-4-9-3"
       sodipodi:cx="25"
       sodipodi:cy="382.36218"
       sodipodi:rx="5"
       sodipodi:ry="5"
       d="m 30,382.36218 c 0,2.76143 -2.238576,5 -5,5 -2.761424,0 -5,-2.23857 -5,-5 0,-2.76142 2.238576,-5 5,-5 2.761424,0 5,2.23858 5,5 z" />
    <path
       transform="translate(250,150)"
       sodipodi:type="arc"
       style="fill:#ff0000;fill-opacity:1;stroke:#ff0000;stroke-width:0.99921262;stroke-linejoin:round;stroke-miterlimit:4;stroke-opacity:1;stroke-dasharray:none;stroke-dashoffset:0"
       id="path5335-9-8-4-3"
       sodipodi:cx="25"
       sodipodi:cy="382.36218"
       sodipodi:rx="5"
       sodipodi:ry="5"
       d="m 30,382.36218 c 0,2.76143 -2.238576,5 -5,5 -2.761424,0 -5,-2.23857 -5,-5 0,-2.76142 2.238576,-5 5,-5 2.761424,0 5,2.23858 5,5 z" />
    <path
       transform="translate(300,150)"
       sodipodi:type="arc"
       style="fill:#ff0000;fill-opacity:1;stroke:#ff0000;stroke-width:0.99921262;stroke-linejoin:round;stroke-miterlimit:4;stroke-opacity:1;stroke-dasharray:none;stroke-dashoffset:0"
       id="path5335-0-6-2-9-9"
       sodipodi:cx="25"
       sodipodi:cy="382.36218"
       sodipodi:rx="5"
       sodipodi:ry="5"
       d="m 30,382.36218 c 0,2.76143 -2.238576,5 -5,5 -2.761424,0 -5,-2.23857 -5,-5 0,-2.76142 2.238576,-5 5,-5 2.761424,0 5,2.23858 5,5 z" />
    <path
       style="fill:#ff0000;stroke:#ff0000;stroke-width:1.79999995;stroke-linecap:butt;stroke-linejoin:miter;stroke-miterlimit:4;stroke-opacity:1;stroke-dasharray:none"
       d="m 25,382.36218 325,0"
       id="path5514"
       inkscape:connector-curvature="0" />
    <path
       style="fill:#ff0000;stroke:#ff0000;stroke-width:1.79999995;stroke-linecap:butt;stroke-linejoin:miter;stroke-miterlimit:4;stroke-opacity:1;stroke-dasharray:none"
       d="m 25,432.36218 325,0"
       id="path6284"
       inkscape:connector-curvature="0" />
    <path
       style="fill:#ff0000;stroke:#ff0000;stroke-width:1.79999995;stroke-linecap:butt;stroke-linejoin:miter;stroke-miterlimit:4;stroke-opacity:1;stroke-dasharray:none"
       d="m 25,482.36218 325,0"
       id="path6286"
       inkscape:connector-curvature="0" />
    <path
       style="fill:#ff0000;stroke:#ff0000;stroke-width:1.79999995;stroke-linecap:butt;stroke-linejoin:miter;stroke-miterlimit:4;stroke-opacity:1;stroke-dasharray:none"
       d="m 25,532.36218 325,0"
       id="path6288"
       inkscape:connector-curvature="0" />
    <path
       style="fill:#ff0000;stroke:#ff0000;stroke-width:1.79999995;stroke-linecap:butt;stroke-linejoin:miter;stroke-miterlimit:4;stroke-opacity:1;stroke-dasharray:none"
       d="m 25,382.36218 0,175"
       id="path6290"
       inkscape:connector-curvature="0" />
    <path
       style="fill:#ff0000;stroke:#ff0000;stroke-width:1.79999995;stroke-linecap:butt;stroke-linejoin:miter;stroke-miterlimit:4;stroke-opacity:1;stroke-dasharray:none"
       d="m 75,382.36218 0,175"
       id="path6292"
       inkscape:connector-curvature="0" />
    <path
       style="fill:#ff0000;stroke:#ff0000;stroke-width:1.79999995;stroke-linecap:butt;stroke-linejoin:miter;stroke-miterlimit:4;stroke-opacity:1;stroke-dasharray:none"
       d="m 125,382.36218 0,175"
       id="path6294"
       inkscape:connector-curvature="0" />
    <path
       style="fill:#ff0000;stroke:#ff0000;stroke-width:1.79999995;stroke-linecap:butt;stroke-linejoin:miter;stroke-miterlimit:4;stroke-opacity:1;stroke-dasharray:none"
       d="m 175,382.36218 0,175"
       id="path6296"
       inkscape:connector-curvature="0" />
    <path
       style="fill:#ff0000;stroke:#ff0000;stroke-width:1.79999995;stroke-linecap:butt;stroke-linejoin:miter;stroke-miterlimit:4;stroke-opacity:1;stroke-dasharray:none"
       d="m 225,382.36218 0,175"
       id="path6298"
       inkscape:connector-curvature="0" />
    <path
       style="fill:#ff0000;stroke:#ff0000;stroke-width:1.79999995;stroke-linecap:butt;stroke-linejoin:miter;stroke-miterlimit:4;stroke-opacity:1;stroke-dasharray:none"
       d="m 275,382.36218 0,175"
       id="path6300"
       inkscape:connector-curvature="0" />
    <path
       style="fill:#ff0000;stroke:#ff0000;stroke-width:1.79999995;stroke-linecap:butt;stroke-linejoin:miter;stroke-miterlimit:4;stroke-opacity:1;stroke-dasharray:none"
       d="m 325,382.36218 0,175"
       id="path6302"
       inkscape:connector-curvature="0" />
    <path
       transform="translate(25,25)"
       sodipodi:type="arc"
       style="fill:#0000ff;fill-opacity:1;stroke:#0000ff;stroke-width:0.99921262;stroke-linejoin:round;stroke-miterlimit:4;stroke-opacity:1;stroke-dasharray:none;stroke-dashoffset:0"
       id="path5335-6"
       sodipodi:cx="25"
       sodipodi:cy="382.36218"
       sodipodi:rx="5"
       sodipodi:ry="5"
       d="m 30,382.36218 c 0,2.76143 -2.238576,5 -5,5 -2.761424,0 -5,-2.23857 -5,-5 0,-2.76142 2.238576,-5 5,-5 2.761424,0 5,2.23858 5,5 z" />
    <path
       transform="translate(75,25)"
       sodipodi:type="arc"
       style="fill:#0000ff;fill-opacity:1;stroke:#0000ff;stroke-width:0.99921262;stroke-linejoin:round;stroke-miterlimit:4;stroke-opacity:1;stroke-dasharray:none;stroke-dashoffset:0"
       id="path5335-0-0"
       sodipodi:cx="25"
       sodipodi:cy="382.36218"
       sodipodi:rx="5"
       sodipodi:ry="5"
       d="m 30,382.36218 c 0,2.76143 -2.238576,5 -5,5 -2.761424,0 -5,-2.23857 -5,-5 0,-2.76142 2.238576,-5 5,-5 2.761424,0 5,2.23858 5,5 z" />
    <path
       transform="translate(125,25)"
       sodipodi:type="arc"
       style="fill:#0000ff;fill-opacity:1;stroke:#0000ff;stroke-width:0.99921262;stroke-linejoin:round;stroke-miterlimit:4;stroke-opacity:1;stroke-dasharray:none;stroke-dashoffset:0"
       id="path5335-9-5"
       sodipodi:cx="25"
       sodipodi:cy="382.36218"
       sodipodi:rx="5"
       sodipodi:ry="5"
       d="m 30,382.36218 c 0,2.76143 -2.238576,5 -5,5 -2.761424,0 -5,-2.23857 -5,-5 0,-2.76142 2.238576,-5 5,-5 2.761424,0 5,2.23858 5,5 z" />
    <path
       transform="translate(175,25)"
       sodipodi:type="arc"
       style="fill:#0000ff;fill-opacity:1;stroke:#0000ff;stroke-width:0.99921262;stroke-linejoin:round;stroke-miterlimit:4;stroke-opacity:1;stroke-dasharray:none;stroke-dashoffset:0"
       id="path5335-0-6-90"
       sodipodi:cx="25"
       sodipodi:cy="382.36218"
       sodipodi:rx="5"
       sodipodi:ry="5"
       d="m 30,382.36218 c 0,2.76143 -2.238576,5 -5,5 -2.761424,0 -5,-2.23857 -5,-5 0,-2.76142 2.238576,-5 5,-5 2.761424,0 5,2.23858 5,5 z" />
    <path
       transform="translate(175,25)"
       sodipodi:type="arc"
       style="fill:#0000ff;fill-opacity:1;stroke:#0000ff;stroke-width:0.99921262;stroke-linejoin:round;stroke-miterlimit:4;stroke-opacity:1;stroke-dasharray:none;stroke-dashoffset:0"
       id="path5335-94-9"
       sodipodi:cx="25"
       sodipodi:cy="382.36218"
       sodipodi:rx="5"
       sodipodi:ry="5"
       d="m 30,382.36218 c 0,2.76143 -2.238576,5 -5,5 -2.761424,0 -5,-2.23857 -5,-5 0,-2.76142 2.238576,-5 5,-5 2.761424,0 5,2.23858 5,5 z" />
    <path
       transform="translate(225,25)"
       sodipodi:type="arc"
       style="fill:#0000ff;fill-opacity:1;stroke:#0000ff;stroke-width:0.99921262;stroke-linejoin:round;stroke-miterlimit:4;stroke-opacity:1;stroke-dasharray:none;stroke-dashoffset:0"
       id="path5335-0-4-0"
       sodipodi:cx="25"
       sodipodi:cy="382.36218"
       sodipodi:rx="5"
       sodipodi:ry="5"
       d="m 30,382.36218 c 0,2.76143 -2.238576,5 -5,5 -2.761424,0 -5,-2.23857 -5,-5 0,-2.76142 2.238576,-5 5,-5 2.761424,0 5,2.23858 5,5 z" />
    <path
       transform="translate(275,25)"
       sodipodi:type="arc"
       style="fill:#0000ff;fill-opacity:1;stroke:#0000ff;stroke-width:0.99921262;stroke-linejoin:round;stroke-miterlimit:4;stroke-opacity:1;stroke-dasharray:none;stroke-dashoffset:0"
       id="path5335-9-8-1"
       sodipodi:cx="25"
       sodipodi:cy="382.36218"
       sodipodi:rx="5"
       sodipodi:ry="5"
       d="m 30,382.36218 c 0,2.76143 -2.238576,5 -5,5 -2.761424,0 -5,-2.23857 -5,-5 0,-2.76142 2.238576,-5 5,-5 2.761424,0 5,2.23858 5,5 z" />
    <path
       transform="translate(325,25)"
       sodipodi:type="arc"
       style="fill:#0000ff;fill-opacity:1;stroke:#0000ff;stroke-width:0.99921262;stroke-linejoin:round;stroke-miterlimit:4;stroke-opacity:1;stroke-dasharray:none;stroke-dashoffset:0"
       id="path5335-0-6-2-1"
       sodipodi:cx="25"
       sodipodi:cy="382.36218"
       sodipodi:rx="5"
       sodipodi:ry="5"
       d="m 30,382.36218 c 0,2.76143 -2.238576,5 -5,5 -2.761424,0 -5,-2.23857 -5,-5 0,-2.76142 2.238576,-5 5,-5 2.761424,0 5,2.23858 5,5 z" />
    <path
       transform="translate(25,75)"
       sodipodi:type="arc"
       style="fill:#0000ff;fill-opacity:1;stroke:#0000ff;stroke-width:0.99921262;stroke-linejoin:round;stroke-miterlimit:4;stroke-opacity:1;stroke-dasharray:none;stroke-dashoffset:0"
       id="path5335-4-6"
       sodipodi:cx="25"
       sodipodi:cy="382.36218"
       sodipodi:rx="5"
       sodipodi:ry="5"
       d="m 30,382.36218 c 0,2.76143 -2.238576,5 -5,5 -2.761424,0 -5,-2.23857 -5,-5 0,-2.76142 2.238576,-5 5,-5 2.761424,0 5,2.23858 5,5 z" />
    <path
       transform="translate(75,75)"
       sodipodi:type="arc"
       style="fill:#0000ff;fill-opacity:1;stroke:#0000ff;stroke-width:0.99921262;stroke-linejoin:round;stroke-miterlimit:4;stroke-opacity:1;stroke-dasharray:none;stroke-dashoffset:0"
       id="path5335-0-8-5"
       sodipodi:cx="25"
       sodipodi:cy="382.36218"
       sodipodi:rx="5"
       sodipodi:ry="5"
       d="m 30,382.36218 c 0,2.76143 -2.238576,5 -5,5 -2.761424,0 -5,-2.23857 -5,-5 0,-2.76142 2.238576,-5 5,-5 2.761424,0 5,2.23858 5,5 z" />
    <path
       transform="translate(125,75)"
       sodipodi:type="arc"
       style="fill:#0000ff;fill-opacity:1;stroke:#0000ff;stroke-width:0.99921262;stroke-linejoin:round;stroke-miterlimit:4;stroke-opacity:1;stroke-dasharray:none;stroke-dashoffset:0"
       id="path5335-9-1-1"
       sodipodi:cx="25"
       sodipodi:cy="382.36218"
       sodipodi:rx="5"
       sodipodi:ry="5"
       d="m 30,382.36218 c 0,2.76143 -2.238576,5 -5,5 -2.761424,0 -5,-2.23857 -5,-5 0,-2.76142 2.238576,-5 5,-5 2.761424,0 5,2.23858 5,5 z" />
    <path
       transform="translate(175,75)"
       sodipodi:type="arc"
       style="fill:#0000ff;fill-opacity:1;stroke:#0000ff;stroke-width:0.99921262;stroke-linejoin:round;stroke-miterlimit:4;stroke-opacity:1;stroke-dasharray:none;stroke-dashoffset:0"
       id="path5335-0-6-9-3"
       sodipodi:cx="25"
       sodipodi:cy="382.36218"
       sodipodi:rx="5"
       sodipodi:ry="5"
       d="m 30,382.36218 c 0,2.76143 -2.238576,5 -5,5 -2.761424,0 -5,-2.23857 -5,-5 0,-2.76142 2.238576,-5 5,-5 2.761424,0 5,2.23858 5,5 z" />
    <path
       transform="translate(175,75)"
       sodipodi:type="arc"
       style="fill:#0000ff;fill-opacity:1;stroke:#0000ff;stroke-width:0.99921262;stroke-linejoin:round;stroke-miterlimit:4;stroke-opacity:1;stroke-dasharray:none;stroke-dashoffset:0"
       id="path5335-94-4-0"
       sodipodi:cx="25"
       sodipodi:cy="382.36218"
       sodipodi:rx="5"
       sodipodi:ry="5"
       d="m 30,382.36218 c 0,2.76143 -2.238576,5 -5,5 -2.761424,0 -5,-2.23857 -5,-5 0,-2.76142 2.238576,-5 5,-5 2.761424,0 5,2.23858 5,5 z" />
    <path
       transform="translate(225,75)"
       sodipodi:type="arc"
       style="fill:#0000ff;fill-opacity:1;stroke:#0000ff;stroke-width:0.99921262;stroke-linejoin:round;stroke-miterlimit:4;stroke-opacity:1;stroke-dasharray:none;stroke-dashoffset:0"
       id="path5335-0-4-9-4"
       sodipodi:cx="25"
       sodipodi:cy="382.36218"
       sodipodi:rx="5"
       sodipodi:ry="5"
       d="m 30,382.36218 c 0,2.76143 -2.238576,5 -5,5 -2.761424,0 -5,-2.23857 -5,-5 0,-2.76142 2.238576,-5 5,-5 2.761424,0 5,2.23858 5,5 z" />
    <path
       transform="translate(275,75)"
       sodipodi:type="arc"
       style="fill:#0000ff;fill-opacity:1;stroke:#0000ff;stroke-width:0.99921262;stroke-linejoin:round;stroke-miterlimit:4;stroke-opacity:1;stroke-dasharray:none;stroke-dashoffset:0"
       id="path5335-9-8-4-8"
       sodipodi:cx="25"
       sodipodi:cy="382.36218"
       sodipodi:rx="5"
       sodipodi:ry="5"
       d="m 30,382.36218 c 0,2.76143 -2.238576,5 -5,5 -2.761424,0 -5,-2.23857 -5,-5 0,-2.76142 2.238576,-5 5,-5 2.761424,0 5,2.23858 5,5 z" />
    <path
       transform="translate(325,75)"
       sodipodi:type="arc"
       style="fill:#0000ff;fill-opacity:1;stroke:#0000ff;stroke-width:0.99921262;stroke-linejoin:round;stroke-miterlimit:4;stroke-opacity:1;stroke-dasharray:none;stroke-dashoffset:0"
       id="path5335-0-6-2-9-0"
       sodipodi:cx="25"
       sodipodi:cy="382.36218"
       sodipodi:rx="5"
       sodipodi:ry="5"
       d="m 30,382.36218 c 0,2.76143 -2.238576,5 -5,5 -2.761424,0 -5,-2.23857 -5,-5 0,-2.76142 2.238576,-5 5,-5 2.761424,0 5,2.23858 5,5 z" />
    <path
       transform="translate(25,125)"
       sodipodi:type="arc"
       style="fill:#0000ff;fill-opacity:1;stroke:#0000ff;stroke-width:0.99921262;stroke-linejoin:round;stroke-miterlimit:4;stroke-opacity:1;stroke-dasharray:none;stroke-dashoffset:0"
       id="path5335-1-6"
       sodipodi:cx="25"
       sodipodi:cy="382.36218"
       sodipodi:rx="5"
       sodipodi:ry="5"
       d="m 30,382.36218 c 0,2.76143 -2.238576,5 -5,5 -2.761424,0 -5,-2.23857 -5,-5 0,-2.76142 2.238576,-5 5,-5 2.761424,0 5,2.23858 5,5 z" />
    <path
       transform="translate(75,125)"
       sodipodi:type="arc"
       style="fill:#0000ff;fill-opacity:1;stroke:#0000ff;stroke-width:0.99921262;stroke-linejoin:round;stroke-miterlimit:4;stroke-opacity:1;stroke-dasharray:none;stroke-dashoffset:0"
       id="path5335-0-1-2"
       sodipodi:cx="25"
       sodipodi:cy="382.36218"
       sodipodi:rx="5"
       sodipodi:ry="5"
       d="m 30,382.36218 c 0,2.76143 -2.238576,5 -5,5 -2.761424,0 -5,-2.23857 -5,-5 0,-2.76142 2.238576,-5 5,-5 2.761424,0 5,2.23858 5,5 z" />
    <path
       transform="translate(125,125)"
       sodipodi:type="arc"
       style="fill:#0000ff;fill-opacity:1;stroke:#0000ff;stroke-width:0.99921262;stroke-linejoin:round;stroke-miterlimit:4;stroke-opacity:1;stroke-dasharray:none;stroke-dashoffset:0"
       id="path5335-9-0-0"
       sodipodi:cx="25"
       sodipodi:cy="382.36218"
       sodipodi:rx="5"
       sodipodi:ry="5"
       d="m 30,382.36218 c 0,2.76143 -2.238576,5 -5,5 -2.761424,0 -5,-2.23857 -5,-5 0,-2.76142 2.238576,-5 5,-5 2.761424,0 5,2.23858 5,5 z" />
    <path
       transform="translate(175,125)"
       sodipodi:type="arc"
       style="fill:#0000ff;fill-opacity:1;stroke:#0000ff;stroke-width:0.99921262;stroke-linejoin:round;stroke-miterlimit:4;stroke-opacity:1;stroke-dasharray:none;stroke-dashoffset:0"
       id="path5335-0-6-0-9"
       sodipodi:cx="25"
       sodipodi:cy="382.36218"
       sodipodi:rx="5"
       sodipodi:ry="5"
       d="m 30,382.36218 c 0,2.76143 -2.238576,5 -5,5 -2.761424,0 -5,-2.23857 -5,-5 0,-2.76142 2.238576,-5 5,-5 2.761424,0 5,2.23858 5,5 z" />
    <path
       transform="translate(175,125)"
       sodipodi:type="arc"
       style="fill:#0000ff;fill-opacity:1;stroke:#0000ff;stroke-width:0.99921262;stroke-linejoin:round;stroke-miterlimit:4;stroke-opacity:1;stroke-dasharray:none;stroke-dashoffset:0"
       id="path5335-94-7-2"
       sodipodi:cx="25"
       sodipodi:cy="382.36218"
       sodipodi:rx="5"
       sodipodi:ry="5"
       d="m 30,382.36218 c 0,2.76143 -2.238576,5 -5,5 -2.761424,0 -5,-2.23857 -5,-5 0,-2.76142 2.238576,-5 5,-5 2.761424,0 5,2.23858 5,5 z" />
    <path
       transform="translate(225,125)"
       sodipodi:type="arc"
       style="fill:#0000ff;fill-opacity:1;stroke:#0000ff;stroke-width:0.99921262;stroke-linejoin:round;stroke-miterlimit:4;stroke-opacity:1;stroke-dasharray:none;stroke-dashoffset:0"
       id="path5335-0-4-6-4"
       sodipodi:cx="25"
       sodipodi:cy="382.36218"
       sodipodi:rx="5"
       sodipodi:ry="5"
       d="m 30,382.36218 c 0,2.76143 -2.238576,5 -5,5 -2.761424,0 -5,-2.23857 -5,-5 0,-2.76142 2.238576,-5 5,-5 2.761424,0 5,2.23858 5,5 z" />
    <path
       transform="translate(275,125)"
       sodipodi:type="arc"
       style="fill:#0000ff;fill-opacity:1;stroke:#0000ff;stroke-width:0.99921262;stroke-linejoin:round;stroke-miterlimit:4;stroke-opacity:1;stroke-dasharray:none;stroke-dashoffset:0"
       id="path5335-9-8-0-8"
       sodipodi:cx="25"
       sodipodi:cy="382.36218"
       sodipodi:rx="5"
       sodipodi:ry="5"
       d="m 30,382.36218 c 0,2.76143 -2.238576,5 -5,5 -2.761424,0 -5,-2.23857 -5,-5 0,-2.76142 2.238576,-5 5,-5 2.761424,0 5,2.23858 5,5 z" />
    <path
       transform="translate(325,125)"
       sodipodi:type="arc"
       style="fill:#0000ff;fill-opacity:1;stroke:#0000ff;stroke-width:0.99921262;stroke-linejoin:round;stroke-miterlimit:4;stroke-opacity:1;stroke-dasharray:none;stroke-dashoffset:0"
       id="path5335-0-6-2-7-5"
       sodipodi:cx="25"
       sodipodi:cy="382.36218"
       sodipodi:rx="5"
       sodipodi:ry="5"
       d="m 30,382.36218 c 0,2.76143 -2.238576,5 -5,5 -2.761424,0 -5,-2.23857 -5,-5 0,-2.76142 2.238576,-5 5,-5 2.761424,0 5,2.23858 5,5 z" />
    <path
       transform="translate(25,175)"
       sodipodi:type="arc"
       style="fill:#0000ff;fill-opacity:1;stroke:#0000ff;stroke-width:0.99921262;stroke-linejoin:round;stroke-miterlimit:4;stroke-opacity:1;stroke-dasharray:none;stroke-dashoffset:0"
       id="path5335-4-0-7"
       sodipodi:cx="25"
       sodipodi:cy="382.36218"
       sodipodi:rx="5"
       sodipodi:ry="5"
       d="m 30,382.36218 c 0,2.76143 -2.238576,5 -5,5 -2.761424,0 -5,-2.23857 -5,-5 0,-2.76142 2.238576,-5 5,-5 2.761424,0 5,2.23858 5,5 z" />
    <path
       transform="translate(75,175)"
       sodipodi:type="arc"
       style="fill:#0000ff;fill-opacity:1;stroke:#0000ff;stroke-width:0.99921262;stroke-linejoin:round;stroke-miterlimit:4;stroke-opacity:1;stroke-dasharray:none;stroke-dashoffset:0"
       id="path5335-0-8-3-9"
       sodipodi:cx="25"
       sodipodi:cy="382.36218"
       sodipodi:rx="5"
       sodipodi:ry="5"
       d="m 30,382.36218 c 0,2.76143 -2.238576,5 -5,5 -2.761424,0 -5,-2.23857 -5,-5 0,-2.76142 2.238576,-5 5,-5 2.761424,0 5,2.23858 5,5 z" />
    <path
       transform="translate(125,175)"
       sodipodi:type="arc"
       style="fill:#0000ff;fill-opacity:1;stroke:#0000ff;stroke-width:0.99921262;stroke-linejoin:round;stroke-miterlimit:4;stroke-opacity:1;stroke-dasharray:none;stroke-dashoffset:0"
       id="path5335-9-1-4-3"
       sodipodi:cx="25"
       sodipodi:cy="382.36218"
       sodipodi:rx="5"
       sodipodi:ry="5"
       d="m 30,382.36218 c 0,2.76143 -2.238576,5 -5,5 -2.761424,0 -5,-2.23857 -5,-5 0,-2.76142 2.238576,-5 5,-5 2.761424,0 5,2.23858 5,5 z" />
    <path
       transform="translate(175,175)"
       sodipodi:type="arc"
       style="fill:#0000ff;fill-opacity:1;stroke:#0000ff;stroke-width:0.99921262;stroke-linejoin:round;stroke-miterlimit:4;stroke-opacity:1;stroke-dasharray:none;stroke-dashoffset:0"
       id="path5335-0-6-9-1-4"
       sodipodi:cx="25"
       sodipodi:cy="382.36218"
       sodipodi:rx="5"
       sodipodi:ry="5"
       d="m 30,382.36218 c 0,2.76143 -2.238576,5 -5,5 -2.761424,0 -5,-2.23857 -5,-5 0,-2.76142 2.238576,-5 5,-5 2.761424,0 5,2.23858 5,5 z" />
    <path
       transform="translate(175,175)"
       sodipodi:type="arc"
       style="fill:#0000ff;fill-opacity:1;stroke:#0000ff;stroke-width:0.99921262;stroke-linejoin:round;stroke-miterlimit:4;stroke-opacity:1;stroke-dasharray:none;stroke-dashoffset:0"
       id="path5335-94-4-2-8"
       sodipodi:cx="25"
       sodipodi:cy="382.36218"
       sodipodi:rx="5"
       sodipodi:ry="5"
       d="m 30,382.36218 c 0,2.76143 -2.238576,5 -5,5 -2.761424,0 -5,-2.23857 -5,-5 0,-2.76142 2.238576,-5 5,-5 2.761424,0 5,2.23858 5,5 z" />
    <path
       transform="translate(225,175)"
       sodipodi:type="arc"
       style="fill:#0000ff;fill-opacity:1;stroke:#0000ff;stroke-width:0.99921262;stroke-linejoin:round;stroke-miterlimit:4;stroke-opacity:1;stroke-dasharray:none;stroke-dashoffset:0"
       id="path5335-0-4-9-3-2"
       sodipodi:cx="25"
       sodipodi:cy="382.36218"
       sodipodi:rx="5"
       sodipodi:ry="5"
       d="m 30,382.36218 c 0,2.76143 -2.238576,5 -5,5 -2.761424,0 -5,-2.23857 -5,-5 0,-2.76142 2.238576,-5 5,-5 2.761424,0 5,2.23858 5,5 z" />
    <path
       transform="translate(275,175)"
       sodipodi:type="arc"
       style="fill:#0000ff;fill-opacity:1;stroke:#0000ff;stroke-width:0.99921262;stroke-linejoin:round;stroke-miterlimit:4;stroke-opacity:1;stroke-dasharray:none;stroke-dashoffset:0"
       id="path5335-9-8-4-3-2"
       sodipodi:cx="25"
       sodipodi:cy="382.36218"
       sodipodi:rx="5"
       sodipodi:ry="5"
       d="m 30,382.36218 c 0,2.76143 -2.238576,5 -5,5 -2.761424,0 -5,-2.23857 -5,-5 0,-2.76142 2.238576,-5 5,-5 2.761424,0 5,2.23858 5,5 z" />
    <path
       transform="translate(325,175)"
       sodipodi:type="arc"
       style="fill:#0000ff;fill-opacity:1;stroke:#0000ff;stroke-width:0.99921262;stroke-linejoin:round;stroke-miterlimit:4;stroke-opacity:1;stroke-dasharray:none;stroke-dashoffset:0"
       id="path5335-0-6-2-9-9-5"
       sodipodi:cx="25"
       sodipodi:cy="382.36218"
       sodipodi:rx="5"
       sodipodi:ry="5"
       d="m 30,382.36218 c 0,2.76143 -2.238576,5 -5,5 -2.761424,0 -5,-2.23857 -5,-5 0,-2.76142 2.238576,-5 5,-5 2.761424,0 5,2.23858 5,5 z" />
    <path
       style="fill:#0000ff;stroke:#0000ff;stroke-width:1.79999995;stroke-linecap:butt;stroke-linejoin:miter;stroke-miterlimit:4;stroke-opacity:1;stroke-dasharray:none"
       d="m 50,407.36218 325,0"
       id="path5514-6"
       inkscape:connector-curvature="0" />
    <path
       style="fill:#0000ff;stroke:#0000ff;stroke-width:1.79999995;stroke-linecap:butt;stroke-linejoin:miter;stroke-miterlimit:4;stroke-opacity:1;stroke-dasharray:none"
       d="m 50,457.36218 325,0"
       id="path6284-0"
       inkscape:connector-curvature="0" />
    <path
       style="fill:#0000ff;stroke:#0000ff;stroke-width:1.79999995;stroke-linecap:butt;stroke-linejoin:miter;stroke-miterlimit:4;stroke-opacity:1;stroke-dasharray:none"
       d="m 50,507.36218 325,0"
       id="path6286-0"
       inkscape:connector-curvature="0" />
    <path
       style="fill:#0000ff;stroke:#0000ff;stroke-width:1.79999995;stroke-linecap:butt;stroke-linejoin:miter;stroke-miterlimit:4;stroke-opacity:1;stroke-dasharray:none"
       d="m 50,557.36218 325,0"
       id="path6288-1"
       inkscape:connector-curvature="0" />
    <path
       style="fill:#0000ff;stroke:#0000ff;stroke-width:1.79999995;stroke-linecap:butt;stroke-linejoin:miter;stroke-miterlimit:4;stroke-opacity:1;stroke-dasharray:none"
       d="m 50,407.36218 0,175"
       id="path6290-1"
       inkscape:connector-curvature="0" />
    <path
       style="fill:#0000ff;stroke:#0000ff;stroke-width:1.79999995;stroke-linecap:butt;stroke-linejoin:miter;stroke-miterlimit:4;stroke-opacity:1;stroke-dasharray:none"
       d="m 100,407.36218 0,175"
       id="path6292-9"
       inkscape:connector-curvature="0" />
    <path
       style="fill:#0000ff;stroke:#0000ff;stroke-width:1.79999995;stroke-linecap:butt;stroke-linejoin:miter;stroke-miterlimit:4;stroke-opacity:1;stroke-dasharray:none"
       d="m 150,407.36218 0,175"
       id="path6294-3"
       inkscape:connector-curvature="0" />
    <path
       style="fill:#0000ff;stroke:#0000ff;stroke-width:1.79999995;stroke-linecap:butt;stroke-linejoin:miter;stroke-miterlimit:4;stroke-opacity:1;stroke-dasharray:none"
       d="m 200,407.36218 0,175"
       id="path6296-1"
       inkscape:connector-curvature="0" />
    <path
       style="fill:#0000ff;stroke:#0000ff;stroke-width:1.79999995;stroke-linecap:butt;stroke-linejoin:miter;stroke-miterlimit:4;stroke-opacity:1;stroke-dasharray:none"
       d="m 250,407.36218 0,175"
       id="path6298-7"
       inkscape:connector-curvature="0" />
    <path
       style="fill:#0000ff;stroke:#0000ff;stroke-width:1.79999995;stroke-linecap:butt;stroke-linejoin:miter;stroke-miterlimit:4;stroke-opacity:1;stroke-dasharray:none"
       d="m 300,407.36218 0,175"
       id="path6300-5"
       inkscape:connector-curvature="0" />
    <path
       style="fill:#0000ff;stroke:#0000ff;stroke-width:1.79999995;stroke-linecap:butt;stroke-linejoin:miter;stroke-miterlimit:4;stroke-opacity:1;stroke-dasharray:none"
       d="m 350,407.36218 0,175"
       id="path6302-0"
       inkscape:connector-curvature="0" />
    <text
       xml:space="preserve"
       style="font-size:18px;font-style:normal;font-weight:normal;line-height:125%;letter-spacing:0px;word-spacing:0px;fill:#ff0000;fill-opacity:1;stroke:#ff0000;font-family:Sans"
       x="-45"
       y="387.36218"
       id="text6448"
       sodipodi:linespacing="125%"><tspan
         sodipodi:role="line"
         id="tspan6450"
         x="-45"
         y="387.36218">(0,0,0)</tspan></text>
    <text
       xml:space="preserve"
       style="font-size:18px;font-style:normal;font-weight:normal;line-height:125%;letter-spacing:0px;word-spacing:0px;fill:#0000ff;fill-opacity:1;stroke:#0000ff;font-family:Sans"
       x="-20"
       y="412.36218"
       id="text6452"
       sodipodi:linespacing="125%"><tspan
         sodipodi:role="line"
         id="tspan6454"
         x="-20"
         y="412.36218">(0,0,1)</tspan></text>
  </g>
</svg>
