<?xml version="1.0" encoding="UTF-8" standalone="no"?>
<!-- Created with Inkscape (http://www.inkscape.org/) -->

<svg
   xmlns:dc="http://purl.org/dc/elements/1.1/"
   xmlns:cc="http://creativecommons.org/ns#"
   xmlns:rdf="http://www.w3.org/1999/02/22-rdf-syntax-ns#"
   xmlns:svg="http://www.w3.org/2000/svg"
   xmlns="http://www.w3.org/2000/svg"
   xmlns:sodipodi="http://sodipodi.sourceforge.net/DTD/sodipodi-0.dtd"
   xmlns:inkscape="http://www.inkscape.org/namespaces/inkscape"
   width="467.98694"
   height="364.22025"
   id="svg2"
   version="1.1"
   inkscape:version="0.48.5 r10040"
   sodipodi:docname="Cuboc_on_ccubic.svg">
  <defs
     id="defs4" />
  <sodipodi:namedview
     id="base"
     pagecolor="#ffffff"
     bordercolor="#666666"
     borderopacity="1.0"
     inkscape:pageopacity="0.0"
     inkscape:pageshadow="2"
     inkscape:zoom="1.9953972"
     inkscape:cx="187.87992"
     inkscape:cy="189.42874"
     inkscape:document-units="px"
     inkscape:current-layer="svg2"
     showgrid="false"
     inkscape:snap-global="true"
     inkscape:snap-object-midpoints="true"
     inkscape:window-width="1920"
     inkscape:window-height="1134"
     inkscape:window-x="0"
     inkscape:window-y="27"
     inkscape:window-maximized="1"
     showborder="true"
     fit-margin-top="1"
     fit-margin-bottom="1"
     fit-margin-left="1"
     fit-margin-right="1" />
  <metadata
     id="metadata7">
    <rdf:RDF>
      <cc:Work
         rdf:about="">
        <dc:format>image/svg+xml</dc:format>
        <dc:type
           rdf:resource="http://purl.org/dc/dcmitype/StillImage" />
        <dc:title />
      </cc:Work>
    </rdf:RDF>
  </metadata>
  <path
     style="fill:none;stroke:#000000;stroke-width:1;stroke-linecap:butt;stroke-linejoin:miter;stroke-miterlimit:4;stroke-opacity:1;stroke-dasharray:1, 2;stroke-dashoffset:10"
     d="m 154.18318,149.10269 -3.88229,134.7262"
     id="path6512"
     inkscape:connector-curvature="0" />
  <path
     style="fill:none;stroke:#000000;stroke-width:1;stroke-linecap:butt;stroke-linejoin:miter;stroke-miterlimit:4;stroke-opacity:1;stroke-dasharray:1, 2;stroke-dashoffset:10"
     d="M 300.49469,146.58713 296.6124,283.82889"
     id="path6522"
     inkscape:connector-curvature="0" />
  <path
     style="fill:none;stroke:#000000;stroke-width:1px;stroke-linecap:butt;stroke-linejoin:miter;stroke-opacity:1"
     d="M 304.37698,14.376507 300.49469,146.58713"
     id="path6520"
     inkscape:connector-curvature="0" />
  <path
     style="fill:none;stroke:#000000;stroke-width:1px;stroke-linecap:butt;stroke-linejoin:miter;stroke-opacity:1"
     d="M 158.06547,14.376507 154.18318,149.10269"
     id="path6510"
     inkscape:connector-curvature="0" />
  <path
     style="fill:none;stroke:#999999;stroke-width:1px;stroke-linecap:butt;stroke-linejoin:miter;stroke-opacity:1"
     d="m 296.61239,283.8289 146.31151,0 0,0 -44.58503,66.01485 -146.31152,0"
     id="path6458"
     inkscape:connector-curvature="0" />
  <path
     style="fill:none;stroke:#000000;stroke-width:1.05807078px;stroke-linecap:butt;stroke-linejoin:miter;stroke-opacity:1"
     d="m 17.298452,249.0292 c 0,0 0,0 0,0 z"
     id="path5407"
     inkscape:connector-curvature="0" />
  <path
     style="fill:none;stroke:#000000;stroke-width:4.23228312;stroke-linecap:butt;stroke-linejoin:miter;stroke-miterlimit:4;stroke-opacity:1;stroke-dasharray:none"
     d="m 158.06547,14.376497 146.31152,0 -44.58505,66.01485 -146.31151,0 z"
     id="path6351"
     inkscape:connector-curvature="0" />
  <path
     style="fill:#3e76a8;stroke:#53a0ff;stroke-width:4;stroke-linecap:butt;stroke-linejoin:miter;stroke-opacity:1;stroke-miterlimit:4;stroke-dasharray:none;fill-opacity:1"
     d="m 158.06547,14.376506 146.31151,0 -44.58504,66.01485 -146.31151,0 z"
     id="path6178"
     inkscape:connector-curvature="0" />
  <path
     style="fill:none;stroke:#999999;stroke-width:1px;stroke-linecap:butt;stroke-linejoin:miter;stroke-opacity:1"
     d="m 399.09159,116.09523 -292.62303,0"
     id="path6192"
     inkscape:connector-curvature="0" />
  <path
     style="fill:none;stroke:#000000;stroke-width:4.23228312;stroke-linecap:butt;stroke-linejoin:miter;stroke-miterlimit:4;stroke-opacity:1;stroke-dasharray:none"
     d="M 252.78006,116.09522 208.19502,182.11007 163.60996,248.125"
     id="path6355"
     inkscape:connector-curvature="0" />
  <path
     style="fill:none;stroke:#000000;stroke-width:4.23228312;stroke-linecap:butt;stroke-linejoin:miter;stroke-miterlimit:4;stroke-opacity:1;stroke-dasharray:none"
     d="m 61.883512,182.11007 146.311508,0 146.31152,0"
     id="path6357"
     inkscape:connector-curvature="0" />
  <text
     xml:space="preserve"
     style="font-size:16px;font-style:normal;font-weight:normal;line-height:125%;letter-spacing:0px;word-spacing:0px;fill:#ffffff;fill-opacity:1;stroke:none;font-family:Sans"
     x="139.97667"
     y="289.66092"
     id="text6576"
     sodipodi:linespacing="125%"><tspan
       sodipodi:role="line"
       id="tspan6578"
       x="139.97667"
       y="289.66092">11</tspan></text>
  <path
     sodipodi:type="arc"
     style="fill:#0000ff;fill-opacity:1;stroke:#000000;stroke-width:2;stroke-linejoin:round;stroke-miterlimit:4;stroke-opacity:1;stroke-dasharray:none;stroke-dashoffset:0"
     id="path6109-0-8"
     sodipodi:cx="480.32755"
     sodipodi:cy="79.080208"
     sodipodi:rx="9.5964489"
     sodipodi:ry="9.5964489"
     d="m 489.92399,79.080208 a 9.5964489,9.5964489 0 1 1 -19.19289,0 9.5964489,9.5964489 0 1 1 19.19289,0 z"
     transform="matrix(1.5532549,0,0,1.2487732,-595.77022,185.07564)" />
  <path
     style="fill:none;stroke:#999999;stroke-width:4.23228312000000000;stroke-linecap:butt;stroke-linejoin:miter;stroke-miterlimit:4;stroke-opacity:1;stroke-dasharray:none"
     d="m 150.3009,283.8289 146.3115,0 -44.58505,66.01485 -146.3115,0 z"
     id="path6359"
     inkscape:connector-curvature="0" />
  <path
     sodipodi:type="arc"
     style="fill:#ffffff;fill-opacity:1;stroke:#000000;stroke-width:4;stroke-linejoin:round;stroke-miterlimit:4;stroke-opacity:1;stroke-dasharray:none;stroke-dashoffset:0"
     id="path6361"
     sodipodi:cx="100.6222"
     sodipodi:cy="189.52682"
     sodipodi:rx="3.018666"
     sodipodi:ry="2.5155549"
     d="m 103.64087,189.52682 a 3.018666,2.5155549 0 1 1 -6.037336,0 3.018666,2.5155549 0 1 1 6.037336,0 z"
     transform="matrix(1.1195138,0,0,1,143.26171,25.590727)" />
  <path
     transform="matrix(1.1195138,0,0,1,41.535232,-40.424128)"
     sodipodi:type="arc"
     style="fill:#ffffff;fill-opacity:1;stroke:#000000;stroke-width:4;stroke-linejoin:round;stroke-miterlimit:4;stroke-opacity:1;stroke-dasharray:none;stroke-dashoffset:0"
     id="path6361-0"
     sodipodi:cx="100.6222"
     sodipodi:cy="189.52682"
     sodipodi:rx="3.018666"
     sodipodi:ry="2.5155549"
     d="m 103.64087,189.52682 a 3.018666,2.5155549 0 1 1 -6.037336,0 3.018666,2.5155549 0 1 1 6.037336,0 z" />
  <path
     transform="matrix(1.1195138,0,0,1,-3.049818,25.590727)"
     sodipodi:type="arc"
     style="fill:#ffffff;fill-opacity:1;stroke:#000000;stroke-width:4;stroke-linejoin:round;stroke-miterlimit:4;stroke-opacity:1;stroke-dasharray:none;stroke-dashoffset:0"
     id="path6361-2"
     sodipodi:cx="100.6222"
     sodipodi:cy="189.52682"
     sodipodi:rx="3.018666"
     sodipodi:ry="2.5155549"
     d="m 103.64087,189.52682 a 3.018666,2.5155549 0 1 1 -6.037336,0 3.018666,2.5155549 0 1 1 6.037336,0 z" />
  <path
     transform="matrix(1.1195138,0,0,1,187.84675,-42.939678)"
     sodipodi:type="arc"
     style="fill:#ffffff;fill-opacity:1;stroke:#000000;stroke-width:4;stroke-linejoin:round;stroke-miterlimit:4;stroke-opacity:1;stroke-dasharray:none;stroke-dashoffset:0"
     id="path6361-5"
     sodipodi:cx="100.6222"
     sodipodi:cy="189.52682"
     sodipodi:rx="3.018666"
     sodipodi:ry="2.5155549"
     d="m 103.64087,189.52682 a 3.018666,2.5155549 0 1 1 -6.037336,0 3.018666,2.5155549 0 1 1 6.037336,0 z" />
  <path
     sodipodi:type="arc"
     style="fill:#b3b3b3;fill-opacity:1;stroke:#999999;stroke-width:2;stroke-linejoin:round;stroke-miterlimit:4;stroke-opacity:1;stroke-dasharray:none;stroke-dashoffset:0"
     id="path6109"
     sodipodi:cx="480.32755"
     sodipodi:cy="79.080208"
     sodipodi:rx="9.5964489"
     sodipodi:ry="9.5964489"
     d="m 489.92399,79.080208 a 9.5964489,9.5964489 0 1 1 -19.19289,0 9.5964489,9.5964489 0 1 1 19.19289,0 z"
     transform="matrix(1.5532549,0,0,1.2487732,-639.60255,17.341987)" />
  <path
     style="fill:#3e76a8;stroke:#53a0ff;stroke-width:4;stroke-linecap:butt;stroke-linejoin:miter;stroke-opacity:1;stroke-miterlimit:4;stroke-dasharray:none;fill-opacity:1"
     d="M 304.37698,14.376506 354.50655,182.11007 259.79194,80.391356 z"
     id="path6188"
     inkscape:connector-curvature="0" />
  <path
     style="fill:none;stroke:#999999;stroke-width:1px;stroke-linecap:butt;stroke-linejoin:miter;stroke-opacity:1"
     d="m 304.37698,14.376507 146.31152,0 -44.58504,66.01485 -146.31152,0"
     id="path6456"
     inkscape:connector-curvature="0" />
  <path
     transform="matrix(1.5532549,0,0,1.2487732,-493.29104,17.341987)"
     sodipodi:type="arc"
     style="fill:#fff6d5;fill-opacity:1;stroke:#000000;stroke-width:2;stroke-linejoin:round;stroke-miterlimit:4;stroke-opacity:1;stroke-dasharray:none;stroke-dashoffset:0"
     id="path6109-9"
     sodipodi:cx="480.32755"
     sodipodi:cy="79.080208"
     sodipodi:rx="9.5964489"
     sodipodi:ry="9.5964489"
     d="m 489.92399,79.080208 a 9.5964489,9.5964489 0 1 1 -19.19289,0 9.5964489,9.5964489 0 1 1 19.19289,0 z" />
  <text
     xml:space="preserve"
     style="font-size:16px;font-style:normal;font-weight:normal;line-height:125%;letter-spacing:0px;word-spacing:0px;fill:#000000;fill-opacity:1;stroke:none;font-family:Sans"
     x="101.38261"
     y="121.91945"
     id="text6556"
     sodipodi:linespacing="125%"><tspan
       sodipodi:role="line"
       id="tspan6558"
       x="101.38261"
       y="121.91945">8</tspan></text>
  <path
     style="fill:none;stroke:#000000;stroke-width:1px;stroke-linecap:butt;stroke-linejoin:miter;stroke-opacity:1"
     d="m 113.48043,80.391357 -3.8823,134.726183"
     id="path6500"
     inkscape:connector-curvature="0" />
  <path
     style="fill:none;stroke:#000000;stroke-width:1;stroke-linecap:butt;stroke-linejoin:miter;stroke-miterlimit:4;stroke-opacity:1;stroke-dasharray:1, 2;stroke-dashoffset:10"
     d="m 109.59813,215.11754 -3.88228,134.7262"
     id="path6508"
     inkscape:connector-curvature="0" />
  <path
     style="fill:#3e76a8;stroke:#53a0ff;stroke-width:4;stroke-linecap:butt;stroke-linejoin:miter;stroke-opacity:1;stroke-miterlimit:4;stroke-dasharray:none;fill-opacity:1"
     d="M 113.48043,80.391356 61.883523,182.11007 105.71585,349.84374 163.60996,248.12498 z"
     id="path6182"
     inkscape:connector-curvature="0" />
  <path
     transform="matrix(1.5532549,0,0,1.2487732,-537.87608,83.356827)"
     sodipodi:type="arc"
     style="fill:#fff6d5;fill-opacity:1;stroke:#000000;stroke-width:2;stroke-linejoin:round;stroke-miterlimit:4;stroke-opacity:1;stroke-dasharray:none;stroke-dashoffset:0"
     id="path6109-9-7"
     sodipodi:cx="480.32755"
     sodipodi:cy="79.080208"
     sodipodi:rx="9.5964489"
     sodipodi:ry="9.5964489"
     d="m 489.92399,79.080208 a 9.5964489,9.5964489 0 1 1 -19.19289,0 9.5964489,9.5964489 0 1 1 19.19289,0 z" />
  <text
     xml:space="preserve"
     style="font-size:16px;font-style:normal;font-weight:normal;line-height:125%;letter-spacing:0px;word-spacing:0px;fill:#000000;fill-opacity:1;stroke:none;font-family:Sans"
     x="247.54961"
     y="121.92726"
     id="text6528"
     sodipodi:linespacing="125%"><tspan
       sodipodi:role="line"
       id="tspan6530"
       x="247.54961"
       y="121.92726">1</tspan></text>
  <text
     xml:space="preserve"
     style="font-size:16px;font-style:normal;font-weight:normal;line-height:125%;letter-spacing:0px;word-spacing:0px;fill:#000000;fill-opacity:1;stroke:none;font-family:Sans"
     x="203.10909"
     y="187.93423"
     id="text6524"
     sodipodi:linespacing="125%"><tspan
       sodipodi:role="line"
       id="tspan6526"
       x="203.10909"
       y="187.93423">0</tspan></text>
  <path
     style="fill:none;stroke:#000000;stroke-width:1px;stroke-linecap:butt;stroke-linejoin:miter;stroke-opacity:1"
     d="M 259.79194,80.391357 255.90965,215.11754"
     id="path6514"
     inkscape:connector-curvature="0" />
  <path
     style="fill:none;stroke:#000000;stroke-width:1;stroke-linecap:butt;stroke-linejoin:miter;stroke-miterlimit:4;stroke-opacity:1;stroke-dasharray:1, 2;stroke-dashoffset:10"
     d="m 255.90965,215.11754 -3.88229,134.7262"
     id="path6516"
     inkscape:connector-curvature="0" />
  <path
     transform="matrix(1.5532549,0,0,1.2487732,-449.45871,185.07564)"
     sodipodi:type="arc"
     style="fill:#b3b3b3;fill-opacity:1;stroke:#999999;stroke-width:2;stroke-linejoin:round;stroke-miterlimit:4;stroke-opacity:1;stroke-dasharray:none;stroke-dashoffset:0"
     id="path6109-9-8-5"
     sodipodi:cx="480.32755"
     sodipodi:cy="79.080208"
     sodipodi:rx="9.5964489"
     sodipodi:ry="9.5964489"
     d="m 489.92399,79.080208 a 9.5964489,9.5964489 0 1 1 -19.19289,0 9.5964489,9.5964489 0 1 1 19.19289,0 z" />
  <text
     xml:space="preserve"
     style="font-size:16px;font-style:normal;font-weight:normal;line-height:125%;letter-spacing:0px;word-spacing:0px;fill:#808080;fill-opacity:1;stroke:none;font-family:Sans"
     x="286.35068"
     y="289.76639"
     id="text6588"
     sodipodi:linespacing="125%"><tspan
       sodipodi:role="line"
       id="tspan6590"
       x="286.35068"
       y="289.76639">12</tspan></text>
  <path
     style="fill:#3e76a8;stroke:#53a0ff;stroke-width:4;stroke-linecap:butt;stroke-linejoin:miter;stroke-opacity:1;stroke-miterlimit:4;stroke-dasharray:none;fill-opacity:1"
     d="M 259.79194,80.391356 354.50655,182.11007 252.02736,349.84374 163.60996,248.12498 259.79194,80.391356"
     id="path6186"
     inkscape:connector-curvature="0" />
  <path
     style="fill:none;stroke:#999999;stroke-width:1px;stroke-linecap:butt;stroke-linejoin:miter;stroke-opacity:1"
     d="m 399.09159,116.09523 -44.58504,66.01484 -44.58507,66.01491"
     id="path6194"
     inkscape:connector-curvature="0" />
  <path
     transform="matrix(1.5532549,0,0,1.2487732,-391.56456,83.356827)"
     sodipodi:type="arc"
     style="fill:#b3b3b3;fill-opacity:1;stroke:#999999;stroke-width:2;stroke-linejoin:round;stroke-miterlimit:4;stroke-opacity:1;stroke-dasharray:none;stroke-dashoffset:0"
     id="path6109-6-1"
     sodipodi:cx="480.32755"
     sodipodi:cy="79.080208"
     sodipodi:rx="9.5964489"
     sodipodi:ry="9.5964489"
     d="m 489.92399,79.080208 a 9.5964489,9.5964489 0 1 1 -19.19289,0 9.5964489,9.5964489 0 1 1 19.19289,0 z" />
  <path
     style="fill:#3e76a8;stroke:#53a0ff;stroke-width:4.00000010000000028;stroke-linecap:butt;stroke-linejoin:miter;stroke-opacity:1;stroke-miterlimit:4;stroke-dasharray:none;fill-opacity:1"
     d="m 163.60996,248.12498 88.4174,101.71876 -146.31151,0 57.89411,-101.71876"
     id="path6184"
     inkscape:connector-curvature="0" />
  <path
     sodipodi:type="arc"
     style="fill:#b3b3b3;fill-opacity:1;stroke:#999999;stroke-width:2;stroke-linejoin:round;stroke-miterlimit:4;stroke-opacity:1;stroke-dasharray:none;stroke-dashoffset:0"
     id="path6109-0"
     sodipodi:cx="480.32755"
     sodipodi:cy="79.080208"
     sodipodi:rx="9.5964489"
     sodipodi:ry="9.5964489"
     d="m 489.92399,79.080208 a 9.5964489,9.5964489 0 1 1 -19.19289,0 9.5964489,9.5964489 0 1 1 19.19289,0 z"
     transform="matrix(1.5532549,0,0,1.2487732,-588.00564,-84.376738)" />
  <path
     transform="matrix(1.5532549,0,0,1.2487732,-441.69413,-84.376738)"
     sodipodi:type="arc"
     style="fill:#b3b3b3;fill-opacity:1;stroke:#999999;stroke-width:2;stroke-linejoin:round;stroke-miterlimit:4;stroke-opacity:1;stroke-dasharray:none;stroke-dashoffset:0"
     id="path6109-9-8"
     sodipodi:cx="480.32755"
     sodipodi:cy="79.080208"
     sodipodi:rx="9.5964489"
     sodipodi:ry="9.5964489"
     d="m 489.92399,79.080208 a 9.5964489,9.5964489 0 1 1 -19.19289,0 9.5964489,9.5964489 0 1 1 19.19289,0 z" />
  <path
     transform="matrix(1.5532549,0,0,1.2487732,-295.38261,-84.376738)"
     sodipodi:type="arc"
     style="fill:#b3b3b3;fill-opacity:1;stroke:#999999;stroke-width:2;stroke-linejoin:round;stroke-miterlimit:4;stroke-opacity:1;stroke-dasharray:none;stroke-dashoffset:0"
     id="path6109-6-5"
     sodipodi:cx="480.32755"
     sodipodi:cy="79.080208"
     sodipodi:rx="9.5964489"
     sodipodi:ry="9.5964489"
     d="m 489.92399,79.080208 a 9.5964489,9.5964489 0 1 1 -19.19289,0 9.5964489,9.5964489 0 1 1 19.19289,0 z" />
  <path
     transform="matrix(1.5532549,0,0,1.2487732,-339.96765,-18.361888)"
     sodipodi:type="arc"
     style="fill:#b3b3b3;fill-opacity:1;stroke:#999999;stroke-width:2;stroke-linejoin:round;stroke-miterlimit:4;stroke-opacity:1;stroke-dasharray:none;stroke-dashoffset:0"
     id="path6109-6-1-2"
     sodipodi:cx="480.32755"
     sodipodi:cy="79.080208"
     sodipodi:rx="9.5964489"
     sodipodi:ry="9.5964489"
     d="m 489.92399,79.080208 a 9.5964489,9.5964489 0 1 1 -19.19289,0 9.5964489,9.5964489 0 1 1 19.19289,0 z" />
  <path
     transform="matrix(1.5532549,0,0,1.2487732,-303.14719,185.07564)"
     sodipodi:type="arc"
     style="fill:#b3b3b3;fill-opacity:1;stroke:#999999;stroke-width:2;stroke-linejoin:round;stroke-miterlimit:4;stroke-opacity:1;stroke-dasharray:none;stroke-dashoffset:0"
     id="path6109-6-5-6"
     sodipodi:cx="480.32755"
     sodipodi:cy="79.080208"
     sodipodi:rx="9.5964489"
     sodipodi:ry="9.5964489"
     d="m 489.92399,79.080208 a 9.5964489,9.5964489 0 1 1 -19.19289,0 9.5964489,9.5964489 0 1 1 19.19289,0 z" />
  <path
     sodipodi:type="arc"
     style="fill:#b3b3b3;fill-opacity:1;stroke:#999999;stroke-width:2;stroke-linejoin:round;stroke-miterlimit:4;stroke-opacity:1;stroke-dasharray:none;stroke-dashoffset:0"
     id="path6109-2-9-8"
     sodipodi:cx="480.32755"
     sodipodi:cy="79.080208"
     sodipodi:rx="9.5964489"
     sodipodi:ry="9.5964489"
     d="m 489.92399,79.080208 a 9.5964489,9.5964489 0 1 1 -19.19289,0 9.5964489,9.5964489 0 1 1 19.19289,0 z"
     transform="matrix(1.5532549,0,0,1.2487732,-640.35526,251.0905)" />
  <path
     transform="matrix(1.5532549,0,0,1.2487732,-494.04375,251.0905)"
     sodipodi:type="arc"
     style="fill:#b3b3b3;fill-opacity:1;stroke:#999999;stroke-width:2;stroke-linejoin:round;stroke-miterlimit:4;stroke-opacity:1;stroke-dasharray:none;stroke-dashoffset:0"
     id="path6109-9-7-8-6"
     sodipodi:cx="480.32755"
     sodipodi:cy="79.080208"
     sodipodi:rx="9.5964489"
     sodipodi:ry="9.5964489"
     d="m 489.92399,79.080208 a 9.5964489,9.5964489 0 1 1 -19.19289,0 9.5964489,9.5964489 0 1 1 19.19289,0 z" />
  <path
     transform="matrix(1.5532549,0,0,1.2487732,-347.73223,251.0905)"
     sodipodi:type="arc"
     style="fill:#b3b3b3;fill-opacity:1;stroke:#999999;stroke-width:2;stroke-linejoin:round;stroke-miterlimit:4;stroke-opacity:1;stroke-dasharray:none;stroke-dashoffset:0"
     id="path6109-6-1-2-6"
     sodipodi:cx="480.32755"
     sodipodi:cy="79.080208"
     sodipodi:rx="9.5964489"
     sodipodi:ry="9.5964489"
     d="m 489.92399,79.080208 a 9.5964489,9.5964489 0 1 1 -19.19289,0 9.5964489,9.5964489 0 1 1 19.19289,0 z" />
  <text
     xml:space="preserve"
     style="font-size:16px;font-style:normal;font-weight:normal;line-height:125%;letter-spacing:0px;word-spacing:0px;fill:#808080;fill-opacity:1;stroke:none;font-family:Sans"
     x="349.44797"
     y="187.93423"
     id="text6536"
     sodipodi:linespacing="125%"><tspan
       sodipodi:role="line"
       id="tspan6538"
       x="349.44797"
       y="187.93423">3</tspan></text>
  <path
     style="fill:#3e76a8;stroke:#53a0ff;stroke-width:4;stroke-linecap:butt;stroke-linejoin:miter;stroke-opacity:1;stroke-miterlimit:4;stroke-dasharray:none;fill-opacity:1"
     d="m 113.48043,80.391356 50.12953,167.733624 96.18198,-167.733624 -146.31151,0"
     id="path5406"
     inkscape:connector-curvature="0" />
  <path
     transform="matrix(1.5532549,0,0,1.2487732,-486.27917,-18.361888)"
     sodipodi:type="arc"
     style="fill:#b3b3b3;fill-opacity:1;stroke:#999999;stroke-width:2;stroke-linejoin:round;stroke-miterlimit:4;stroke-opacity:1;stroke-dasharray:none;stroke-dashoffset:0"
     id="path6109-9-7-8"
     sodipodi:cx="480.32755"
     sodipodi:cy="79.080208"
     sodipodi:rx="9.5964489"
     sodipodi:ry="9.5964489"
     d="m 489.92399,79.080208 a 9.5964489,9.5964489 0 1 1 -19.19289,0 9.5964489,9.5964489 0 1 1 19.19289,0 z" />
  <path
     sodipodi:type="arc"
     style="fill:#b3b3b3;fill-opacity:1;stroke:#999999;stroke-width:2;stroke-linejoin:round;stroke-miterlimit:4;stroke-opacity:1;stroke-dasharray:none;stroke-dashoffset:0"
     id="path6109-2-9"
     sodipodi:cx="480.32755"
     sodipodi:cy="79.080208"
     sodipodi:rx="9.5964489"
     sodipodi:ry="9.5964489"
     d="m 489.92399,79.080208 a 9.5964489,9.5964489 0 1 1 -19.19289,0 9.5964489,9.5964489 0 1 1 19.19289,0 z"
     transform="matrix(1.5532549,0,0,1.2487732,-632.59068,-18.361888)" />
  <path
     style="fill:none;stroke:#999999;stroke-width:1px;stroke-linecap:butt;stroke-linejoin:miter;stroke-opacity:1"
     d="m 309.92148,248.12498 -146.31152,0 -146.311507,0 44.58507,-66.01491"
     id="path6196"
     inkscape:connector-curvature="0" />
  <path
     transform="matrix(1.5532549,0,0,1.2487732,-436.14963,149.37174)"
     sodipodi:type="arc"
     style="fill:#b3b3b3;fill-opacity:1;stroke:#999999;stroke-width:2;stroke-linejoin:round;stroke-miterlimit:4;stroke-opacity:1;stroke-dasharray:none;stroke-dashoffset:0"
     id="path6109-6-4"
     sodipodi:cx="480.32755"
     sodipodi:cy="79.080208"
     sodipodi:rx="9.5964489"
     sodipodi:ry="9.5964489"
     d="m 489.92399,79.080208 a 9.5964489,9.5964489 0 1 1 -19.19289,0 9.5964489,9.5964489 0 1 1 19.19289,0 z" />
  <text
     xml:space="preserve"
     style="font-size:16px;font-style:normal;font-weight:normal;line-height:125%;letter-spacing:0px;word-spacing:0px;fill:#808080;fill-opacity:1;stroke:none;font-family:Sans"
     x="304.89023"
     y="253.957"
     id="text6540"
     sodipodi:linespacing="125%"><tspan
       sodipodi:role="line"
       id="tspan6542"
       x="304.89023"
       y="253.957">4</tspan></text>
  <path
     transform="matrix(1.5532549,0,0,1.2487732,-582.46115,149.37174)"
     sodipodi:type="arc"
     style="fill:#b3b3b3;fill-opacity:1;stroke:#999999;stroke-width:2;stroke-linejoin:round;stroke-miterlimit:4;stroke-opacity:1;stroke-dasharray:none;stroke-dashoffset:0"
     id="path6109-9-4"
     sodipodi:cx="480.32755"
     sodipodi:cy="79.080208"
     sodipodi:rx="9.5964489"
     sodipodi:ry="9.5964489"
     d="m 489.92399,79.080208 a 9.5964489,9.5964489 0 1 1 -19.19289,0 9.5964489,9.5964489 0 1 1 19.19289,0 z" />
  <text
     xml:space="preserve"
     style="font-size:16px;font-style:normal;font-weight:normal;line-height:125%;letter-spacing:0px;word-spacing:0px;fill:#808080;fill-opacity:1;stroke:none;font-family:Sans"
     x="158.60216"
     y="253.84372"
     id="text6544"
     sodipodi:linespacing="125%"><tspan
       sodipodi:role="line"
       id="tspan6546"
       x="158.60216"
       y="253.84372">5</tspan></text>
  <text
     xml:space="preserve"
     style="font-size:16px;font-style:normal;font-weight:normal;line-height:125%;letter-spacing:0px;word-spacing:0px;fill:#808080;fill-opacity:1;stroke:none;font-family:Sans"
     x="147.6436"
     y="20.200729"
     id="text6560"
     sodipodi:linespacing="125%"><tspan
       sodipodi:role="line"
       id="tspan6562"
       x="147.6436"
       y="20.200729">13</tspan></text>
  <text
     xml:space="preserve"
     style="font-size:16px;font-style:normal;font-weight:normal;line-height:125%;letter-spacing:0px;word-spacing:0px;fill:#808080;fill-opacity:1;stroke:none;font-family:Sans"
     x="293.7637"
     y="20.208534"
     id="text6564"
     sodipodi:linespacing="125%"><tspan
       sodipodi:role="line"
       id="tspan6566"
       x="293.7637"
       y="20.208534">14</tspan></text>
  <text
     xml:space="preserve"
     style="font-size:16px;font-style:normal;font-weight:normal;line-height:125%;letter-spacing:0px;word-spacing:0px;fill:#808080;fill-opacity:1;stroke:none;font-family:Sans"
     x="249.42867"
     y="86.110107"
     id="text6568"
     sodipodi:linespacing="125%"><tspan
       sodipodi:role="line"
       id="tspan6570"
       x="249.42867"
       y="86.110107">15</tspan></text>
  <text
     xml:space="preserve"
     style="font-size:16px;font-style:normal;font-weight:normal;line-height:125%;letter-spacing:0px;word-spacing:0px;fill:#808080;fill-opacity:1;stroke:none;font-family:Sans"
     x="102.92183"
     y="86.215576"
     id="text6572"
     sodipodi:linespacing="125%"><tspan
       sodipodi:role="line"
       id="tspan6574"
       x="102.92183"
       y="86.215576">16</tspan></text>
  <text
     xml:space="preserve"
     style="font-size:16px;font-style:normal;font-weight:normal;line-height:125%;letter-spacing:0px;word-spacing:0px;fill:#808080;fill-opacity:1;stroke:none;font-family:Sans"
     x="246.99611"
     y="355.66794"
     id="text6580"
     sodipodi:linespacing="125%"><tspan
       sodipodi:role="line"
       id="tspan6582"
       x="246.99611"
       y="355.66794">9</tspan></text>
  <text
     xml:space="preserve"
     style="font-size:16px;font-style:normal;font-weight:normal;line-height:125%;letter-spacing:0px;word-spacing:0px;fill:#808080;fill-opacity:1;stroke:none;font-family:Sans"
     x="95.184601"
     y="355.66794"
     id="text6584"
     sodipodi:linespacing="125%"><tspan
       sodipodi:role="line"
       id="tspan6586"
       x="95.184601"
       y="355.66794">10</tspan></text>
  <path
     transform="matrix(1.5532549,0,0,1.2487732,-346.97952,17.341987)"
     sodipodi:type="arc"
     style="fill:#b3b3b3;fill-opacity:1;stroke:#999999;stroke-width:2;stroke-linejoin:round;stroke-miterlimit:4;stroke-opacity:1;stroke-dasharray:none;stroke-dashoffset:0"
     id="path6109-6"
     sodipodi:cx="480.32755"
     sodipodi:cy="79.080208"
     sodipodi:rx="9.5964489"
     sodipodi:ry="9.5964489"
     d="m 489.92399,79.080208 a 9.5964489,9.5964489 0 1 1 -19.19289,0 9.5964489,9.5964489 0 1 1 19.19289,0 z" />
  <text
     xml:space="preserve"
     style="font-size:16px;font-style:normal;font-weight:normal;line-height:125%;letter-spacing:0px;word-spacing:0px;fill:#808080;fill-opacity:1;stroke:none;font-family:Sans"
     x="394.21658"
     y="122.03273"
     id="text6532"
     sodipodi:linespacing="125%"><tspan
       sodipodi:role="line"
       id="tspan6534"
       x="394.21658"
       y="122.03273">2</tspan></text>
  <path
     sodipodi:type="arc"
     style="fill:#b3b3b3;fill-opacity:1;stroke:#999999;stroke-width:2;stroke-linejoin:round;stroke-miterlimit:4;stroke-opacity:1;stroke-dasharray:none;stroke-dashoffset:0"
     id="path6109-4"
     sodipodi:cx="480.32755"
     sodipodi:cy="79.080208"
     sodipodi:rx="9.5964489"
     sodipodi:ry="9.5964489"
     d="m 489.92399,79.080208 a 9.5964489,9.5964489 0 1 1 -19.19289,0 9.5964489,9.5964489 0 1 1 19.19289,0 z"
     transform="matrix(1.5532549,0,0,1.2487732,-728.77266,149.37174)" />
  <text
     xml:space="preserve"
     style="font-size:16px;font-style:normal;font-weight:normal;line-height:125%;letter-spacing:0px;word-spacing:0px;fill:#808080;fill-opacity:1;stroke:none;font-family:Sans"
     x="12.153915"
     y="253.94919"
     id="text6548"
     sodipodi:linespacing="125%"><tspan
       sodipodi:role="line"
       id="tspan6550"
       x="12.153915"
       y="253.94919">6</tspan></text>
  <path
     sodipodi:type="arc"
     style="fill:#b3b3b3;fill-opacity:1;stroke:#999999;stroke-width:2;stroke-linejoin:round;stroke-miterlimit:4;stroke-opacity:1;stroke-dasharray:none;stroke-dashoffset:0"
     id="path6109-2"
     sodipodi:cx="480.32755"
     sodipodi:cy="79.080208"
     sodipodi:rx="9.5964489"
     sodipodi:ry="9.5964489"
     d="m 489.92399,79.080208 a 9.5964489,9.5964489 0 1 1 -19.19289,0 9.5964489,9.5964489 0 1 1 19.19289,0 z"
     transform="matrix(1.5532549,0,0,1.2487732,-684.18759,83.356827)" />
  <text
     xml:space="preserve"
     style="font-size:16px;font-style:normal;font-weight:normal;line-height:125%;letter-spacing:0px;word-spacing:0px;fill:#808080;fill-opacity:1;stroke:none;font-family:Sans"
     x="56.821014"
     y="187.94205"
     id="text6552"
     sodipodi:linespacing="125%"><tspan
       sodipodi:role="line"
       id="tspan6554"
       x="56.821014"
       y="187.94205">7</tspan></text>
</svg>
