<?xml version="1.0" encoding="UTF-8" standalone="no"?>
<!-- Created with Inkscape (http://www.inkscape.org/) -->

<svg
   xmlns:dc="http://purl.org/dc/elements/1.1/"
   xmlns:cc="http://creativecommons.org/ns#"
   xmlns:rdf="http://www.w3.org/1999/02/22-rdf-syntax-ns#"
   xmlns:svg="http://www.w3.org/2000/svg"
   xmlns="http://www.w3.org/2000/svg"
   xmlns:sodipodi="http://sodipodi.sourceforge.net/DTD/sodipodi-0.dtd"
   xmlns:inkscape="http://www.inkscape.org/namespaces/inkscape"
   width="385.12759"
   height="299.51691"
   id="svg2"
   version="1.1"
   inkscape:version="0.48.5 r10040"
   sodipodi:docname="Cuboc_on_fccubic.svg">
  <defs
     id="defs4" />
  <sodipodi:namedview
     id="base"
     pagecolor="#ffffff"
     bordercolor="#666666"
     borderopacity="1.0"
     inkscape:pageopacity="0.0"
     inkscape:pageshadow="2"
     inkscape:zoom="2.14"
     inkscape:cx="210.40809"
     inkscape:cy="139.12279"
     inkscape:document-units="px"
     inkscape:current-layer="layer1"
     showgrid="false"
     inkscape:snap-global="true"
     inkscape:snap-object-midpoints="true"
     inkscape:snap-smooth-nodes="true"
     inkscape:window-width="1920"
     inkscape:window-height="1134"
     inkscape:window-x="0"
     inkscape:window-y="27"
     inkscape:window-maximized="1"
     fit-margin-top="1"
     fit-margin-left="1"
     fit-margin-right="1"
     fit-margin-bottom="1" />
  <metadata
     id="metadata7">
    <rdf:RDF>
      <cc:Work
         rdf:about="">
        <dc:format>image/svg+xml</dc:format>
        <dc:type
           rdf:resource="http://purl.org/dc/dcmitype/StillImage" />
        <dc:title />
      </cc:Work>
    </rdf:RDF>
  </metadata>
  <g
     inkscape:label="Calque 1"
     inkscape:groupmode="layer"
     id="layer1"
     transform="translate(-91.69392,-112.42701)">
    <path
       style="fill:none;stroke:#999999;stroke-width:1;stroke-linecap:butt;stroke-linejoin:miter;stroke-miterlimit:4;stroke-opacity:1;stroke-dasharray:none"
       d="m 339.0968,125.33827 67.91999,52.37605"
       id="path6132"
       inkscape:connector-curvature="0" />
    <path
       style="fill:none;stroke:#000000;stroke-width:3.53890276;stroke-linecap:butt;stroke-linejoin:miter;stroke-miterlimit:4;stroke-opacity:1;stroke-dasharray:none"
       d="m 214.32529,209.80942 121.75285,0 67.91999,52.37605 -53.83288,52.37604 -121.75286,0 -67.91998,-52.37604 z"
       id="path6409"
       inkscape:connector-curvature="0" />
    <path
       style="fill:none;stroke:#000000;stroke-width:3.53890276;stroke-linecap:butt;stroke-linejoin:miter;stroke-miterlimit:4;stroke-opacity:1;stroke-dasharray:none"
       d="m 403.99813,262.18547 -121.75287,0 67.91999,52.37604"
       id="path6138"
       inkscape:connector-curvature="0" />
    <path
       style="fill:none;stroke:#000000;stroke-width:3.53890276;stroke-linecap:butt;stroke-linejoin:miter;stroke-miterlimit:4.0999999;stroke-opacity:1;stroke-dasharray:none"
       d="m 160.49241,262.18547 121.75286,-1e-5 -53.83288,52.37605"
       id="path6136"
       inkscape:connector-curvature="0" />
    <path
       style="fill:none;stroke:#000000;stroke-width:3.53890276;stroke-linecap:butt;stroke-linejoin:miter;stroke-miterlimit:4;stroke-opacity:1;stroke-dasharray:none"
       d="m 214.32529,209.80942 67.91998,52.37604 53.83287,-52.37604"
       id="path6134"
       inkscape:connector-curvature="0" />
    <path
       transform="matrix(1,0,0,0.78273955,121.75285,24.047808)"
       sodipodi:type="arc"
       style="fill:#f6ffd5;fill-opacity:1;stroke:#000000;stroke-width:2;stroke-linejoin:round;stroke-miterlimit:4;stroke-opacity:1;stroke-dasharray:none;stroke-dashoffset:10"
       id="path6204-7"
       sodipodi:cx="214.32529"
       sodipodi:cy="237.32237"
       sodipodi:rx="14.087108"
       sodipodi:ry="14.087108"
       d="m 228.41239,237.32237 c 0,7.7801 -6.30701,14.08711 -14.0871,14.08711 -7.7801,0 -14.08711,-6.30701 -14.08711,-14.08711 0,-7.78009 6.30701,-14.08711 14.08711,-14.08711 7.78009,0 14.0871,6.30702 14.0871,14.08711 z" />
    <path
       style="fill:none;stroke:#4d4d4d;stroke-width:0.88472569px;stroke-linecap:butt;stroke-linejoin:miter;stroke-opacity:1"
       d="m 339.0968,125.33827 -2.01244,119.51977"
       id="path6405"
       inkscape:connector-curvature="0" />
    <path
       sodipodi:type="arc"
       style="fill:#f6ffd5;fill-opacity:1;stroke:#000000;stroke-width:2;stroke-linejoin:round;stroke-miterlimit:4;stroke-opacity:1;stroke-dasharray:none;stroke-dashoffset:10"
       id="path6204"
       sodipodi:cx="214.32529"
       sodipodi:cy="237.32237"
       sodipodi:rx="14.087108"
       sodipodi:ry="14.087108"
       d="m 228.41239,237.32237 c 0,7.7801 -6.30701,14.08711 -14.0871,14.08711 -7.7801,0 -14.08711,-6.30701 -14.08711,-14.08711 0,-7.78009 6.30701,-14.08711 14.08711,-14.08711 7.78009,0 14.0871,6.30702 14.0871,14.08711 z"
       transform="matrix(1,0,0,0.78273955,0,24.047808)" />
    <path
       style="fill:none;stroke:#4d4d4d;stroke-width:0.58565301px;stroke-linecap:butt;stroke-linejoin:miter;stroke-opacity:1"
       d="m 218.35017,243.64214 0,-119.68941"
       id="path6366"
       inkscape:connector-curvature="0" />
    <path
       style="fill:none;stroke:#000000;stroke-width:3.53890276;stroke-linecap:butt;stroke-linejoin:miter;stroke-miterlimit:4;stroke-opacity:1;stroke-dasharray:none"
       d="m 217.34395,125.33827 121.75285,0 -53.83288,52.37605 -67.91997,-52.37605"
       id="path6411"
       inkscape:connector-curvature="0" />
    <path
       style="fill:none;stroke:#4d4d4d;stroke-width:0.88472569;stroke-linecap:butt;stroke-linejoin:miter;stroke-miterlimit:4;stroke-opacity:1;stroke-dasharray:0.88472569, 2.65417707;stroke-dashoffset:0"
       d="m 230.42484,397.64711 2.01244,-119.51977"
       id="path6405-0"
       inkscape:connector-curvature="0" />
    <path
       style="fill:none;stroke:#4d4d4d;stroke-width:0.88472569;stroke-linecap:butt;stroke-linejoin:miter;stroke-miterlimit:4;stroke-opacity:1;stroke-dasharray:0.88472569, 2.65417707;stroke-dashoffset:0"
       d="M 284.25772,345.27107 283.75459,223.38845"
       id="path6407-9"
       inkscape:connector-curvature="0" />
    <path
       transform="matrix(1,0,0,0.78273955,67.919971,76.42386)"
       sodipodi:type="arc"
       style="fill:#f6ffd5;fill-opacity:1;stroke:#000000;stroke-width:2;stroke-linejoin:round;stroke-miterlimit:4;stroke-opacity:1;stroke-dasharray:none;stroke-dashoffset:10"
       id="path6204-7-6"
       sodipodi:cx="214.32529"
       sodipodi:cy="237.32237"
       sodipodi:rx="14.087108"
       sodipodi:ry="14.087108"
       d="m 228.41239,237.32237 c 0,7.7801 -6.30701,14.08711 -14.0871,14.08711 -7.7801,0 -14.08711,-6.30701 -14.08711,-14.08711 0,-7.78009 6.30701,-14.08711 14.08711,-14.08711 7.78009,0 14.0871,6.30702 14.0871,14.08711 z" />
    <path
       style="fill:#4d4d4d;stroke:#4d4d4d;stroke-width:0.88472569px;stroke-linecap:butt;stroke-linejoin:miter;stroke-opacity:1"
       d="m 285.26392,177.71432 0.50313,121.88261"
       id="path6407"
       inkscape:connector-curvature="0" />
    <path
       style="fill:none;stroke:#000000;stroke-width:3.53890276;stroke-linecap:butt;stroke-linejoin:miter;stroke-miterlimit:4;stroke-opacity:1;stroke-dasharray:none"
       d="m 283.2515,346.65661 67.91997,52.37604 -121.75285,0 z"
       id="path6437"
       inkscape:connector-curvature="0" />
    <path
       sodipodi:type="arc"
       style="fill:#4d4d4d;fill-opacity:1;stroke:#4d4d4d;stroke-width:4;stroke-linejoin:round;stroke-miterlimit:4;stroke-opacity:1;stroke-dasharray:none;stroke-dashoffset:10"
       id="path6441"
       sodipodi:cx="47.795544"
       sodipodi:cy="186.50816"
       sodipodi:rx="2.5155549"
       sodipodi:ry="2.5155549"
       d="m 50.311099,186.50816 c 0,1.38931 -1.126253,2.51556 -2.515555,2.51556 -1.389303,0 -2.515555,-1.12625 -2.515555,-2.51556 0,-1.3893 1.126252,-2.51555 2.515555,-2.51555 1.389302,0 2.515555,1.12625 2.515555,2.51555 z"
       transform="matrix(1,0,0,0.78273955,303.37593,134.31318)" />
    <path
       transform="matrix(1,0,0,0.78273955,170.55463,99.264538)"
       sodipodi:type="arc"
       style="fill:#4d4d4d;fill-opacity:1;stroke:#4d4d4d;stroke-width:4;stroke-linejoin:round;stroke-miterlimit:4;stroke-opacity:1;stroke-dasharray:none;stroke-dashoffset:10"
       id="path6441-3"
       sodipodi:cx="47.795544"
       sodipodi:cy="186.50816"
       sodipodi:rx="2.5155549"
       sodipodi:ry="2.5155549"
       d="m 50.311099,186.50816 c 0,1.38931 -1.126253,2.51556 -2.515555,2.51556 -1.389303,0 -2.515555,-1.12625 -2.515555,-2.51556 0,-1.3893 1.126252,-2.51555 2.515555,-2.51555 1.389302,0 2.515555,1.12625 2.515555,2.51555 z" />
    <path
       transform="matrix(1,0,0,0.78273955,290.29504,99.264537)"
       sodipodi:type="arc"
       style="fill:#4d4d4d;fill-opacity:1;stroke:#4d4d4d;stroke-width:4;stroke-linejoin:round;stroke-miterlimit:4;stroke-opacity:1;stroke-dasharray:none;stroke-dashoffset:10"
       id="path6441-5"
       sodipodi:cx="47.795544"
       sodipodi:cy="186.50816"
       sodipodi:rx="2.5155549"
       sodipodi:ry="2.5155549"
       d="m 50.311099,186.50816 c 0,1.38931 -1.126253,2.51556 -2.515555,2.51556 -1.389303,0 -2.515555,-1.12625 -2.515555,-2.51556 0,-1.3893 1.126252,-2.51555 2.515555,-2.51555 1.389302,0 2.515555,1.12625 2.515555,2.51555 z" />
    <path
       transform="matrix(1,0,0,0.78273955,236.21061,74.848635)"
       sodipodi:type="arc"
       style="fill:#4d4d4d;fill-opacity:1;stroke:#4d4d4d;stroke-width:4;stroke-linejoin:round;stroke-miterlimit:4;stroke-opacity:1;stroke-dasharray:none;stroke-dashoffset:10"
       id="path6441-6"
       sodipodi:cx="47.795544"
       sodipodi:cy="186.50816"
       sodipodi:rx="2.5155549"
       sodipodi:ry="2.5155549"
       d="m 50.311099,186.50816 c 0,1.38931 -1.126253,2.51556 -2.515555,2.51556 -1.389303,0 -2.515555,-1.12625 -2.515555,-2.51556 0,-1.3893 1.126252,-2.51555 2.515555,-2.51555 1.389302,0 2.515555,1.12625 2.515555,2.51555 z" />
    <path
       transform="matrix(1,0,0,0.78273955,237.71994,152.51942)"
       sodipodi:type="arc"
       style="fill:#4d4d4d;fill-opacity:1;stroke:#4d4d4d;stroke-width:4;stroke-linejoin:round;stroke-miterlimit:4;stroke-opacity:1;stroke-dasharray:none;stroke-dashoffset:10"
       id="path6441-7"
       sodipodi:cx="47.795544"
       sodipodi:cy="186.50816"
       sodipodi:rx="2.5155549"
       sodipodi:ry="2.5155549"
       d="m 50.311099,186.50816 c 0,1.38931 -1.126253,2.51556 -2.515555,2.51556 -1.389303,0 -2.515555,-1.12625 -2.515555,-2.51556 0,-1.3893 1.126252,-2.51555 2.515555,-2.51555 1.389302,0 2.515555,1.12625 2.515555,2.51555 z" />
    <path
       transform="matrix(1,0,0,0.78273955,183.63552,133.13176)"
       sodipodi:type="arc"
       style="fill:#4d4d4d;fill-opacity:1;stroke:#4d4d4d;stroke-width:4;stroke-linejoin:round;stroke-miterlimit:4;stroke-opacity:1;stroke-dasharray:none;stroke-dashoffset:10"
       id="path6441-2"
       sodipodi:cx="47.795544"
       sodipodi:cy="186.50816"
       sodipodi:rx="2.5155549"
       sodipodi:ry="2.5155549"
       d="m 50.311099,186.50816 c 0,1.38931 -1.126253,2.51556 -2.515555,2.51556 -1.389303,0 -2.515555,-1.12625 -2.515555,-2.51556 0,-1.3893 1.126252,-2.51555 2.515555,-2.51555 1.389302,0 2.515555,1.12625 2.515555,2.51555 z" />
    <path
       style="fill:none;stroke:#999999;stroke-width:1;stroke-linecap:butt;stroke-linejoin:miter;stroke-miterlimit:4;stroke-opacity:1;stroke-dasharray:none"
       d="m 283.2515,346.65661 -121.75287,0 -53.83288,52.37604 121.75287,0"
       id="path6140"
       inkscape:connector-curvature="0" />
    <path
       transform="matrix(-1,0,0,-0.78273955,497.57679,532.41821)"
       sodipodi:type="arc"
       style="fill:#0000ff;fill-opacity:1;stroke:#000000;stroke-width:2;stroke-linejoin:round;stroke-miterlimit:4;stroke-opacity:1;stroke-dasharray:none;stroke-dashoffset:10"
       id="path6204-7-6-6"
       sodipodi:cx="214.32529"
       sodipodi:cy="237.32237"
       sodipodi:rx="14.087108"
       sodipodi:ry="14.087108"
       d="m 228.41239,237.32237 c 0,7.7801 -6.30701,14.08711 -14.0871,14.08711 -7.7801,0 -14.08711,-6.30701 -14.08711,-14.08711 0,-7.78009 6.30701,-14.08711 14.08711,-14.08711 7.78009,0 14.0871,6.30702 14.0871,14.08711 z" />
    <path
       transform="matrix(-1,0,0,-0.78273955,321.99104,584.79426)"
       sodipodi:type="arc"
       style="fill:#b3b3b3;fill-opacity:1;stroke:#999999;stroke-width:3.24281303;stroke-linejoin:round;stroke-miterlimit:4;stroke-opacity:1;stroke-dasharray:none;stroke-dashoffset:10"
       id="path6204-0-8"
       sodipodi:cx="214.32529"
       sodipodi:cy="237.32237"
       sodipodi:rx="14.087108"
       sodipodi:ry="14.087108"
       d="m 228.41239,237.32237 c 0,7.7801 -6.30701,14.08711 -14.0871,14.08711 -7.7801,0 -14.08711,-6.30701 -14.08711,-14.08711 0,-7.78009 6.30701,-14.08711 14.08711,-14.08711 7.78009,0 14.0871,6.30702 14.0871,14.08711 z" />
    <path
       style="fill:none;stroke:#999999;stroke-width:1;stroke-linecap:butt;stroke-linejoin:miter;stroke-miterlimit:4;stroke-opacity:1;stroke-dasharray:none"
       d="m 161.49863,346.65661 67.91999,52.37604"
       id="path6142"
       inkscape:connector-curvature="0" />
    <path
       style="fill:#3e76a8;stroke:#53a0ff;stroke-width:4;stroke-linecap:butt;stroke-linejoin:miter;stroke-miterlimit:4;stroke-opacity:1;stroke-dasharray:none;fill-opacity:1"
       d="m 228.41239,314.56151 1.00623,84.47114 -68.92621,-136.84718 z"
       id="path6198"
       inkscape:connector-curvature="0" />
    <path
       transform="matrix(-1,0,0,-0.78273955,375.82392,532.41821)"
       sodipodi:type="arc"
       style="fill:#b3b3b3;fill-opacity:1;stroke:#999999;stroke-width:3.24281303;stroke-linejoin:round;stroke-miterlimit:4;stroke-opacity:1;stroke-dasharray:none;stroke-dashoffset:10"
       id="path6204-0-1-8"
       sodipodi:cx="214.32529"
       sodipodi:cy="237.32237"
       sodipodi:rx="14.087108"
       sodipodi:ry="14.087108"
       d="m 228.41239,237.32237 c 0,7.7801 -6.30701,14.08711 -14.0871,14.08711 -7.7801,0 -14.08711,-6.30701 -14.08711,-14.08711 0,-7.78009 6.30701,-14.08711 14.08711,-14.08711 7.78009,0 14.0871,6.30702 14.0871,14.08711 z" />
    <text
       xml:space="preserve"
       style="font-size:15.92506218px;font-style:normal;font-weight:normal;line-height:125%;letter-spacing:0px;word-spacing:0px;fill:#000000;fill-opacity:1;stroke:none;font-family:Sans"
       x="244.64752"
       y="302.14355"
       id="text6144"
       sodipodi:linespacing="125%"
       transform="scale(1.1302938,0.88472569)"><tspan
         sodipodi:role="line"
         id="tspan6146"
         x="244.64752"
         y="302.14355">0</tspan></text>
    <path
       style="fill:#3e76a8;stroke:#53a0ff;stroke-width:4;stroke-linecap:butt;stroke-linejoin:miter;stroke-miterlimit:4;stroke-opacity:1;stroke-dasharray:none;fill-opacity:1"
       d="m 285.26392,177.71432 64.90133,136.84719 -121.75286,0 z"
       id="path6202"
       inkscape:connector-curvature="0" />
    <text
       xml:space="preserve"
       style="font-size:15.92506218px;font-style:normal;font-weight:normal;line-height:125%;letter-spacing:0px;word-spacing:0px;fill:#000000;fill-opacity:1;stroke:none;font-family:Sans"
       x="292.13098"
       y="242.951"
       id="text6148"
       sodipodi:linespacing="125%"
       transform="scale(1.1302938,0.88472569)"><tspan
         sodipodi:role="line"
         id="tspan6150"
         x="292.13098"
         y="242.951">1</tspan></text>
    <text
       xml:space="preserve"
       style="font-size:15.92506218px;font-style:normal;font-weight:normal;line-height:125%;letter-spacing:0px;word-spacing:0px;fill:#000000;fill-opacity:1;stroke:none;font-family:Sans"
       x="184.49866"
       y="242.94322"
       id="text6168"
       sodipodi:linespacing="125%"
       transform="scale(1.1302938,0.88472569)"><tspan
         sodipodi:role="line"
         id="tspan6170"
         x="184.49866"
         y="242.94322">6</tspan></text>
    <text
       xml:space="preserve"
       style="font-size:15.92506218px;font-style:normal;font-weight:normal;line-height:125%;letter-spacing:0px;word-spacing:0px;fill:#ffffff;fill-opacity:1;stroke:none;font-family:Sans"
       x="245.59219"
       y="397.62076"
       id="text6180"
       sodipodi:linespacing="125%"
       transform="scale(1.1302938,0.88472569)"><tspan
         sodipodi:role="line"
         id="tspan6182"
         x="245.59219"
         y="397.62076">9</tspan></text>
    <path
       style="fill:#3e76a8;stroke:#53a0ff;stroke-width:4;stroke-linecap:butt;stroke-linejoin:miter;stroke-miterlimit:4;stroke-opacity:1;stroke-dasharray:none;fill-opacity:1"
       d="m 217.34395,125.33827 67.91997,52.37605 -56.85153,136.84719 -67.91998,-52.37604 z"
       id="path6196"
       inkscape:connector-curvature="0" />
    <path
       sodipodi:type="arc"
       style="fill:#b3b3b3;fill-opacity:1;stroke:#999999;stroke-width:3.24281303;stroke-linejoin:round;stroke-miterlimit:4;stroke-opacity:1;stroke-dasharray:none;stroke-dashoffset:10"
       id="path6204-1"
       sodipodi:cx="214.32529"
       sodipodi:cy="237.32237"
       sodipodi:rx="14.087108"
       sodipodi:ry="14.087108"
       d="m 228.41239,237.32237 c 0,7.7801 -6.30701,14.08711 -14.0871,14.08711 -7.7801,0 -14.08711,-6.30701 -14.08711,-14.08711 0,-7.78009 6.30701,-14.08711 14.08711,-14.08711 7.78009,0 14.0871,6.30702 14.0871,14.08711 z"
       transform="matrix(1,0,0,0.78273955,-53.832879,76.42386)" />
    <text
       xml:space="preserve"
       style="font-size:15.92506217999999940px;font-style:normal;font-weight:normal;line-height:125%;letter-spacing:0px;word-spacing:0px;fill:#808080;fill-opacity:1;stroke:none;font-family:Sans"
       x="137.00739"
       y="302.03857"
       id="text6164"
       sodipodi:linespacing="125%"
       transform="scale(1.1302938,0.88472569)"><tspan
         sodipodi:role="line"
         id="tspan6166"
         x="137.00739"
         y="302.03857">5</tspan></text>
    <path
       style="fill:#3e76a8;stroke:#53a0ff;stroke-width:4;stroke-linecap:butt;stroke-linejoin:miter;stroke-miterlimit:4;stroke-opacity:1;stroke-dasharray:none;fill-opacity:1"
       d="m 351.17147,399.03265 0,0 -1.00622,-84.47114 -121.75286,0 1.00623,84.47114 121.75285,0"
       id="path6213"
       inkscape:connector-curvature="0" />
    <path
       transform="matrix(-1,0,0,-0.78273955,443.74391,584.79426)"
       sodipodi:type="arc"
       style="fill:#b3b3b3;fill-opacity:1;stroke:#999999;stroke-width:3.24281303;stroke-linejoin:round;stroke-miterlimit:4;stroke-opacity:1;stroke-dasharray:none;stroke-dashoffset:10"
       id="path6204-7-7"
       sodipodi:cx="214.32529"
       sodipodi:cy="237.32237"
       sodipodi:rx="14.087108"
       sodipodi:ry="14.087108"
       d="m 228.41239,237.32237 c 0,7.7801 -6.30701,14.08711 -14.0871,14.08711 -7.7801,0 -14.08711,-6.30701 -14.08711,-14.08711 0,-7.78009 6.30701,-14.08711 14.08711,-14.08711 7.78009,0 14.0871,6.30702 14.0871,14.08711 z" />
    <text
       xml:space="preserve"
       style="font-size:15.92506217999999940px;font-style:normal;font-weight:normal;line-height:125%;letter-spacing:0px;word-spacing:0px;fill:#808080;fill-opacity:1;stroke:none;font-family:Sans"
       x="197.91043"
       y="456.82108"
       id="text6176"
       sodipodi:linespacing="125%"
       transform="scale(1.1302938,0.88472569)"><tspan
         sodipodi:role="line"
         id="tspan6178"
         x="197.91043"
         y="456.82108">8</tspan></text>
    <path
       sodipodi:type="arc"
       style="fill:#b3b3b3;fill-opacity:1;stroke:#999999;stroke-width:3.24281303;stroke-linejoin:round;stroke-miterlimit:4;stroke-opacity:1;stroke-dasharray:none;stroke-dashoffset:10"
       id="path6204-10"
       sodipodi:cx="214.32529"
       sodipodi:cy="237.32237"
       sodipodi:rx="14.087108"
       sodipodi:ry="14.087108"
       d="m 228.41239,237.32237 c 0,7.7801 -6.30701,14.08711 -14.0871,14.08711 -7.7801,0 -14.08711,-6.30701 -14.08711,-14.08711 0,-7.78009 6.30701,-14.08711 14.08711,-14.08711 7.78009,0 14.0871,6.30702 14.0871,14.08711 z"
       transform="matrix(1,0,0,0.78273955,14.087105,128.7999)" />
    <text
       xml:space="preserve"
       style="font-size:15.92506217999999940px;font-style:normal;font-weight:normal;line-height:125%;letter-spacing:0px;word-spacing:0px;fill:#808080;fill-opacity:1;stroke:none;font-family:Sans"
       x="197.07463"
       y="361.35165"
       id="text6160"
       sodipodi:linespacing="125%"
       transform="scale(1.1302938,0.88472569)"><tspan
         sodipodi:role="line"
         id="tspan6162"
         x="197.07463"
         y="361.35165">4</tspan></text>
    <path
       style="fill:#3e76a8;stroke:#53a0ff;stroke-width:4;stroke-linecap:butt;stroke-linejoin:miter;stroke-miterlimit:4;stroke-opacity:1;stroke-dasharray:none;fill-opacity:1"
       d="m 350.16525,314.56151 53.83288,-52.37604 -52.82666,136.84718 z"
       id="path6215"
       inkscape:connector-curvature="0" />
    <path
       sodipodi:type="arc"
       style="fill:#b3b3b3;fill-opacity:1;stroke:#999999;stroke-width:3.24281303;stroke-linejoin:round;stroke-miterlimit:4;stroke-opacity:1;stroke-dasharray:none;stroke-dashoffset:10"
       id="path6204-5"
       sodipodi:cx="214.32529"
       sodipodi:cy="237.32237"
       sodipodi:rx="14.087108"
       sodipodi:ry="14.087108"
       d="m 228.41239,237.32237 c 0,7.7801 -6.30701,14.08711 -14.0871,14.08711 -7.7801,0 -14.08711,-6.30701 -14.08711,-14.08711 0,-7.78009 6.30701,-14.08711 14.08711,-14.08711 7.78009,0 14.0871,6.30702 14.0871,14.08711 z"
       transform="matrix(-1,0,0,-0.78273955,565.49676,584.79426)" />
    <text
       xml:space="preserve"
       style="font-size:15.92506217999999940px;font-style:normal;font-weight:normal;line-height:125%;letter-spacing:0px;word-spacing:0px;fill:#808080;fill-opacity:1;stroke:none;font-family:Sans"
       x="305.65164"
       y="456.82886"
       id="text6172"
       sodipodi:linespacing="125%"
       transform="scale(1.1302938,0.88472569)"><tspan
         sodipodi:role="line"
         id="tspan6174"
         x="305.65164"
         y="456.82886">7</tspan></text>
    <path
       style="fill:#3e76a8;stroke:#53a0ff;stroke-width:4;stroke-linecap:butt;stroke-linejoin:miter;stroke-miterlimit:4;stroke-opacity:1;stroke-dasharray:none;fill-opacity:1"
       d="m 285.26392,177.71431 53.83288,-52.37604 64.90133,136.8472 -53.83288,52.37603 z"
       id="path6217"
       inkscape:connector-curvature="0" />
    <path
       style="fill:none;stroke:#999999;stroke-width:1;stroke-linecap:butt;stroke-linejoin:miter;stroke-miterlimit:4;stroke-opacity:1;stroke-dasharray:none"
       d="m 339.0968,125.33827 121.75287,0 -53.83288,52.37605 -121.75287,0"
       id="path6130"
       inkscape:connector-curvature="0" />
    <path
       transform="matrix(1,0,0,0.78273955,246.52438,-60.423336)"
       sodipodi:type="arc"
       style="fill:#b3b3b3;fill-opacity:1;stroke:#999999;stroke-width:3.24281303;stroke-linejoin:round;stroke-miterlimit:4;stroke-opacity:1;stroke-dasharray:none;stroke-dashoffset:10"
       id="path6204-0-7"
       sodipodi:cx="214.32529"
       sodipodi:cy="237.32237"
       sodipodi:rx="14.087108"
       sodipodi:ry="14.087108"
       d="m 228.41239,237.32237 c 0,7.7801 -6.30701,14.08711 -14.0871,14.08711 -7.7801,0 -14.08711,-6.30701 -14.08711,-14.08711 0,-7.78009 6.30701,-14.08711 14.08711,-14.08711 7.78009,0 14.0871,6.30702 14.0871,14.08711 z" />
    <path
       transform="matrix(1,0,0,0.78273955,192.6915,-8.0472948)"
       sodipodi:type="arc"
       style="fill:#b3b3b3;fill-opacity:1;stroke:#999999;stroke-width:3.24281303;stroke-linejoin:round;stroke-miterlimit:4;stroke-opacity:1;stroke-dasharray:none;stroke-dashoffset:10"
       id="path6204-0-1-6"
       sodipodi:cx="214.32529"
       sodipodi:cy="237.32237"
       sodipodi:rx="14.087108"
       sodipodi:ry="14.087108"
       d="m 228.41239,237.32237 c 0,7.7801 -6.30701,14.08711 -14.0871,14.08711 -7.7801,0 -14.08711,-6.30701 -14.08711,-14.08711 0,-7.78009 6.30701,-14.08711 14.08711,-14.08711 7.78009,0 14.0871,6.30702 14.0871,14.08711 z" />
    <path
       transform="matrix(1,0,0,0.78273955,135.83996,128.7999)"
       sodipodi:type="arc"
       style="fill:#b3b3b3;fill-opacity:1;stroke:#999999;stroke-width:3.24281303;stroke-linejoin:round;stroke-miterlimit:4;stroke-opacity:1;stroke-dasharray:none;stroke-dashoffset:10"
       id="path6204-7-3"
       sodipodi:cx="214.32529"
       sodipodi:cy="237.32237"
       sodipodi:rx="14.087108"
       sodipodi:ry="14.087108"
       d="m 228.41239,237.32237 c 0,7.7801 -6.30701,14.08711 -14.0871,14.08711 -7.7801,0 -14.08711,-6.30701 -14.08711,-14.08711 0,-7.78009 6.30701,-14.08711 14.08711,-14.08711 7.78009,0 14.0871,6.30702 14.0871,14.08711 z" />
    <text
       xml:space="preserve"
       style="font-size:15.92506217999999940px;font-style:normal;font-weight:normal;line-height:125%;letter-spacing:0px;word-spacing:0px;fill:#808080;fill-opacity:1;stroke:none;font-family:Sans"
       x="304.76529"
       y="361.34387"
       id="text6156"
       sodipodi:linespacing="125%"
       transform="scale(1.1302938,0.88472569)"><tspan
         sodipodi:role="line"
         id="tspan6158"
         x="304.76529"
         y="361.34387">3</tspan></text>
    <path
       transform="matrix(1,0,0,0.78273955,189.67284,76.42386)"
       sodipodi:type="arc"
       style="fill:#b3b3b3;fill-opacity:1;stroke:#999999;stroke-width:3.24281303;stroke-linejoin:round;stroke-miterlimit:4;stroke-opacity:1;stroke-dasharray:none;stroke-dashoffset:10"
       id="path6204-0-1"
       sodipodi:cx="214.32529"
       sodipodi:cy="237.32237"
       sodipodi:rx="14.087108"
       sodipodi:ry="14.087108"
       d="m 228.41239,237.32237 c 0,7.7801 -6.30701,14.08711 -14.0871,14.08711 -7.7801,0 -14.08711,-6.30701 -14.08711,-14.08711 0,-7.78009 6.30701,-14.08711 14.08711,-14.08711 7.78009,0 14.0871,6.30702 14.0871,14.08711 z" />
    <text
       xml:space="preserve"
       style="font-size:15.92506217999999940px;font-style:normal;font-weight:normal;line-height:125%;letter-spacing:0px;word-spacing:0px;fill:#808080;fill-opacity:1;stroke:none;font-family:Sans"
       x="352.57538"
       y="302.25632"
       id="text6152"
       sodipodi:linespacing="125%"
       transform="scale(1.1302938,0.88472569)"><tspan
         sodipodi:role="line"
         id="tspan6154"
         x="352.57538"
         y="302.25632">2</tspan></text>
    <path
       style="fill:#3e76a8;stroke:#53a0ff;stroke-width:4;stroke-linecap:butt;stroke-linejoin:miter;stroke-miterlimit:4;stroke-opacity:1;stroke-dasharray:none;fill-opacity:1"
       d="m 217.34395,125.33827 29.15215,0.0772 92.6007,-0.0772 -53.83288,52.37605 z"
       id="path6219"
       inkscape:connector-curvature="0" />
    <path
       transform="matrix(1,0,0,0.78273955,70.938636,-8.0472948)"
       sodipodi:type="arc"
       style="fill:#b3b3b3;fill-opacity:1;stroke:#999999;stroke-width:3.24281303;stroke-linejoin:round;stroke-miterlimit:4;stroke-opacity:1;stroke-dasharray:none;stroke-dashoffset:10"
       id="path6204-7-6-4"
       sodipodi:cx="214.32529"
       sodipodi:cy="237.32237"
       sodipodi:rx="14.087108"
       sodipodi:ry="14.087108"
       d="m 228.41239,237.32237 c 0,7.7801 -6.30701,14.08711 -14.0871,14.08711 -7.7801,0 -14.08711,-6.30701 -14.08711,-14.08711 0,-7.78009 6.30701,-14.08711 14.08711,-14.08711 7.78009,0 14.0871,6.30702 14.0871,14.08711 z" />
    <text
       xml:space="preserve"
       style="font-size:15.92506217999999940px;font-style:normal;font-weight:normal;line-height:125%;letter-spacing:0px;word-spacing:0px;fill:#808080;fill-opacity:1;stroke:none;font-family:Sans"
       x="242.16666"
       y="206.77908"
       id="text6192"
       sodipodi:linespacing="125%"
       transform="scale(1.1302938,0.88472569)"><tspan
         sodipodi:role="line"
         id="tspan6194"
         x="242.16666"
         y="206.77908">12</tspan></text>
    <path
       transform="matrix(1,0,0,0.78273955,124.77151,-60.423336)"
       sodipodi:type="arc"
       style="fill:#b3b3b3;fill-opacity:1;stroke:#999999;stroke-width:3.24281303;stroke-linejoin:round;stroke-miterlimit:4;stroke-opacity:1;stroke-dasharray:none;stroke-dashoffset:10"
       id="path6204-7-5"
       sodipodi:cx="214.32529"
       sodipodi:cy="237.32237"
       sodipodi:rx="14.087108"
       sodipodi:ry="14.087108"
       d="m 228.41239,237.32237 c 0,7.7801 -6.30701,14.08711 -14.0871,14.08711 -7.7801,0 -14.08711,-6.30701 -14.08711,-14.08711 0,-7.78009 6.30701,-14.08711 14.08711,-14.08711 7.78009,0 14.0871,6.30702 14.0871,14.08711 z" />
    <text
       xml:space="preserve"
       style="font-size:15.92506217999999940px;font-style:normal;font-weight:normal;line-height:125%;letter-spacing:0px;word-spacing:0px;fill:#808080;fill-opacity:1;stroke:none;font-family:Sans"
       x="289.73178"
       y="147.4738"
       id="text6188"
       sodipodi:linespacing="125%"
       transform="scale(1.1302938,0.88472569)"><tspan
         sodipodi:role="line"
         id="tspan6190"
         x="289.73178"
         y="147.4738">11</tspan></text>
    <path
       sodipodi:type="arc"
       style="fill:#b3b3b3;fill-opacity:1;stroke:#999999;stroke-width:3.24281303;stroke-linejoin:round;stroke-miterlimit:4;stroke-opacity:1;stroke-dasharray:none;stroke-dashoffset:10"
       id="path6204-00"
       sodipodi:cx="214.32529"
       sodipodi:cy="237.32237"
       sodipodi:rx="14.087108"
       sodipodi:ry="14.087108"
       d="m 228.41239,237.32237 c 0,7.7801 -6.30701,14.08711 -14.0871,14.08711 -7.7801,0 -14.08711,-6.30701 -14.08711,-14.08711 0,-7.78009 6.30701,-14.08711 14.08711,-14.08711 7.78009,0 14.0871,6.30702 14.0871,14.08711 z"
       transform="matrix(1,0,0,0.78273955,3.0186656,-60.423336)" />
    <text
       xml:space="preserve"
       style="font-size:15.92506217999999940px;font-style:normal;font-weight:normal;line-height:125%;letter-spacing:0px;word-spacing:0px;fill:#808080;fill-opacity:1;stroke:none;font-family:Sans"
       x="181.80785"
       y="147.46602"
       id="text6184"
       sodipodi:linespacing="125%"
       transform="scale(1.1302938,0.88472569)"><tspan
         sodipodi:role="line"
         id="tspan6186"
         x="181.80785"
         y="147.46602">10</tspan></text>
  </g>
</svg>
