<?xml version="1.0" encoding="UTF-8" standalone="no"?>
<!-- Created with Inkscape (http://www.inkscape.org/) -->

<svg
   xmlns:dc="http://purl.org/dc/elements/1.1/"
   xmlns:cc="http://creativecommons.org/ns#"
   xmlns:rdf="http://www.w3.org/1999/02/22-rdf-syntax-ns#"
   xmlns:svg="http://www.w3.org/2000/svg"
   xmlns="http://www.w3.org/2000/svg"
   xmlns:sodipodi="http://sodipodi.sourceforge.net/DTD/sodipodi-0.dtd"
   xmlns:inkscape="http://www.inkscape.org/namespaces/inkscape"
   width="869.02167"
   height="506.05289"
   id="svg5385"
   version="1.1"
   inkscape:version="0.48.5 r"
   sodipodi:docname="dessin3.svg">
  <defs
     id="defs5387" />
  <sodipodi:namedview
     inkscape:document-units="mm"
     pagecolor="#ffffff"
     bordercolor="#666666"
     borderopacity="1.0"
     inkscape:pageopacity="0.0"
     inkscape:pageshadow="2"
     inkscape:zoom="0.87170858"
     inkscape:cx="426.27635"
     inkscape:cy="263.54544"
     inkscape:current-layer="layer1"
     id="namedview5389"
     showgrid="true"
     inkscape:window-width="1360"
     inkscape:window-height="706"
     inkscape:window-x="-8"
     inkscape:window-y="-8"
     inkscape:window-maximized="1"
     units="mm"
     fit-margin-top="0"
     fit-margin-left="0"
     fit-margin-right="0"
     fit-margin-bottom="0">
    <inkscape:grid
       type="xygrid"
       id="grid5394"
       empspacing="5"
       visible="true"
       enabled="true"
       snapvisiblegridlinesonly="true"
       originx="-32.75px"
       originy="-208.22835px" />
  </sodipodi:namedview>
  <metadata
     id="metadata5391">
    <rdf:RDF>
      <cc:Work
         rdf:about="">
        <dc:format>image/svg+xml</dc:format>
        <dc:type
           rdf:resource="http://purl.org/dc/dcmitype/StillImage" />
        <dc:title></dc:title>
      </cc:Work>
    </rdf:RDF>
  </metadata>
  <g
     inkscape:label="Layer 1"
     inkscape:groupmode="layer"
     id="layer1"
     transform="translate(-32.75,-29.813232)">
    <path
       sodipodi:type="arc"
       style="fill:#000000;fill-opacity:1;stroke:#000000;stroke-width:1.79999995;stroke-linejoin:round;stroke-miterlimit:4;stroke-opacity:1;stroke-dasharray:none;stroke-dashoffset:0"
       id="path5500"
       sodipodi:cx="60"
       sodipodi:cy="412.36218"
       sodipodi:rx="10"
       sodipodi:ry="10"
       d="m 70,412.36218 c 0,5.52285 -4.477153,10 -10,10 -5.522847,0 -10,-4.47715 -10,-10 0,-5.52284 4.477153,-10 10,-10 5.522847,0 10,4.47716 10,10 z"
       transform="translate(70,-368.2677)" />
    <path
       sodipodi:type="arc"
       style="fill:#000000;fill-opacity:1;stroke:#000000;stroke-width:1.79999995;stroke-linejoin:round;stroke-miterlimit:4;stroke-opacity:1;stroke-dasharray:none;stroke-dashoffset:0"
       id="path5500-7"
       sodipodi:cx="60"
       sodipodi:cy="412.36218"
       sodipodi:rx="10"
       sodipodi:ry="10"
       d="m 70,412.36218 c 0,5.52285 -4.477153,10 -10,10 -5.522847,0 -10,-4.47715 -10,-10 0,-5.52284 4.477153,-10 10,-10 5.522847,0 10,4.47716 10,10 z"
       transform="translate(230,-368.2677)" />
    <path
       sodipodi:type="arc"
       style="fill:#000000;fill-opacity:1;stroke:#000000;stroke-width:1.79999995;stroke-linejoin:round;stroke-miterlimit:4;stroke-opacity:1;stroke-dasharray:none;stroke-dashoffset:0"
       id="path5500-1"
       sodipodi:cx="60"
       sodipodi:cy="412.36218"
       sodipodi:rx="10"
       sodipodi:ry="10"
       d="m 70,412.36218 c 0,5.52285 -4.477153,10 -10,10 -5.522847,0 -10,-4.47715 -10,-10 0,-5.52284 4.477153,-10 10,-10 5.522847,0 10,4.47716 10,10 z"
       transform="translate(150,-228.2677)" />
    <path
       sodipodi:type="arc"
       style="fill:#000000;fill-opacity:1;stroke:#000000;stroke-width:1.79999995;stroke-linejoin:round;stroke-miterlimit:4;stroke-opacity:1;stroke-dasharray:none;stroke-dashoffset:0"
       id="path5500-7-6"
       sodipodi:cx="60"
       sodipodi:cy="412.36218"
       sodipodi:rx="10"
       sodipodi:ry="10"
       d="m 70,412.36218 c 0,5.52285 -4.477153,10 -10,10 -5.522847,0 -10,-4.47715 -10,-10 0,-5.52284 4.477153,-10 10,-10 5.522847,0 10,4.47716 10,10 z"
       transform="translate(390,-368.2677)" />
    <path
       sodipodi:type="arc"
       style="fill:#000000;fill-opacity:1;stroke:#000000;stroke-width:1.79999995;stroke-linejoin:round;stroke-miterlimit:4;stroke-opacity:1;stroke-dasharray:none;stroke-dashoffset:0"
       id="path5500-9"
       sodipodi:cx="60"
       sodipodi:cy="412.36218"
       sodipodi:rx="10"
       sodipodi:ry="10"
       d="m 70,412.36218 c 0,5.52285 -4.477153,10 -10,10 -5.522847,0 -10,-4.47715 -10,-10 0,-5.52284 4.477153,-10 10,-10 5.522847,0 10,4.47716 10,10 z"
       transform="translate(390,-368.2677)" />
    <path
       sodipodi:type="arc"
       style="fill:#000000;fill-opacity:1;stroke:#000000;stroke-width:1.79999995;stroke-linejoin:round;stroke-miterlimit:4;stroke-opacity:1;stroke-dasharray:none;stroke-dashoffset:0"
       id="path5500-7-2"
       sodipodi:cx="60"
       sodipodi:cy="412.36218"
       sodipodi:rx="10"
       sodipodi:ry="10"
       d="m 70,412.36218 c 0,5.52285 -4.477153,10 -10,10 -5.522847,0 -10,-4.47715 -10,-10 0,-5.52284 4.477153,-10 10,-10 5.522847,0 10,4.47716 10,10 z"
       transform="translate(550,-368.2677)" />
    <path
       sodipodi:type="arc"
       style="fill:#000000;fill-opacity:1;stroke:#000000;stroke-width:1.79999995;stroke-linejoin:round;stroke-miterlimit:4;stroke-opacity:1;stroke-dasharray:none;stroke-dashoffset:0"
       id="path5500-7-6-2"
       sodipodi:cx="60"
       sodipodi:cy="412.36218"
       sodipodi:rx="10"
       sodipodi:ry="10"
       d="m 70,412.36218 c 0,5.52285 -4.477153,10 -10,10 -5.522847,0 -10,-4.47715 -10,-10 0,-5.52284 4.477153,-10 10,-10 5.522847,0 10,4.47716 10,10 z"
       transform="translate(710,-368.2677)" />
    <path
       sodipodi:type="arc"
       style="fill:#000000;fill-opacity:1;stroke:#000000;stroke-width:1.79999995;stroke-linejoin:round;stroke-miterlimit:4;stroke-opacity:1;stroke-dasharray:none;stroke-dashoffset:0"
       id="path5500-76"
       sodipodi:cx="60"
       sodipodi:cy="412.36218"
       sodipodi:rx="10"
       sodipodi:ry="10"
       d="m 70,412.36218 c 0,5.52285 -4.477153,10 -10,10 -5.522847,0 -10,-4.47715 -10,-10 0,-5.52284 4.477153,-10 10,-10 5.522847,0 10,4.47716 10,10 z"
       transform="translate(150,-228.2677)" />
    <path
       sodipodi:type="arc"
       style="fill:#000000;fill-opacity:1;stroke:#000000;stroke-width:1.79999995;stroke-linejoin:round;stroke-miterlimit:4;stroke-opacity:1;stroke-dasharray:none;stroke-dashoffset:0"
       id="path5500-7-65"
       sodipodi:cx="60"
       sodipodi:cy="412.36218"
       sodipodi:rx="10"
       sodipodi:ry="10"
       d="m 70,412.36218 c 0,5.52285 -4.477153,10 -10,10 -5.522847,0 -10,-4.47715 -10,-10 0,-5.52284 4.477153,-10 10,-10 5.522847,0 10,4.47716 10,10 z"
       transform="translate(310,-228.2677)" />
    <path
       sodipodi:type="arc"
       style="fill:#000000;fill-opacity:1;stroke:#000000;stroke-width:1.79999995;stroke-linejoin:round;stroke-miterlimit:4;stroke-opacity:1;stroke-dasharray:none;stroke-dashoffset:0"
       id="path5500-9-7"
       sodipodi:cx="60"
       sodipodi:cy="412.36218"
       sodipodi:rx="10"
       sodipodi:ry="10"
       d="m 70,412.36218 c 0,5.52285 -4.477153,10 -10,10 -5.522847,0 -10,-4.47715 -10,-10 0,-5.52284 4.477153,-10 10,-10 5.522847,0 10,4.47716 10,10 z"
       transform="translate(470,-228.2677)" />
    <path
       sodipodi:type="arc"
       style="fill:#000000;fill-opacity:1;stroke:#000000;stroke-width:1.79999995;stroke-linejoin:round;stroke-miterlimit:4;stroke-opacity:1;stroke-dasharray:none;stroke-dashoffset:0"
       id="path5500-7-2-6"
       sodipodi:cx="60"
       sodipodi:cy="412.36218"
       sodipodi:rx="10"
       sodipodi:ry="10"
       d="m 70,412.36218 c 0,5.52285 -4.477153,10 -10,10 -5.522847,0 -10,-4.47715 -10,-10 0,-5.52284 4.477153,-10 10,-10 5.522847,0 10,4.47716 10,10 z"
       transform="translate(630,-228.2677)" />
    <path
       sodipodi:type="arc"
       style="fill:#000000;fill-opacity:1;stroke:#000000;stroke-width:1.79999995;stroke-linejoin:round;stroke-miterlimit:4;stroke-opacity:1;stroke-dasharray:none;stroke-dashoffset:0"
       id="path5500-7-6-2-1"
       sodipodi:cx="60"
       sodipodi:cy="412.36218"
       sodipodi:rx="10"
       sodipodi:ry="10"
       d="m 70,412.36218 c 0,5.52285 -4.477153,10 -10,10 -5.522847,0 -10,-4.47715 -10,-10 0,-5.52284 4.477153,-10 10,-10 5.522847,0 10,4.47716 10,10 z"
       transform="translate(790,-228.2677)" />
    <path
       sodipodi:type="arc"
       style="fill:#000000;fill-opacity:1;stroke:#000000;stroke-width:1.79999995;stroke-linejoin:round;stroke-miterlimit:4;stroke-opacity:1;stroke-dasharray:none;stroke-dashoffset:0"
       id="path5500-14"
       sodipodi:cx="60"
       sodipodi:cy="412.36218"
       sodipodi:rx="10"
       sodipodi:ry="10"
       d="m 70,412.36218 c 0,5.52285 -4.477153,10 -10,10 -5.522847,0 -10,-4.47715 -10,-10 0,-5.52284 4.477153,-10 10,-10 5.522847,0 10,4.47716 10,10 z"
       transform="translate(70,-88.2677)" />
    <path
       sodipodi:type="arc"
       style="fill:#000000;fill-opacity:1;stroke:#000000;stroke-width:1.79999995;stroke-linejoin:round;stroke-miterlimit:4;stroke-opacity:1;stroke-dasharray:none;stroke-dashoffset:0"
       id="path5500-7-0"
       sodipodi:cx="60"
       sodipodi:cy="412.36218"
       sodipodi:rx="10"
       sodipodi:ry="10"
       d="m 70,412.36218 c 0,5.52285 -4.477153,10 -10,10 -5.522847,0 -10,-4.47715 -10,-10 0,-5.52284 4.477153,-10 10,-10 5.522847,0 10,4.47716 10,10 z"
       transform="translate(230,-88.2677)" />
    <path
       sodipodi:type="arc"
       style="fill:#000000;fill-opacity:1;stroke:#000000;stroke-width:1.79999995;stroke-linejoin:round;stroke-miterlimit:4;stroke-opacity:1;stroke-dasharray:none;stroke-dashoffset:0"
       id="path5500-9-78"
       sodipodi:cx="60"
       sodipodi:cy="412.36218"
       sodipodi:rx="10"
       sodipodi:ry="10"
       d="m 70,412.36218 c 0,5.52285 -4.477153,10 -10,10 -5.522847,0 -10,-4.47715 -10,-10 0,-5.52284 4.477153,-10 10,-10 5.522847,0 10,4.47716 10,10 z"
       transform="translate(390,-88.2677)" />
    <path
       sodipodi:type="arc"
       style="fill:#000000;fill-opacity:1;stroke:#000000;stroke-width:1.79999995;stroke-linejoin:round;stroke-miterlimit:4;stroke-opacity:1;stroke-dasharray:none;stroke-dashoffset:0"
       id="path5500-7-2-1"
       sodipodi:cx="60"
       sodipodi:cy="412.36218"
       sodipodi:rx="10"
       sodipodi:ry="10"
       d="m 70,412.36218 c 0,5.52285 -4.477153,10 -10,10 -5.522847,0 -10,-4.47715 -10,-10 0,-5.52284 4.477153,-10 10,-10 5.522847,0 10,4.47716 10,10 z"
       transform="translate(550,-88.2677)" />
    <path
       sodipodi:type="arc"
       style="fill:#000000;fill-opacity:1;stroke:#000000;stroke-width:1.79999995;stroke-linejoin:round;stroke-miterlimit:4;stroke-opacity:1;stroke-dasharray:none;stroke-dashoffset:0"
       id="path5500-7-6-2-4"
       sodipodi:cx="60"
       sodipodi:cy="412.36218"
       sodipodi:rx="10"
       sodipodi:ry="10"
       d="m 70,412.36218 c 0,5.52285 -4.477153,10 -10,10 -5.522847,0 -10,-4.47715 -10,-10 0,-5.52284 4.477153,-10 10,-10 5.522847,0 10,4.47716 10,10 z"
       transform="translate(710,-88.2677)" />
    <path
       sodipodi:type="arc"
       style="fill:#000000;fill-opacity:1;stroke:#000000;stroke-width:1.79999995;stroke-linejoin:round;stroke-miterlimit:4;stroke-opacity:1;stroke-dasharray:none;stroke-dashoffset:0"
       id="path5500-2"
       sodipodi:cx="60"
       sodipodi:cy="412.36218"
       sodipodi:rx="10"
       sodipodi:ry="10"
       d="m 70,412.36218 c 0,5.52285 -4.477153,10 -10,10 -5.522847,0 -10,-4.47715 -10,-10 0,-5.52284 4.477153,-10 10,-10 5.522847,0 10,4.47716 10,10 z"
       transform="translate(150,51.732297)" />
    <path
       sodipodi:type="arc"
       style="fill:#000000;fill-opacity:1;stroke:#000000;stroke-width:1.79999995;stroke-linejoin:round;stroke-miterlimit:4;stroke-opacity:1;stroke-dasharray:none;stroke-dashoffset:0"
       id="path5500-7-61"
       sodipodi:cx="60"
       sodipodi:cy="412.36218"
       sodipodi:rx="10"
       sodipodi:ry="10"
       d="m 70,412.36218 c 0,5.52285 -4.477153,10 -10,10 -5.522847,0 -10,-4.47715 -10,-10 0,-5.52284 4.477153,-10 10,-10 5.522847,0 10,4.47716 10,10 z"
       transform="translate(310,51.732297)" />
    <path
       sodipodi:type="arc"
       style="fill:#000000;fill-opacity:1;stroke:#000000;stroke-width:1.79999995;stroke-linejoin:round;stroke-miterlimit:4;stroke-opacity:1;stroke-dasharray:none;stroke-dashoffset:0"
       id="path5500-9-2"
       sodipodi:cx="60"
       sodipodi:cy="412.36218"
       sodipodi:rx="10"
       sodipodi:ry="10"
       d="m 70,412.36218 c 0,5.52285 -4.477153,10 -10,10 -5.522847,0 -10,-4.47715 -10,-10 0,-5.52284 4.477153,-10 10,-10 5.522847,0 10,4.47716 10,10 z"
       transform="translate(470,51.732297)" />
    <path
       sodipodi:type="arc"
       style="fill:#000000;fill-opacity:1;stroke:#000000;stroke-width:1.79999995;stroke-linejoin:round;stroke-miterlimit:4;stroke-opacity:1;stroke-dasharray:none;stroke-dashoffset:0"
       id="path5500-7-2-64"
       sodipodi:cx="60"
       sodipodi:cy="412.36218"
       sodipodi:rx="10"
       sodipodi:ry="10"
       d="m 70,412.36218 c 0,5.52285 -4.477153,10 -10,10 -5.522847,0 -10,-4.47715 -10,-10 0,-5.52284 4.477153,-10 10,-10 5.522847,0 10,4.47716 10,10 z"
       transform="translate(630,51.732297)" />
    <path
       sodipodi:type="arc"
       style="fill:#000000;fill-opacity:1;stroke:#000000;stroke-width:1.79999995;stroke-linejoin:round;stroke-miterlimit:4;stroke-opacity:1;stroke-dasharray:none;stroke-dashoffset:0"
       id="path5500-7-6-2-8"
       sodipodi:cx="60"
       sodipodi:cy="412.36218"
       sodipodi:rx="10"
       sodipodi:ry="10"
       d="m 70,412.36218 c 0,5.52285 -4.477153,10 -10,10 -5.522847,0 -10,-4.47715 -10,-10 0,-5.52284 4.477153,-10 10,-10 5.522847,0 10,4.47716 10,10 z"
       transform="translate(790,51.732297)" />
    <path
       style="fill:none;stroke:#000000;stroke-width:3.54330707;stroke-linecap:butt;stroke-linejoin:miter;stroke-miterlimit:4;stroke-opacity:1;stroke-dasharray:none"
       d="m 130,44.094482 700,0"
       id="path5445"
       inkscape:connector-curvature="0" />
    <path
       style="fill:none;stroke:#000000;stroke-width:3.54330707;stroke-linecap:butt;stroke-linejoin:miter;stroke-miterlimit:4;stroke-opacity:1;stroke-dasharray:none"
       d="m 210,184.09448 690,0"
       id="path6215"
       inkscape:connector-curvature="0" />
    <path
       style="fill:none;stroke:#000000;stroke-width:3.54330707;stroke-linecap:butt;stroke-linejoin:miter;stroke-miterlimit:4;stroke-opacity:1;stroke-dasharray:none"
       d="m 130,324.09448 700,0"
       id="path6217"
       inkscape:connector-curvature="0" />
    <path
       style="fill:none;stroke:#000000;stroke-width:3.54330707;stroke-linecap:butt;stroke-linejoin:miter;stroke-miterlimit:4;stroke-opacity:1;stroke-dasharray:none"
       d="m 210,464.09448 690,0"
       id="path6219"
       inkscape:connector-curvature="0" />
    <path
       style="fill:none;stroke:#000000;stroke-width:3.54330707;stroke-linecap:butt;stroke-linejoin:miter;stroke-miterlimit:4;stroke-opacity:1;stroke-dasharray:none"
       d="M 130,44.094482 410,534.09448"
       id="path6221"
       inkscape:connector-curvature="0" />
    <path
       style="fill:none;stroke:#000000;stroke-width:3.54330707;stroke-linecap:butt;stroke-linejoin:miter;stroke-miterlimit:4;stroke-opacity:1;stroke-dasharray:none"
       d="M 290,44.094482 570,534.09448"
       id="path6223"
       inkscape:connector-curvature="0" />
    <path
       style="fill:none;stroke:#000000;stroke-width:3.54330707;stroke-linecap:butt;stroke-linejoin:miter;stroke-miterlimit:4;stroke-opacity:1;stroke-dasharray:none"
       d="M 450,44.094482 730,534.09448"
       id="path6225"
       inkscape:connector-curvature="0" />
    <path
       style="fill:none;stroke:#000000;stroke-width:3.54330707;stroke-linecap:butt;stroke-linejoin:miter;stroke-miterlimit:4;stroke-opacity:1;stroke-dasharray:none"
       d="M 610,44.094482 890,534.09448"
       id="path6227"
       inkscape:connector-curvature="0" />
    <path
       style="fill:none;stroke:#000000;stroke-width:3.54330707;stroke-linecap:butt;stroke-linejoin:miter;stroke-miterlimit:4;stroke-opacity:1;stroke-dasharray:none"
       d="M 290,44.094482 130,324.09448"
       id="path6229"
       inkscape:connector-curvature="0" />
    <path
       style="fill:none;stroke:#000000;stroke-width:3.54330707;stroke-linecap:butt;stroke-linejoin:miter;stroke-miterlimit:4;stroke-opacity:1;stroke-dasharray:none"
       d="M 450,44.094482 180,514.09448"
       id="path6231"
       inkscape:connector-curvature="0" />
    <path
       style="fill:none;stroke:#000000;stroke-width:3.54330707;stroke-linecap:butt;stroke-linejoin:miter;stroke-miterlimit:4;stroke-opacity:1;stroke-dasharray:none"
       d="m 130,324.09448 110,190"
       id="path6233"
       inkscape:connector-curvature="0" />
    <path
       style="fill:none;stroke:#000000;stroke-width:3.54330707;stroke-linecap:butt;stroke-linejoin:miter;stroke-miterlimit:4;stroke-opacity:1;stroke-dasharray:none"
       d="M 610,44.094482 330,534.09448"
       id="path6235"
       inkscape:connector-curvature="0" />
    <path
       style="fill:none;stroke:#000000;stroke-width:3.54330707;stroke-linecap:butt;stroke-linejoin:miter;stroke-miterlimit:4;stroke-opacity:1;stroke-dasharray:none"
       d="M 770,44.094482 490,534.09448"
       id="path6243"
       inkscape:connector-curvature="0" />
    <path
       style="fill:none;stroke:#000000;stroke-width:3.54330707;stroke-linecap:butt;stroke-linejoin:miter;stroke-miterlimit:4;stroke-opacity:1;stroke-dasharray:none"
       d="M 770,44.094482 880,234.09448"
       id="path6245"
       inkscape:connector-curvature="0" />
    <path
       style="fill:none;stroke:#000000;stroke-width:3.54330707;stroke-linecap:butt;stroke-linejoin:miter;stroke-miterlimit:4;stroke-opacity:1;stroke-dasharray:none"
       d="m 870,154.09448 -220,370"
       id="path6247"
       inkscape:connector-curvature="0" />
    <path
       style="fill:none;stroke:#000000;stroke-width:3.54330707;stroke-linecap:butt;stroke-linejoin:miter;stroke-miterlimit:4;stroke-opacity:1;stroke-dasharray:none"
       d="m 870,424.09448 -50,100"
       id="path6249"
       inkscape:connector-curvature="0" />
    <text
       xml:space="preserve"
       style="font-size:32px;font-style:normal;font-variant:normal;font-weight:normal;font-stretch:normal;text-align:start;line-height:125%;letter-spacing:0px;word-spacing:0px;writing-mode:lr-tb;text-anchor:start;fill:#000000;fill-opacity:1;stroke:none;font-family:Sans;-inkscape-font-specification:Sans"
       x="30"
       y="54.094482"
       id="text6251"
       sodipodi:linespacing="125%"><tspan
         sodipodi:role="line"
         id="tspan6253"
         x="30"
         y="54.094482">(0,0)</tspan></text>
    <flowRoot
       xml:space="preserve"
       id="flowRoot6255"
       style="font-size:18px;font-style:normal;font-weight:normal;line-height:125%;letter-spacing:0px;word-spacing:0px;fill:#000000;fill-opacity:1;stroke:none;font-family:Sans"><flowRegion
         id="flowRegion6257"><rect
           id="rect6259"
           width="5.7358618"
           height="27.532137"
           x="37.856689"
           y="92.50058" /></flowRegion><flowPara
         id="flowPara6261"></flowPara></flowRoot>    <text
       xml:space="preserve"
       style="font-size:32px;font-style:normal;font-variant:normal;font-weight:normal;font-stretch:normal;text-align:start;line-height:125%;letter-spacing:0px;word-spacing:0px;writing-mode:lr-tb;text-anchor:start;fill:#000000;fill-opacity:1;stroke:none;font-family:Sans;-inkscape-font-specification:Sans"
       x="100"
       y="194.09448"
       id="text6263"
       sodipodi:linespacing="125%"><tspan
         sodipodi:role="line"
         id="tspan6265"
         x="100"
         y="194.09448">(0,1)</tspan></text>
    <text
       xml:space="preserve"
       style="font-size:32px;font-style:normal;font-variant:normal;font-weight:normal;font-stretch:normal;text-align:start;line-height:125%;letter-spacing:0px;word-spacing:0px;writing-mode:lr-tb;text-anchor:start;fill:#000000;fill-opacity:1;stroke:none;font-family:Sans;-inkscape-font-specification:Sans"
       x="30"
       y="334.09448"
       id="text6267"
       sodipodi:linespacing="125%"><tspan
         sodipodi:role="line"
         id="tspan6269"
         x="30"
         y="334.09448">(0,2)</tspan></text>
  </g>
</svg>
