<?xml version="1.0" encoding="UTF-8" standalone="no"?>
<!-- Created with Inkscape (http://www.inkscape.org/) -->

<svg
   xmlns:dc="http://purl.org/dc/elements/1.1/"
   xmlns:cc="http://creativecommons.org/ns#"
   xmlns:rdf="http://www.w3.org/1999/02/22-rdf-syntax-ns#"
   xmlns:svg="http://www.w3.org/2000/svg"
   xmlns="http://www.w3.org/2000/svg"
   xmlns:sodipodi="http://sodipodi.sourceforge.net/DTD/sodipodi-0.dtd"
   xmlns:inkscape="http://www.inkscape.org/namespaces/inkscape"
   width="997.92688"
   height="610.91339"
   id="svg5385"
   version="1.1"
   inkscape:version="0.48.5 r"
   sodipodi:docname="FFC1.svg">
  <defs
     id="defs5387" />
  <sodipodi:namedview
     inkscape:document-units="mm"
     pagecolor="#ffffff"
     bordercolor="#666666"
     borderopacity="1.0"
     inkscape:pageopacity="0.0"
     inkscape:pageshadow="2"
     inkscape:zoom="0.61879883"
     inkscape:cx="679.07835"
     inkscape:cy="262.74762"
     inkscape:current-layer="layer1"
     id="namedview5389"
     showgrid="true"
     inkscape:window-width="1360"
     inkscape:window-height="706"
     inkscape:window-x="-8"
     inkscape:window-y="-8"
     inkscape:window-maximized="1"
     units="mm"
     fit-margin-top="0"
     fit-margin-left="0"
     fit-margin-right="0"
     fit-margin-bottom="0">
    <inkscape:grid
       type="xygrid"
       id="grid5394"
       empspacing="5"
       visible="true"
       enabled="true"
       snapvisiblegridlinesonly="true"
       originx="17.40625px"
       originy="-116.90262px" />
  </sodipodi:namedview>
  <metadata
     id="metadata5391">
    <rdf:RDF>
      <cc:Work
         rdf:about="">
        <dc:format>image/svg+xml</dc:format>
        <dc:type
           rdf:resource="http://purl.org/dc/dcmitype/StillImage" />
        <dc:title></dc:title>
      </cc:Work>
    </rdf:RDF>
  </metadata>
  <g
     inkscape:label="Layer 1"
     inkscape:groupmode="layer"
     id="layer1"
     transform="translate(17.40625,-16.27847)">
    <path
       sodipodi:type="arc"
       style="fill:#000000;fill-opacity:1;stroke:#000000;stroke-width:1.79999995;stroke-linejoin:round;stroke-miterlimit:4;stroke-opacity:1;stroke-dasharray:none;stroke-dashoffset:0"
       id="path5500"
       sodipodi:cx="60"
       sodipodi:cy="412.36218"
       sodipodi:rx="10"
       sodipodi:ry="10"
       d="m 70,412.36218 c 0,5.52285 -4.477153,10 -10,10 -5.522847,0 -10,-4.47715 -10,-10 0,-5.52284 4.477153,-10 10,-10 5.522847,0 10,4.47716 10,10 z"
       transform="translate(70,-368.2677)" />
    <path
       sodipodi:type="arc"
       style="fill:#000000;fill-opacity:1;stroke:#000000;stroke-width:1.79999995;stroke-linejoin:round;stroke-miterlimit:4;stroke-opacity:1;stroke-dasharray:none;stroke-dashoffset:0"
       id="path5500-7"
       sodipodi:cx="60"
       sodipodi:cy="412.36218"
       sodipodi:rx="10"
       sodipodi:ry="10"
       d="m 70,412.36218 c 0,5.52285 -4.477153,10 -10,10 -5.522847,0 -10,-4.47715 -10,-10 0,-5.52284 4.477153,-10 10,-10 5.522847,0 10,4.47716 10,10 z"
       transform="translate(230,-368.2677)" />
    <path
       sodipodi:type="arc"
       style="fill:#000000;fill-opacity:1;stroke:#000000;stroke-width:1.79999995;stroke-linejoin:round;stroke-miterlimit:4;stroke-opacity:1;stroke-dasharray:none;stroke-dashoffset:0"
       id="path5500-1"
       sodipodi:cx="60"
       sodipodi:cy="412.36218"
       sodipodi:rx="10"
       sodipodi:ry="10"
       d="m 70,412.36218 c 0,5.52285 -4.477153,10 -10,10 -5.522847,0 -10,-4.47715 -10,-10 0,-5.52284 4.477153,-10 10,-10 5.522847,0 10,4.47716 10,10 z"
       transform="translate(150,-228.2677)" />
    <path
       sodipodi:type="arc"
       style="fill:#000000;fill-opacity:1;stroke:#000000;stroke-width:1.79999995;stroke-linejoin:round;stroke-miterlimit:4;stroke-opacity:1;stroke-dasharray:none;stroke-dashoffset:0"
       id="path5500-7-6"
       sodipodi:cx="60"
       sodipodi:cy="412.36218"
       sodipodi:rx="10"
       sodipodi:ry="10"
       d="m 70,412.36218 c 0,5.52285 -4.477153,10 -10,10 -5.522847,0 -10,-4.47715 -10,-10 0,-5.52284 4.477153,-10 10,-10 5.522847,0 10,4.47716 10,10 z"
       transform="translate(390,-368.2677)" />
    <path
       sodipodi:type="arc"
       style="fill:#000000;fill-opacity:1;stroke:#000000;stroke-width:1.79999995;stroke-linejoin:round;stroke-miterlimit:4;stroke-opacity:1;stroke-dasharray:none;stroke-dashoffset:0"
       id="path5500-9"
       sodipodi:cx="60"
       sodipodi:cy="412.36218"
       sodipodi:rx="10"
       sodipodi:ry="10"
       d="m 70,412.36218 c 0,5.52285 -4.477153,10 -10,10 -5.522847,0 -10,-4.47715 -10,-10 0,-5.52284 4.477153,-10 10,-10 5.522847,0 10,4.47716 10,10 z"
       transform="translate(390,-368.2677)" />
    <path
       sodipodi:type="arc"
       style="fill:#000000;fill-opacity:1;stroke:#000000;stroke-width:1.79999995;stroke-linejoin:round;stroke-miterlimit:4;stroke-opacity:1;stroke-dasharray:none;stroke-dashoffset:0"
       id="path5500-7-2"
       sodipodi:cx="60"
       sodipodi:cy="412.36218"
       sodipodi:rx="10"
       sodipodi:ry="10"
       d="m 70,412.36218 c 0,5.52285 -4.477153,10 -10,10 -5.522847,0 -10,-4.47715 -10,-10 0,-5.52284 4.477153,-10 10,-10 5.522847,0 10,4.47716 10,10 z"
       transform="translate(550,-368.2677)" />
    <path
       sodipodi:type="arc"
       style="fill:#000000;fill-opacity:1;stroke:#000000;stroke-width:1.79999995;stroke-linejoin:round;stroke-miterlimit:4;stroke-opacity:1;stroke-dasharray:none;stroke-dashoffset:0"
       id="path5500-7-6-2"
       sodipodi:cx="60"
       sodipodi:cy="412.36218"
       sodipodi:rx="10"
       sodipodi:ry="10"
       d="m 70,412.36218 c 0,5.52285 -4.477153,10 -10,10 -5.522847,0 -10,-4.47715 -10,-10 0,-5.52284 4.477153,-10 10,-10 5.522847,0 10,4.47716 10,10 z"
       transform="translate(710,-368.2677)" />
    <path
       sodipodi:type="arc"
       style="fill:#000000;fill-opacity:1;stroke:#000000;stroke-width:1.79999995;stroke-linejoin:round;stroke-miterlimit:4;stroke-opacity:1;stroke-dasharray:none;stroke-dashoffset:0"
       id="path5500-76"
       sodipodi:cx="60"
       sodipodi:cy="412.36218"
       sodipodi:rx="10"
       sodipodi:ry="10"
       d="m 70,412.36218 c 0,5.52285 -4.477153,10 -10,10 -5.522847,0 -10,-4.47715 -10,-10 0,-5.52284 4.477153,-10 10,-10 5.522847,0 10,4.47716 10,10 z"
       transform="translate(150,-228.2677)" />
    <path
       sodipodi:type="arc"
       style="fill:#000000;fill-opacity:1;stroke:#000000;stroke-width:1.79999995;stroke-linejoin:round;stroke-miterlimit:4;stroke-opacity:1;stroke-dasharray:none;stroke-dashoffset:0"
       id="path5500-7-65"
       sodipodi:cx="60"
       sodipodi:cy="412.36218"
       sodipodi:rx="10"
       sodipodi:ry="10"
       d="m 70,412.36218 c 0,5.52285 -4.477153,10 -10,10 -5.522847,0 -10,-4.47715 -10,-10 0,-5.52284 4.477153,-10 10,-10 5.522847,0 10,4.47716 10,10 z"
       transform="translate(310,-228.2677)" />
    <path
       sodipodi:type="arc"
       style="fill:#000000;fill-opacity:1;stroke:#000000;stroke-width:1.79999995;stroke-linejoin:round;stroke-miterlimit:4;stroke-opacity:1;stroke-dasharray:none;stroke-dashoffset:0"
       id="path5500-9-7"
       sodipodi:cx="60"
       sodipodi:cy="412.36218"
       sodipodi:rx="10"
       sodipodi:ry="10"
       d="m 70,412.36218 c 0,5.52285 -4.477153,10 -10,10 -5.522847,0 -10,-4.47715 -10,-10 0,-5.52284 4.477153,-10 10,-10 5.522847,0 10,4.47716 10,10 z"
       transform="translate(470,-228.2677)" />
    <path
       sodipodi:type="arc"
       style="fill:#000000;fill-opacity:1;stroke:#000000;stroke-width:1.79999995;stroke-linejoin:round;stroke-miterlimit:4;stroke-opacity:1;stroke-dasharray:none;stroke-dashoffset:0"
       id="path5500-7-2-6"
       sodipodi:cx="60"
       sodipodi:cy="412.36218"
       sodipodi:rx="10"
       sodipodi:ry="10"
       d="m 70,412.36218 c 0,5.52285 -4.477153,10 -10,10 -5.522847,0 -10,-4.47715 -10,-10 0,-5.52284 4.477153,-10 10,-10 5.522847,0 10,4.47716 10,10 z"
       transform="translate(630,-228.2677)" />
    <path
       sodipodi:type="arc"
       style="fill:#000000;fill-opacity:1;stroke:#000000;stroke-width:1.79999995;stroke-linejoin:round;stroke-miterlimit:4;stroke-opacity:1;stroke-dasharray:none;stroke-dashoffset:0"
       id="path5500-7-6-2-1"
       sodipodi:cx="60"
       sodipodi:cy="412.36218"
       sodipodi:rx="10"
       sodipodi:ry="10"
       d="m 70,412.36218 c 0,5.52285 -4.477153,10 -10,10 -5.522847,0 -10,-4.47715 -10,-10 0,-5.52284 4.477153,-10 10,-10 5.522847,0 10,4.47716 10,10 z"
       transform="translate(790,-228.2677)" />
    <path
       sodipodi:type="arc"
       style="fill:#000000;fill-opacity:1;stroke:#000000;stroke-width:1.79999995;stroke-linejoin:round;stroke-miterlimit:4;stroke-opacity:1;stroke-dasharray:none;stroke-dashoffset:0"
       id="path5500-14"
       sodipodi:cx="60"
       sodipodi:cy="412.36218"
       sodipodi:rx="10"
       sodipodi:ry="10"
       d="m 70,412.36218 c 0,5.52285 -4.477153,10 -10,10 -5.522847,0 -10,-4.47715 -10,-10 0,-5.52284 4.477153,-10 10,-10 5.522847,0 10,4.47716 10,10 z"
       transform="translate(70,-88.2677)" />
    <path
       sodipodi:type="arc"
       style="fill:#000000;fill-opacity:1;stroke:#000000;stroke-width:1.79999995;stroke-linejoin:round;stroke-miterlimit:4;stroke-opacity:1;stroke-dasharray:none;stroke-dashoffset:0"
       id="path5500-7-0"
       sodipodi:cx="60"
       sodipodi:cy="412.36218"
       sodipodi:rx="10"
       sodipodi:ry="10"
       d="m 70,412.36218 c 0,5.52285 -4.477153,10 -10,10 -5.522847,0 -10,-4.47715 -10,-10 0,-5.52284 4.477153,-10 10,-10 5.522847,0 10,4.47716 10,10 z"
       transform="translate(230,-88.2677)" />
    <path
       sodipodi:type="arc"
       style="fill:#000000;fill-opacity:1;stroke:#000000;stroke-width:1.79999995;stroke-linejoin:round;stroke-miterlimit:4;stroke-opacity:1;stroke-dasharray:none;stroke-dashoffset:0"
       id="path5500-9-78"
       sodipodi:cx="60"
       sodipodi:cy="412.36218"
       sodipodi:rx="10"
       sodipodi:ry="10"
       d="m 70,412.36218 c 0,5.52285 -4.477153,10 -10,10 -5.522847,0 -10,-4.47715 -10,-10 0,-5.52284 4.477153,-10 10,-10 5.522847,0 10,4.47716 10,10 z"
       transform="translate(390,-88.2677)" />
    <path
       sodipodi:type="arc"
       style="fill:#000000;fill-opacity:1;stroke:#000000;stroke-width:1.79999995;stroke-linejoin:round;stroke-miterlimit:4;stroke-opacity:1;stroke-dasharray:none;stroke-dashoffset:0"
       id="path5500-7-2-1"
       sodipodi:cx="60"
       sodipodi:cy="412.36218"
       sodipodi:rx="10"
       sodipodi:ry="10"
       d="m 70,412.36218 c 0,5.52285 -4.477153,10 -10,10 -5.522847,0 -10,-4.47715 -10,-10 0,-5.52284 4.477153,-10 10,-10 5.522847,0 10,4.47716 10,10 z"
       transform="translate(550,-88.2677)" />
    <path
       sodipodi:type="arc"
       style="fill:#000000;fill-opacity:1;stroke:#000000;stroke-width:1.79999995;stroke-linejoin:round;stroke-miterlimit:4;stroke-opacity:1;stroke-dasharray:none;stroke-dashoffset:0"
       id="path5500-7-6-2-4"
       sodipodi:cx="60"
       sodipodi:cy="412.36218"
       sodipodi:rx="10"
       sodipodi:ry="10"
       d="m 70,412.36218 c 0,5.52285 -4.477153,10 -10,10 -5.522847,0 -10,-4.47715 -10,-10 0,-5.52284 4.477153,-10 10,-10 5.522847,0 10,4.47716 10,10 z"
       transform="translate(710,-88.2677)" />
    <path
       sodipodi:type="arc"
       style="fill:#000000;fill-opacity:1;stroke:#000000;stroke-width:1.79999995;stroke-linejoin:round;stroke-miterlimit:4;stroke-opacity:1;stroke-dasharray:none;stroke-dashoffset:0"
       id="path5500-2"
       sodipodi:cx="60"
       sodipodi:cy="412.36218"
       sodipodi:rx="10"
       sodipodi:ry="10"
       d="m 70,412.36218 c 0,5.52285 -4.477153,10 -10,10 -5.522847,0 -10,-4.47715 -10,-10 0,-5.52284 4.477153,-10 10,-10 5.522847,0 10,4.47716 10,10 z"
       transform="translate(150,51.732297)" />
    <path
       sodipodi:type="arc"
       style="fill:#000000;fill-opacity:1;stroke:#000000;stroke-width:1.79999995;stroke-linejoin:round;stroke-miterlimit:4;stroke-opacity:1;stroke-dasharray:none;stroke-dashoffset:0"
       id="path5500-7-61"
       sodipodi:cx="60"
       sodipodi:cy="412.36218"
       sodipodi:rx="10"
       sodipodi:ry="10"
       d="m 70,412.36218 c 0,5.52285 -4.477153,10 -10,10 -5.522847,0 -10,-4.47715 -10,-10 0,-5.52284 4.477153,-10 10,-10 5.522847,0 10,4.47716 10,10 z"
       transform="translate(310,51.732297)" />
    <path
       sodipodi:type="arc"
       style="fill:#000000;fill-opacity:1;stroke:#000000;stroke-width:1.79999995;stroke-linejoin:round;stroke-miterlimit:4;stroke-opacity:1;stroke-dasharray:none;stroke-dashoffset:0"
       id="path5500-9-2"
       sodipodi:cx="60"
       sodipodi:cy="412.36218"
       sodipodi:rx="10"
       sodipodi:ry="10"
       d="m 70,412.36218 c 0,5.52285 -4.477153,10 -10,10 -5.522847,0 -10,-4.47715 -10,-10 0,-5.52284 4.477153,-10 10,-10 5.522847,0 10,4.47716 10,10 z"
       transform="translate(470,51.732297)" />
    <path
       sodipodi:type="arc"
       style="fill:#000000;fill-opacity:1;stroke:#000000;stroke-width:1.79999995;stroke-linejoin:round;stroke-miterlimit:4;stroke-opacity:1;stroke-dasharray:none;stroke-dashoffset:0"
       id="path5500-7-2-64"
       sodipodi:cx="60"
       sodipodi:cy="412.36218"
       sodipodi:rx="10"
       sodipodi:ry="10"
       d="m 70,412.36218 c 0,5.52285 -4.477153,10 -10,10 -5.522847,0 -10,-4.47715 -10,-10 0,-5.52284 4.477153,-10 10,-10 5.522847,0 10,4.47716 10,10 z"
       transform="translate(630,51.732297)" />
    <path
       sodipodi:type="arc"
       style="fill:#000000;fill-opacity:1;stroke:#000000;stroke-width:1.79999995;stroke-linejoin:round;stroke-miterlimit:4;stroke-opacity:1;stroke-dasharray:none;stroke-dashoffset:0"
       id="path5500-7-6-2-8"
       sodipodi:cx="60"
       sodipodi:cy="412.36218"
       sodipodi:rx="10"
       sodipodi:ry="10"
       d="m 70,412.36218 c 0,5.52285 -4.477153,10 -10,10 -5.522847,0 -10,-4.47715 -10,-10 0,-5.52284 4.477153,-10 10,-10 5.522847,0 10,4.47716 10,10 z"
       transform="translate(790,51.732297)" />
    <path
       style="fill:none;stroke:#000000;stroke-width:3.54330707;stroke-linecap:butt;stroke-linejoin:miter;stroke-miterlimit:4;stroke-opacity:1;stroke-dasharray:none"
       d="m 130,44.094482 700,0"
       id="path5445"
       inkscape:connector-curvature="0" />
    <path
       style="fill:none;stroke:#000000;stroke-width:3.54330707;stroke-linecap:butt;stroke-linejoin:miter;stroke-miterlimit:4;stroke-opacity:1;stroke-dasharray:none"
       d="m 210,184.09448 690,0"
       id="path6215"
       inkscape:connector-curvature="0" />
    <path
       style="fill:none;stroke:#000000;stroke-width:3.54330707;stroke-linecap:butt;stroke-linejoin:miter;stroke-miterlimit:4;stroke-opacity:1;stroke-dasharray:none"
       d="m 130,324.09448 700,0"
       id="path6217"
       inkscape:connector-curvature="0" />
    <path
       style="fill:none;stroke:#000000;stroke-width:3.54330707;stroke-linecap:butt;stroke-linejoin:miter;stroke-miterlimit:4;stroke-opacity:1;stroke-dasharray:none"
       d="m 210,464.09448 690,0"
       id="path6219"
       inkscape:connector-curvature="0" />
    <path
       style="fill:none;stroke:#000000;stroke-width:3.54330707;stroke-linecap:butt;stroke-linejoin:miter;stroke-miterlimit:4;stroke-opacity:1;stroke-dasharray:none"
       d="M 130,44.094482 410,534.09448"
       id="path6221"
       inkscape:connector-curvature="0" />
    <path
       style="fill:none;stroke:#000000;stroke-width:3.54330707;stroke-linecap:butt;stroke-linejoin:miter;stroke-miterlimit:4;stroke-opacity:1;stroke-dasharray:none"
       d="M 290,44.094482 570,534.09448"
       id="path6223"
       inkscape:connector-curvature="0" />
    <path
       style="fill:none;stroke:#000000;stroke-width:3.54330707;stroke-linecap:butt;stroke-linejoin:miter;stroke-miterlimit:4;stroke-opacity:1;stroke-dasharray:none"
       d="M 450,44.094482 730,534.09448"
       id="path6225"
       inkscape:connector-curvature="0" />
    <path
       style="fill:none;stroke:#000000;stroke-width:3.54330707;stroke-linecap:butt;stroke-linejoin:miter;stroke-miterlimit:4;stroke-opacity:1;stroke-dasharray:none"
       d="M 610,44.094482 890,534.09448"
       id="path6227"
       inkscape:connector-curvature="0" />
    <path
       style="fill:none;stroke:#000000;stroke-width:3.54330707;stroke-linecap:butt;stroke-linejoin:miter;stroke-miterlimit:4;stroke-opacity:1;stroke-dasharray:none"
       d="M 290,44.094482 130,324.09448"
       id="path6229"
       inkscape:connector-curvature="0" />
    <path
       style="fill:none;stroke:#000000;stroke-width:3.54330707;stroke-linecap:butt;stroke-linejoin:miter;stroke-miterlimit:4;stroke-opacity:1;stroke-dasharray:none"
       d="M 450,44.094482 180,514.09448"
       id="path6231"
       inkscape:connector-curvature="0" />
    <path
       style="fill:none;stroke:#000000;stroke-width:3.54330707;stroke-linecap:butt;stroke-linejoin:miter;stroke-miterlimit:4;stroke-opacity:1;stroke-dasharray:none"
       d="m 130,324.09448 110,190"
       id="path6233"
       inkscape:connector-curvature="0" />
    <path
       style="fill:none;stroke:#000000;stroke-width:3.54330707;stroke-linecap:butt;stroke-linejoin:miter;stroke-miterlimit:4;stroke-opacity:1;stroke-dasharray:none"
       d="M 610,44.094482 330,534.09448"
       id="path6235"
       inkscape:connector-curvature="0" />
    <path
       style="fill:none;stroke:#000000;stroke-width:3.54330707;stroke-linecap:butt;stroke-linejoin:miter;stroke-miterlimit:4;stroke-opacity:1;stroke-dasharray:none"
       d="M 770,44.094482 490,534.09448"
       id="path6243"
       inkscape:connector-curvature="0" />
    <path
       style="fill:none;stroke:#000000;stroke-width:3.54330707;stroke-linecap:butt;stroke-linejoin:miter;stroke-miterlimit:4;stroke-opacity:1;stroke-dasharray:none"
       d="M 770,44.094482 880,234.09448"
       id="path6245"
       inkscape:connector-curvature="0" />
    <path
       style="fill:none;stroke:#000000;stroke-width:3.54330707;stroke-linecap:butt;stroke-linejoin:miter;stroke-miterlimit:4;stroke-opacity:1;stroke-dasharray:none"
       d="m 870,154.09448 -220,370"
       id="path6247"
       inkscape:connector-curvature="0" />
    <path
       style="fill:none;stroke:#000000;stroke-width:3.54330707;stroke-linecap:butt;stroke-linejoin:miter;stroke-miterlimit:4;stroke-opacity:1;stroke-dasharray:none"
       d="m 870,424.09448 -50,100"
       id="path6249"
       inkscape:connector-curvature="0" />
    <path
       style="fill:#ff0000;fill-opacity:1;stroke:#ff0000;stroke-width:2.05511808;stroke-linejoin:round;stroke-miterlimit:4;stroke-opacity:1;stroke-dasharray:none;stroke-dashoffset:0"
       d="m 329.913,532.62167 c 0,-0.31559 7.78203,-14.20088 17.29338,-30.8562 l 17.29339,-30.2824 -2.85371,-2.8537 -2.8537,-2.85371 -69.03575,0 c -65.33138,0 -69.13123,0.11153 -70.81544,2.07856 -0.97884,1.1432 -1.66339,2.87111 -1.52121,3.8398 0.14217,0.9687 5.19962,10.27974 11.23877,20.69121 6.03915,10.41147 10.96393,19.61071 10.94394,20.44275 -0.0564,2.34957 -2.36717,-1.16978 -13.66716,-20.81573 -9.66583,-16.80484 -10.59353,-18.0224 -14.03546,-18.42088 -2.02704,-0.23469 -4.5734,-0.25407 -5.65858,-0.0431 -1.18188,0.22978 -6.39835,8.15272 -13.00903,19.75848 -6.06979,10.65618 -11.4811,19.64996 -12.02513,19.98619 -2.51355,1.55347 -0.18699,-3.30197 9.98536,-20.83906 6.03598,-10.406 11.09706,-19.755 11.24685,-20.77556 0.14978,-1.02057 -0.41788,-2.5458 -1.26149,-3.3894 -2.24913,-2.24913 -1.87021,-6.81847 0.7516,-9.06333 1.25698,-1.07626 2.28541,-2.60712 2.28541,-3.40192 0,-0.7948 -15.7236,-28.59753 -34.94134,-61.78385 l -34.94134,-60.33877 -3.91075,0.45656 c -2.48168,0.28974 -3.91076,-0.0313 -3.91076,-0.87859 0,-0.73434 -0.44549,-1.05984 -0.98998,-0.72333 -1.0352,0.6398 -4.39557,-2.50217 -4.78762,-4.47644 -0.1248,-0.62849 -0.47357,-1.78548 -0.77504,-2.5711 -0.30147,-0.78561 -0.15436,-2.32827 0.3269,-3.42812 0.48127,-1.09986 0.8138,-2.32418 0.73897,-2.72071 -0.14322,-0.7589 4.46395,-5.25299 4.74971,-4.63314 0.0911,0.19769 1.07328,0.0114 2.18253,-0.41448 1.10925,-0.42566 2.96656,-0.52557 4.12735,-0.22202 1.75551,0.45909 7.92931,-9.63174 36.70192,-59.9878 l 34.59137,-60.53974 -1.86637,-3.91382 c -2.32848,-4.88287 -2.32848,-6.21785 0,-11.10073 l 1.86637,-3.91382 -34.6761,-60.68801 C 139.71225,63.211673 133.68564,53.365407 131.95717,53.914003 126.60631,55.6123 118.21864,47.221027 120.17391,42.125681 c 0.42401,-1.104948 0.77437,-2.266106 0.77859,-2.580351 0.0181,-1.345996 3.66497,-4.463421 4.56837,-3.905095 0.54449,0.336516 0.98998,0.06728 0.98998,-0.598301 0,-0.665581 1.54266,-1.210148 3.42813,-1.210148 1.88547,0 3.42813,0.544567 3.42813,1.210148 0,0.665582 0.44549,0.934817 0.98999,0.598301 0.54449,-0.336516 1.90973,0.404465 3.03387,1.646624 1.12414,1.242159 1.67035,2.258471 1.21381,2.258471 -0.45655,0 -0.0588,0.771328 0.88398,1.714063 2.58896,2.58896 139.13912,2.58896 141.28776,0 0.78241,-0.942735 1.02277,-1.714063 0.53418,-1.714063 -0.48862,0 0.0314,-1.016312 1.1555,-2.258471 1.12414,-1.242159 2.48938,-1.98314 3.03388,-1.646624 0.54449,0.336516 0.98999,0.06728 0.98999,-0.598301 0,-0.665581 1.54265,-1.210148 3.42812,-1.210148 1.88547,0 3.42813,0.544567 3.42813,1.210148 0,0.665582 0.4455,0.934817 0.98999,0.598301 0.5445,-0.336516 1.90974,0.404465 3.03388,1.646624 1.12414,1.242159 1.67035,2.258471 1.2138,2.258471 -0.45654,0 -0.0587,0.771328 0.88398,1.714063 1.48584,1.485838 10.91974,1.714063 70.85255,1.714063 67.83034,0 69.15205,-0.04268 69.8544,-2.25561 1.051,-3.311386 6.13259,-6.88606 9.78891,-6.88606 3.49681,0 10.21796,4.95832 10.21796,7.53797 0,1.385423 10.168,1.578432 69.89806,1.326806 l 69.89805,-0.294461 1.95519,-3.428126 c 1.07537,-1.885469 2.53125,-3.299571 3.23531,-3.142448 0.70405,0.157122 1.28009,-0.228542 1.28009,-0.857032 0,-0.62849 1.54266,-1.142709 3.42813,-1.142709 1.88547,0 3.42813,0.544567 3.42813,1.210148 0,0.665582 0.42249,0.949033 0.93887,0.629892 0.51638,-0.31914 1.7969,0.42184 2.84558,1.646624 1.0487,1.224784 1.61792,2.22688 1.26492,2.22688 -0.35298,0 0.13354,0.775324 1.08116,1.722942 1.50422,1.504225 10.53282,1.685551 71.12239,1.428386 l 69.39944,-0.294557 1.9552,-3.428126 c 1.07536,-1.885469 2.53124,-3.299571 3.2353,-3.142448 0.70406,0.157122 1.2801,-0.228542 1.2801,-0.857032 0,-0.62849 1.54265,-1.142709 3.42812,-1.142709 1.88547,0 3.42813,0.514219 3.42813,1.142709 0,0.62849 0.45825,1.014154 1.01832,0.857032 1.13399,-0.318125 5.83793,4.656661 5.83793,6.174066 0,0.532324 11.05571,0.967863 24.56824,0.967863 15.61702,0 24.56823,0.416336 24.56823,1.142708 0,0.725652 -8.78797,1.142709 -24.0785,1.142709 -19.61849,0 -24.38843,0.309934 -25.75175,1.673252 -0.92029,0.920289 -1.72036,2.077281 -1.77793,2.571095 -0.0576,0.493813 -0.34369,1.520696 -0.63582,2.281962 -0.29213,0.761265 15.32847,28.743576 34.71243,62.182918 l 35.24356,60.79879 4.60871,0.20324 4.60873,0.20325 6.39506,-10.79217 c 3.51728,-5.93568 6.68756,-10.31887 7.04508,-9.7404 0.35751,0.57846 -2.21074,5.8237 -5.70724,11.65608 -5.79891,9.67297 -6.2284,10.84509 -4.89013,13.34568 1.45925,2.72663 1.57038,2.74134 20.70008,2.74134 16.33415,0 19.23295,0.25835 19.23295,1.71407 0,1.45436 -2.85677,1.71406 -18.85469,1.71406 -16.75897,0 -19.08753,0.23284 -20.94943,2.09473 -1.1521,1.1521 -1.98287,2.82332 -1.84616,3.71381 0.13672,0.89049 5.23765,10.2271 11.33543,20.74804 6.09777,10.52093 10.88719,19.72795 10.64317,20.46004 -0.24404,0.7321 -5.69522,-7.68933 -12.11373,-18.71426 -6.71089,-11.52713 -12.53102,-20.2705 -13.69613,-20.57519 -1.11436,-0.29141 -3.03536,-0.14379 -4.26891,0.32805 -1.36834,0.52339 -16.19115,24.34087 -38.01791,61.0877 -34.26716,57.69107 -35.69266,60.32098 -33.81849,62.39192 1.07616,1.18914 1.58312,2.16207 1.12657,2.16207 -0.45654,0 -0.0587,0.77133 0.88398,1.71407 1.41515,1.41515 5.91307,1.71406 25.79257,1.71406 15.29053,0 24.0785,0.41705 24.0785,1.14271 0,0.72565 -8.78797,1.14271 -24.0785,1.14271 -23.01202,0 -26.38112,0.42673 -27.06557,3.42812 -0.0716,0.31425 -0.46765,1.45051 -0.87999,2.52503 -0.51247,1.33547 9.95538,20.68046 33.08097,61.13492 18.60688,32.54968 34.26227,59.86102 34.78979,60.69186 1.03898,1.63642 6.16625,2.58451 7.92524,1.46547 0.59713,-0.37987 4.293,-7.11841 8.21307,-14.97454 7.80894,-15.6497 7.72978,-15.51613 8.65017,-14.59573 0.35222,0.3522 -2.77348,7.45311 -6.94599,15.77978 -5.8844,11.74296 -7.24579,15.35534 -6.06825,16.10186 0.83498,0.52934 1.13247,0.97032 0.6611,0.97994 -0.47136,0.009 0.17141,1.04593 1.42839,2.30291 2.10073,2.10073 3.80902,2.28542 21.14011,2.28542 15.99792,0 18.85469,0.2597 18.85469,1.71406 0,1.45576 -2.90026,1.71406 -19.2461,1.71406 l -19.24611,0 -1.9927,3.71381 -1.9927,3.7138 17.16707,29.9961 c 9.4419,16.49786 16.55681,29.99057 15.81094,29.98381 -0.74587,-0.007 -8.94395,-13.31855 -18.21797,-29.58175 -15.54513,-27.2604 -17.1307,-29.60889 -20.30477,-30.07475 -1.89361,-0.27792 -3.89048,0.0498 -4.43748,0.72835 -0.547,0.67851 -6.52751,12.28936 -13.29001,25.80189 -6.76251,13.51253 -12.50248,23.97405 -12.7555,23.24783 -0.25302,-0.72623 4.96592,-12.16293 11.59764,-25.41488 6.63172,-13.25196 12.05768,-24.88661 12.05768,-25.85479 0,-0.96817 -0.77133,-2.0563 -1.71407,-2.41805 -0.94273,-0.36177 -1.71406,-1.37407 -1.71406,-2.24956 0,-2.27478 -139.2804,-2.30651 -141.27037,-0.0322 -3.70608,4.23564 -3.08282,5.82704 13.93053,35.56889 9.21152,16.10311 16.43461,29.59198 16.05131,29.97528 -0.95708,0.95708 0.28276,2.96195 -18.35462,-29.68008 -15.18012,-26.58689 -17.09498,-29.4378 -19.85445,-29.56007 -1.6797,-0.0744 -3.4938,-0.0563 -4.03132,0.0401 -0.53752,0.0964 -1.73371,-0.45234 -2.65819,-1.21959 -1.33867,-1.11101 -1.88771,-1.06102 -2.69688,0.24558 -0.55881,0.90232 -7.59013,12.80044 -15.62515,26.44025 -13.15062,22.3238 -16.32321,26.97983 -16.32321,23.95572 0,-0.52386 6.94196,-12.60869 15.42657,-26.85517 8.48461,-14.24648 15.42657,-26.93045 15.42657,-28.1866 0,-2.25957 -0.74554,-2.28288 -69.99091,-2.18868 -64.52467,0.0878 -70.12477,0.2478 -71.70497,2.0487 -0.94273,1.07441 -1.8601,2.80928 -2.03858,3.85527 -0.17849,1.04599 7.20564,15.06562 16.40916,31.15475 9.20353,16.08912 16.42006,29.56656 16.03676,29.94986 -0.95699,0.95699 0.27614,2.95037 -18.28174,-29.55268 -15.43681,-27.03669 -16.99422,-29.33647 -20.18362,-29.80457 -1.90085,-0.27899 -4.13775,0.0494 -4.97088,0.72961 -0.83312,0.68028 -8.53193,13.57812 -17.10846,28.66187 -18.42392,32.40262 -17.54716,30.97192 -18.43574,30.08335 -0.38698,-0.38699 7.10998,-14.38593 16.6599,-31.10879 l 17.36351,-30.40518 -2.85371,-2.8537 -2.8537,-2.85371 -69.03575,0 c -64.68759,0 -69.1417,0.12757 -70.71808,2.02545 -0.92529,1.114 -1.82838,2.89172 -2.00686,3.9505 -0.17849,1.05876 7.20563,15.08886 16.40916,31.17799 9.20352,16.08912 16.42006,29.56656 16.03676,29.94986 -0.957,0.95699 0.27614,2.95037 -18.28174,-29.55268 -14.99379,-26.26074 -17.0623,-29.34646 -19.9573,-29.77136 -1.77638,-0.26071 -3.77692,-0.29164 -4.44565,-0.0687 -0.66875,0.22291 -8.82519,13.74858 -18.12542,30.05703 -14.50841,25.44122 -18.7337,31.9996 -18.7337,29.0779 z m 31.85109,-73.17247 2.71204,-2.85884 -35.0671,-61.39877 -35.06709,-61.39878 -4.78297,0.11739 -4.78297,0.11739 -34.51145,59.87482 c -18.9813,32.93115 -34.53642,60.51758 -34.56694,61.3032 -0.0305,0.78561 0.54444,1.42838 1.27768,1.42838 0.73324,0 1.03259,0.30057 0.66523,0.66794 -0.36736,0.36736 0.17543,1.6529 1.20621,2.85677 1.80862,2.11231 4.29238,2.18815 71.03974,2.16909 l 69.1656,-0.0198 2.71202,-2.85885 0,3e-5 z m 159.97922,0 2.71203,-2.85884 -35.07295,-61.39877 -35.07294,-61.39878 -4.30442,-0.0491 -4.30443,-0.0491 -34.18259,59.85146 c -18.80043,32.91829 -34.19369,60.96534 -34.20724,62.32675 -0.0136,1.36143 0.7435,3.3752 1.68234,4.47506 1.5912,1.8641 6.39838,1.9984 70.87258,1.97999 l 69.16559,-0.0198 2.71203,-2.85885 0,2e-5 z m 158.98125,1.59592 c 0,-0.71632 0.87459,-1.94193 1.94354,-2.72355 1.75163,-1.28083 -1.52827,-7.4989 -33.21795,-62.97496 l -35.16149,-61.5538 -4.30442,-0.0491 -4.30442,-0.0491 -34.1826,59.85146 c -18.80043,32.91829 -34.19368,60.96534 -34.20724,62.32675 -0.0135,1.36143 0.74351,3.3752 1.68234,4.47506 1.59127,1.86419 6.45347,1.99974 71.72961,1.99974 51.64408,-1e-5 70.02263,-0.34185 70.02263,-1.30243 z m 159.97921,0 c 0,-0.71632 0.8746,-1.94193 1.94354,-2.72355 1.75163,-1.28083 -1.52882,-7.49913 -33.22223,-62.97496 l -35.16577,-61.5538 -4.86759,-0.13176 -4.86758,-0.13177 -35.57201,59.85661 c -21.09402,35.49468 -35.30715,60.54679 -34.92128,61.55236 0.3579,0.93265 1.45274,1.69574 2.43299,1.69574 0.98024,0 1.48229,0.29996 1.11567,0.66658 -0.36661,0.36663 0.19046,1.60932 1.23793,2.76155 1.80538,1.98591 5.54781,2.09992 71.89543,2.19019 51.67604,0.0703 69.9909,-0.24559 69.9909,-1.20719 l 0,0 z M 248.04833,393.40044 c 29.20399,-50.81564 35.02117,-61.64977 33.85567,-63.05412 -0.77402,-0.93263 -1.02428,-1.6957 -0.55612,-1.6957 0.46816,0 0.21105,-0.77133 -0.57136,-1.71406 -1.23577,-1.48902 -10.49165,-1.71406 -70.49812,-1.71406 -63.14289,0 -69.24032,0.16474 -70.9937,1.91811 -1.05496,1.05497 -1.75637,1.95486 -1.55868,1.99974 0.1977,0.0449 0.0136,0.98276 -0.40899,2.08412 -0.53838,1.40302 9.07358,19.02067 32.10755,58.8495 18.08179,31.26585 34.03239,58.69275 35.44579,60.94866 5.36168,8.55779 4.4276,9.80435 43.17796,-57.62219 l 0,0 z m 126.24553,60.37586 c 0.41588,-0.41326 16.23477,-27.82537 35.1531,-60.9158 l 34.39697,-60.16441 -1.92786,-3.45112 -1.92786,-3.45112 -69.39421,-0.29456 c -57.97685,-0.24609 -69.6553,-0.0335 -70.98111,1.29235 -0.8728,0.8728 -1.34186,1.83196 -1.04235,2.13146 0.29951,0.29951 -0.19095,1.15497 -1.0899,1.90103 -1.36972,1.13677 3.9272,11.11174 32.70217,61.58343 18.88515,33.12483 35.03617,60.79887 35.89116,61.49786 1.59201,1.30157 6.86348,1.21876 8.21989,-0.12912 l 0,0 z m 159.97921,0 c 0.41588,-0.41326 16.23477,-27.82537 35.1531,-60.9158 l 34.39697,-60.16441 -1.92786,-3.45112 -1.92785,-3.45112 -69.39422,-0.29456 c -57.97684,-0.24609 -69.65529,-0.0335 -70.98111,1.29235 -0.8728,0.8728 -1.34186,1.83196 -1.04234,2.13146 0.2995,0.29951 -0.19096,1.15497 -1.08991,1.90103 -1.36972,1.13677 3.92721,11.11174 32.70218,61.58343 18.88514,33.12483 35.03616,60.79887 35.89115,61.49786 1.59201,1.30157 6.86349,1.21876 8.21989,-0.12912 l 0,0 z M 727.5036,391.68027 c 33.90882,-57.09841 35.45401,-59.9493 34.06435,-62.84897 l -1.45568,-3.03745 -69.47702,-0.29456 c -63.8842,-0.27084 -69.63214,-0.13943 -71.40403,1.63244 -1.05985,1.05985 -1.76524,1.96374 -1.56755,2.00862 0.19768,0.0449 0.008,0.99689 -0.42106,2.11555 -0.55295,1.44097 9.13251,19.42997 33.22331,61.70626 18.70209,32.8198 34.81131,60.32188 35.79827,61.11574 1.475,1.18642 2.14386,1.0847 3.75692,-0.57135 1.07935,-1.10811 17.94647,-28.92993 37.48249,-61.82628 l 0,0 z M 280.77652,321.22302 c 0.78241,-0.94274 1.02277,-1.71407 0.53418,-1.71407 -0.48862,0 -0.0936,-0.89988 0.87776,-1.99974 1.62625,-1.84135 -0.97841,-6.79677 -32.88446,-62.5633 l -34.65061,-60.56356 -4.55724,-0.18107 -4.55724,-0.18106 -34.50537,60.42956 c -21.0866,36.92916 -34.24341,61.11225 -33.83175,62.18501 0.3705,0.9655 0.55914,1.89124 0.41921,2.05722 -0.13993,0.16596 0.51692,1.16945 1.45965,2.22995 1.57178,1.76813 7.46476,1.93179 70.9937,1.97165 60.2239,0.0378 69.46557,-0.18058 70.70217,-1.67059 z m 161.13955,-2.30841 1.92786,-3.45112 L 409.33868,255.1 c -18.9779,-33.19993 -35.13708,-60.75398 -35.90931,-61.23125 -2.00533,-1.23936 -7.032,-0.49035 -8.64249,1.2878 -0.75281,0.83117 -16.64805,28.17987 -35.32275,60.77489 -32.48072,56.69216 -33.86933,59.35727 -32.00204,61.42059 1.07359,1.18631 1.5949,2.15692 1.15847,2.15692 -0.43643,0 -0.13046,0.75443 0.67992,1.67652 1.26934,1.44427 11.11614,1.64214 71.08058,1.42838 l 69.60714,-0.24813 1.92787,-3.45111 0,0 z m 159.97921,0 1.92786,-3.45112 L 569.31789,255.1 c -18.9779,-33.19993 -35.11705,-60.74161 -35.86478,-61.20373 -1.151,-0.71136 -2.86728,-0.75482 -7.12959,-0.18049 -1.67715,0.22598 -69.79176,121.28125 -69.1633,122.91901 0.37049,0.9655 0.55914,1.89124 0.41921,2.05722 -0.13993,0.16596 0.51691,1.17211 1.45965,2.23587 1.57953,1.7823 7.17722,1.91463 71.3212,1.68597 l 69.60714,-0.24813 1.92786,-3.45111 0,0 z m 159.97921,0 1.92787,-3.45112 L 729.2971,255.1 c -18.9779,-33.19993 -35.13708,-60.75398 -35.90931,-61.23125 -1.70214,-1.05199 -6.91839,-0.58991 -8.06519,0.71444 -2.35741,2.68126 -67.91529,118.86126 -68.34793,121.12444 -0.31845,1.66585 0.0393,2.65861 0.95815,2.65861 0.8065,0 1.15447,0.31191 0.77326,0.69313 -0.38122,0.3812 -0.0813,1.39274 0.66658,2.24786 1.12332,1.28448 13.46018,1.51161 70.96683,1.30662 l 69.60714,-0.24813 1.92786,-3.45111 0,0 z m -467.821,-5.56662 c 0.86361,-0.78807 67.41232,-117.48083 68.24392,-119.6653 0.92107,-2.41947 0.70517,-3.44793 -1.13941,-5.42787 l -2.27581,-2.44278 -69.07475,0 -69.07476,0 -2.06824,3.84048 -2.06824,3.8405 34.63638,60.60839 34.63639,60.60837 4.02435,-0.61892 c 2.21339,-0.34042 4.08547,-0.6747 4.16017,-0.74287 l 0,0 z m 195.34225,-60.40336 35.08628,-61.42214 -2.85522,-2.85522 -2.85522,-2.85523 -69.03575,0 c -64.33624,0 -69.15194,0.13613 -70.74272,1.99974 -0.93884,1.09986 -1.69588,3.11363 -1.68234,4.47505 0.0136,1.36141 15.40681,29.40847 34.20724,62.32676 l 34.18259,59.85146 4.30443,-0.0491 4.30442,-0.0491 35.08629,-61.42214 0,-10e-6 z m 160.08102,-0.17826 c 31.31971,-54.82836 34.97151,-61.73701 33.21795,-62.84313 -1.08358,-0.68351 -1.97015,-1.88814 -1.97015,-2.67698 0,-1.13482 -14.55136,-1.43422 -69.70523,-1.43422 -65.15675,0 -69.83718,0.13195 -71.72739,2.02216 -1.11219,1.11219 -2.01207,3.12596 -1.99974,4.47505 0.0123,1.34908 15.40459,29.38605 34.20502,62.30434 l 34.1826,59.85146 4.30442,-0.0491 4.30442,-0.0491 35.1881,-61.6004 0,-1e-5 z m 120.40329,61.40851 c 3.97419,-0.56147 4.45913,-1.30038 39.42345,-60.06958 19.46986,-32.72561 35.56044,-59.90455 35.75685,-60.39764 0.1964,-0.4931 -0.66064,-1.82856 -1.90452,-2.96769 -1.24388,-1.13914 -2.30446,-2.71393 -2.35684,-3.49955 -0.0751,-1.12605 -14.84886,-1.42838 -69.80045,-1.42838 -65.15674,0 -69.83717,0.13195 -71.72739,2.02216 -1.11218,1.11219 -2.01207,3.05501 -1.99974,4.31737 0.0123,1.26237 15.44899,29.38879 34.30368,62.50316 18.8547,33.11436 34.28126,60.18108 34.28126,60.14827 0,-0.0328 1.81066,-0.31546 4.0237,-0.62812 l 0,0 z m -408.11596,-134.6893 2.71204,-2.85884 -35.0831,-61.42475 -35.0831,-61.424744 -4.30366,0 -4.30365,0 -34.55321,60.462844 -34.55321,60.46284 2.06824,3.8405 2.06824,3.84048 69.15969,-0.0198 69.1597,-0.0198 2.71202,-2.85886 0,6e-5 z m 159.98038,-0.001 2.71318,-2.86004 -34.74671,-60.82628 -34.74671,-60.826223 -4.96365,0 -4.96365,0 -34.75919,60.464353 c -25.81244,44.90132 -34.3783,60.70598 -33.2794,61.40309 0.81387,0.51631 1.09914,0.94662 0.63393,0.95624 -0.46522,0.009 0.0347,1.04594 1.11099,2.30292 1.91718,2.2391 3.35836,2.28501 71.12243,2.26567 l 69.16559,-0.0198 2.71319,-2.86005 0,9e-5 z m 158.98009,1.59706 c 0,-0.71632 0.87459,-1.94193 1.94354,-2.72356 1.75163,-1.28082 -1.52827,-7.4989 -33.21795,-62.97495 l -35.16149,-61.553802 -4.30442,-0.04915 -4.30442,-0.04915 -34.1826,59.851462 c -18.80043,32.9183 -34.19269,60.95526 -34.20502,62.30434 -0.0123,1.34909 0.759,3.32001 1.71406,4.37983 1.59104,1.76554 7.59855,1.9349 71.72739,2.02216 51.67604,0.0703 69.99091,-0.24559 69.99091,-1.20719 l 0,1e-5 z m 159.97921,-0.28939 c 0,-0.8755 0.77133,-1.88779 1.71406,-2.24956 0.94274,-0.36176 1.71407,-1.45947 1.71407,-2.43936 0,-0.97989 -15.65684,-28.825 -34.79298,-61.87802 l -34.79296,-60.096391 -4.43426,-0.215048 -4.43426,-0.215046 -34.1918,59.867565 c -18.8055,32.92716 -34.2019,60.97137 -34.21423,62.32045 -0.0123,1.34909 0.759,3.32001 1.71407,4.37983 1.59104,1.76554 7.59854,1.9349 71.72739,2.02216 59.10875,0.0804 69.9909,-0.15226 69.9909,-1.49658 l 0,0 z M 374.6092,173.03568 c 0.48472,-0.82913 16.24303,-28.22466 35.01848,-60.87897 l 34.13716,-59.37148 -2.36157,-3.714812 -2.3616,-3.714812 -68.92982,-0.04837 c -57.15408,-0.0401 -69.19939,0.221218 -70.50784,1.529659 -0.86791,0.867915 -1.33298,1.823077 -1.03347,2.122582 0.29951,0.299504 -0.19095,1.15497 -1.0899,1.901034 -1.36972,1.136764 3.9272,11.111733 32.70217,61.583429 18.88515,33.12482 35.03617,60.79886 35.89116,61.49786 1.99202,1.62861 7.38829,1.05572 8.53523,-0.90612 l 0,0 z m 159.66387,0.77699 c 0.41588,-0.41326 16.23477,-27.82536 35.1531,-60.91579 l 34.39697,-60.164421 -1.92786,-3.451115 -1.92786,-3.451117 -69.62828,-0.294359 -69.62829,-0.294361 -2.14639,3.985597 -2.14638,3.985596 34.03621,59.7291 c 18.71992,32.851 34.73759,60.301 35.59481,61 1.59616,1.30156 6.86754,1.21878 8.22397,-0.12913 l 0,0 z m 159.97922,0 c 0.41587,-0.41326 16.23477,-27.82536 35.1531,-60.91579 l 34.39697,-60.164421 -1.92787,-3.451115 -1.92785,-3.451117 -69.39422,-0.294557 c -63.80652,-0.270838 -69.54936,-0.139393 -71.3212,1.632442 -1.05985,1.059849 -1.76524,1.963728 -1.56755,2.008619 0.19768,0.0449 0.022,0.960775 -0.39026,2.035294 -0.51243,1.335374 10.03184,20.827854 33.31731,61.591495 18.73686,32.8008 34.69408,60.26489 35.46051,61.03131 1.39853,1.39855 6.78603,1.38398 8.20106,-0.0222 l 0,10e-6 z M 249.25905,113.27303 283.86472,52.732459 281.93685,49.281344 280.009,45.830227 210.61479,45.53567 c -57.97685,-0.246093 -69.6553,-0.03346 -70.98111,1.29235 -0.8728,0.872798 -1.34186,1.831955 -1.04236,2.13146 0.29951,0.299504 -0.18951,1.15378 -1.08671,1.898388 -1.36536,1.133149 4.04768,11.294344 33.20729,62.335642 l 34.83855,60.98181 4.55147,-0.18085 4.55147,-0.18087 34.60566,-60.54057 z"
       id="path5369"
       inkscape:connector-curvature="0" />
    <path
       style="fill:#008000;fill-opacity:1;stroke:#008000;stroke-width:2.05511808;stroke-linejoin:round;stroke-miterlimit:4;stroke-opacity:1;stroke-dasharray:none;stroke-dashoffset:0"
       d="m 329.1365,625.45675 c 0,-0.31559 7.7821,-14.20088 17.2934,-30.8562 l 17.2934,-30.2824 -2.8537,-2.8537 -2.8537,-2.85371 -69.0358,0 c -65.3313,0 -69.1312,0.11153 -70.8154,2.07856 -0.9788,1.1432 -1.6634,2.87111 -1.5212,3.8398 0.1422,0.9687 5.1996,10.27974 11.2388,20.69121 6.0391,10.41147 10.9639,19.61071 10.9439,20.44275 -0.056,2.34957 -2.3672,-1.16978 -13.6672,-20.81573 -9.6658,-16.80484 -10.5935,-18.0224 -14.0354,-18.42088 -2.0271,-0.23469 -4.5734,-0.25407 -5.6586,-0.0431 -1.1819,0.22978 -6.3984,8.15272 -13.009,19.75848 -6.0698,10.65618 -11.4811,19.64996 -12.0252,19.98619 -2.5135,1.55347 -0.187,-3.30197 9.9854,-20.83906 6.036,-10.406 11.0971,-19.755 11.2468,-20.77556 0.1498,-1.02057 -0.4178,-2.5458 -1.2614,-3.3894 -2.2492,-2.24913 -1.8703,-6.81847 0.7516,-9.06333 1.2569,-1.07626 2.2854,-2.60712 2.2854,-3.40192 0,-0.7948 -15.7236,-28.59753 -34.9414,-61.78385 l -34.9413,-60.33877 -3.9108,0.45656 c -2.48165,0.28974 -3.91073,-0.0313 -3.91073,-0.87859 0,-0.73434 -0.44549,-1.05984 -0.98998,-0.72333 -1.0352,0.6398 -4.39557,-2.50217 -4.78762,-4.47644 -0.1248,-0.62849 -0.47357,-1.78548 -0.77504,-2.5711 -0.30147,-0.78561 -0.15436,-2.32827 0.3269,-3.42812 0.48127,-1.09986 0.8138,-2.32418 0.73897,-2.72071 -0.14322,-0.7589 4.46395,-5.25299 4.74971,-4.63314 0.0911,0.19769 1.07328,0.0114 2.18253,-0.41448 1.10925,-0.42566 2.96656,-0.52557 4.12736,-0.22202 1.7555,0.45909 7.9293,-9.63174 36.7019,-59.9878 l 34.5914,-60.53974 -1.8664,-3.91382 c -2.3285,-4.88287 -2.3285,-6.21785 0,-11.10073 l 1.8664,-3.91382 -34.6761,-60.688 c -28.9886,-50.73409 -35.0152,-60.58036 -36.7437,-60.03176 -5.35087,1.6983 -13.73854,-6.69298 -11.78327,-11.78832 0.42401,-1.10495 0.77437,-2.26611 0.77859,-2.58035 0.0181,-1.346 3.66497,-4.46343 4.56837,-3.9051 0.54449,0.33652 0.98998,0.0673 0.98998,-0.5983 0,-0.66558 1.54266,-1.21015 3.42813,-1.21015 1.8855,0 3.4281,0.54457 3.4281,1.21015 0,0.66558 0.4455,0.93482 0.99,0.5983 0.5445,-0.33652 1.9098,0.40447 3.0339,1.64662 1.1241,1.24216 1.6703,2.25848 1.2138,2.25848 -0.4565,0 -0.059,0.77132 0.884,1.71406 2.5889,2.58896 139.1391,2.58896 141.2877,0 0.7825,-0.94274 1.0228,-1.71406 0.5342,-1.71406 -0.4886,0 0.031,-1.01632 1.1555,-2.25848 1.1242,-1.24215 2.4894,-1.98314 3.0339,-1.64662 0.5445,0.33652 0.99,0.0673 0.99,-0.5983 0,-0.66558 1.5426,-1.21015 3.4281,-1.21015 1.8855,0 3.4281,0.54457 3.4281,1.21015 0,0.66558 0.4455,0.93482 0.99,0.5983 0.5445,-0.33652 1.9098,0.40447 3.0339,1.64662 1.1242,1.24216 1.6704,2.25848 1.2138,2.25848 -0.4565,0 -0.059,0.77132 0.884,1.71406 1.4858,1.48584 10.9197,1.71406 70.8525,1.71406 67.8304,0 69.1521,-0.0427 69.8544,-2.25561 1.051,-3.31138 6.1326,-6.88606 9.789,-6.88606 3.4968,0 10.2179,4.95832 10.2179,7.53797 0,1.38542 10.168,1.57843 69.8981,1.32681 l 69.898,-0.29446 1.9552,-3.42813 c 1.0754,-1.88547 2.5313,-3.29957 3.2353,-3.14245 0.7041,0.15712 1.2801,-0.22854 1.2801,-0.85703 0,-0.62849 1.5427,-1.14271 3.4281,-1.14271 1.8855,0 3.4282,0.54457 3.4282,1.21015 0,0.66558 0.4225,0.94903 0.9388,0.62989 0.5164,-0.31914 1.7969,0.42184 2.8456,1.64663 1.0487,1.22478 1.6179,2.22688 1.2649,2.22688 -0.3529,0 0.1336,0.77532 1.0812,1.72294 1.5042,1.50422 10.5328,1.68555 71.1224,1.42838 l 69.3994,-0.29455 1.9552,-3.42813 c 1.0754,-1.88547 2.5313,-3.29957 3.2353,-3.14245 0.7041,0.15712 1.2801,-0.22854 1.2801,-0.85703 0,-0.62849 1.5427,-1.14271 3.4282,-1.14271 1.8854,0 3.4281,0.51422 3.4281,1.14271 0,0.62849 0.4582,1.01415 1.0183,0.85703 1.134,-0.31812 5.8379,4.65666 5.8379,6.17407 0,0.53232 11.0557,0.96786 24.5683,0.96786 15.617,0 24.5682,0.41634 24.5682,1.14271 0,0.72565 -8.788,1.14271 -24.0785,1.14271 -19.6185,0 -24.3884,0.30993 -25.7517,1.67325 -0.9203,0.92029 -1.7204,2.07728 -1.778,2.5711 -0.058,0.49381 -0.3437,1.52069 -0.6358,2.28196 -0.2921,0.76126 15.3285,28.74357 34.7124,62.18292 l 35.2436,60.79878 4.6087,0.20324 4.6087,0.20325 6.3951,-10.79217 c 3.5173,-5.93568 6.6876,-10.31887 7.0451,-9.7404 0.3575,0.57846 -2.2108,5.8237 -5.7073,11.65608 -5.7989,9.67297 -6.2284,10.84509 -4.8901,13.34568 1.4593,2.72663 1.5704,2.74134 20.7001,2.74134 16.3341,0 19.2329,0.25835 19.2329,1.71407 0,1.45436 -2.8567,1.71406 -18.8547,1.71406 -16.7589,0 -19.0875,0.23284 -20.9494,2.09473 -1.1521,1.1521 -1.9829,2.82332 -1.8461,3.71381 0.1367,0.89049 5.2376,10.2271 11.3354,20.74804 6.0978,10.52093 10.8872,19.72795 10.6432,20.46004 -0.2441,0.7321 -5.6953,-7.68933 -12.1138,-18.71426 -6.7109,-11.52713 -12.531,-20.2705 -13.6961,-20.57519 -1.1144,-0.29141 -3.0354,-0.14379 -4.2689,0.32805 -1.3684,0.52339 -16.1912,24.34087 -38.0179,61.0877 -34.2672,57.69107 -35.6927,60.32098 -33.8185,62.39192 1.0761,1.18914 1.5831,2.16207 1.1266,2.16207 -0.4566,0 -0.059,0.77133 0.8839,1.71407 1.4152,1.41515 5.9131,1.71406 25.7926,1.71406 15.2905,0 24.0785,0.41705 24.0785,1.14271 0,0.72565 -8.788,1.14271 -24.0785,1.14271 -23.012,0 -26.3811,0.42673 -27.0656,3.42812 -0.072,0.31425 -0.4676,1.45051 -0.88,2.52503 -0.5124,1.33547 9.9554,20.68046 33.081,61.13492 18.6069,32.54968 34.2623,59.86102 34.7898,60.69186 1.039,1.63642 6.1663,2.58451 7.9252,1.46547 0.5972,-0.37987 4.293,-7.11841 8.2131,-14.97454 7.809,-15.6497 7.7298,-15.51613 8.6502,-14.59573 0.3522,0.3522 -2.7735,7.45311 -6.946,15.77978 -5.8844,11.74296 -7.2458,15.35534 -6.0683,16.10186 0.835,0.52934 1.1325,0.97032 0.6611,0.97994 -0.4713,0.009 0.1715,1.04593 1.4284,2.30291 2.1008,2.10073 3.8091,2.28542 21.1401,2.28542 15.998,0 18.8547,0.2597 18.8547,1.71406 0,1.45576 -2.9002,1.71406 -19.2461,1.71406 l -19.2461,0 -1.9927,3.71381 -1.9927,3.7138 17.1671,29.9961 c 9.4419,16.49786 16.5568,29.99057 15.8109,29.98381 -0.7458,-0.007 -8.9439,-13.31855 -18.2179,-29.58175 -15.5452,-27.2604 -17.1307,-29.60889 -20.3048,-30.07475 -1.8936,-0.27792 -3.8905,0.0498 -4.4375,0.72835 -0.547,0.67851 -6.5275,12.28936 -13.29,25.80189 -6.7625,13.51253 -12.5025,23.97405 -12.7555,23.24783 -0.253,-0.72623 4.9659,-12.16293 11.5976,-25.41488 6.6318,-13.25196 12.0577,-24.88661 12.0577,-25.85479 0,-0.96817 -0.7713,-2.0563 -1.714,-2.41805 -0.9428,-0.36177 -1.7141,-1.37407 -1.7141,-2.24956 0,-2.27478 -139.2804,-2.30651 -141.2704,-0.0322 -3.7061,4.23564 -3.0828,5.82704 13.9306,35.56889 9.2115,16.10311 16.4346,29.59198 16.0513,29.97528 -0.9571,0.95708 0.2827,2.96195 -18.3547,-29.68008 -15.1801,-26.58689 -17.0949,-29.4378 -19.8544,-29.56007 -1.6797,-0.0744 -3.4938,-0.0563 -4.0313,0.0401 -0.5375,0.0964 -1.7337,-0.45234 -2.6582,-1.21959 -1.3387,-1.11101 -1.8877,-1.06102 -2.6969,0.24558 -0.5588,0.90232 -7.5901,12.80044 -15.6251,26.44025 -13.1507,22.3238 -16.3233,26.97983 -16.3233,23.95572 0,-0.52386 6.942,-12.60869 15.4266,-26.85517 8.4846,-14.24648 15.4266,-26.93045 15.4266,-28.1866 0,-2.25957 -0.7456,-2.28288 -69.9909,-2.18868 -64.5247,0.0878 -70.1248,0.2478 -71.705,2.0487 -0.9427,1.07441 -1.8601,2.80928 -2.0386,3.85527 -0.1785,1.04599 7.2057,15.06562 16.4092,31.15475 9.2035,16.08912 16.42,29.56656 16.0367,29.94986 -0.9569,0.95699 0.2762,2.95037 -18.2817,-29.55268 -15.4368,-27.03669 -16.9942,-29.33647 -20.1836,-29.80457 -1.9009,-0.27899 -4.1378,0.0494 -4.9709,0.72961 -0.8331,0.68028 -8.5319,13.57812 -17.1085,28.66187 -18.4239,32.40262 -17.5471,30.97192 -18.4357,30.08335 -0.387,-0.38699 7.11,-14.38593 16.6599,-31.10879 l 17.3635,-30.40518 -2.8537,-2.8537 -2.8537,-2.85371 -69.0357,0 c -64.6876,0 -69.1417,0.12757 -70.7181,2.02545 -0.9253,1.114 -1.8284,2.89172 -2.0069,3.9505 -0.1785,1.05876 7.2056,15.08886 16.4092,31.17799 9.2035,16.08912 16.42,29.56656 16.0367,29.94986 -0.957,0.95699 0.2762,2.95037 -18.2817,-29.55268 -14.9938,-26.26074 -17.0623,-29.34646 -19.9573,-29.77136 -1.7764,-0.26071 -3.7769,-0.29164 -4.4457,-0.0687 -0.6687,0.22291 -8.8251,13.74858 -18.1254,30.05703 -14.5084,25.44122 -18.7337,31.9996 -18.7337,29.0779 z m 31.8511,-73.17247 2.7121,-2.85884 -35.0671,-61.39877 -35.0671,-61.39878 -4.783,0.11739 -4.783,0.11739 -34.5114,59.87482 c -18.9813,32.93115 -34.5364,60.51758 -34.567,61.3032 -0.031,0.78561 0.5445,1.42838 1.2777,1.42838 0.7333,0 1.0326,0.30057 0.6652,0.66794 -0.3673,0.36736 0.1755,1.6529 1.2063,2.85677 1.8086,2.11231 4.2923,2.18815 71.0397,2.16909 l 69.1656,-0.0198 2.712,-2.85885 0,3e-5 z m 159.9792,0 2.7121,-2.85884 -35.073,-61.39877 -35.0729,-61.39878 -4.3044,-0.0491 -4.3045,-0.0491 -34.1826,59.85146 c -18.8004,32.91829 -34.1937,60.96534 -34.2072,62.32675 -0.014,1.36143 0.7435,3.3752 1.6823,4.47506 1.5912,1.8641 6.3984,1.9984 70.8726,1.97999 l 69.1656,-0.0198 2.712,-2.85885 0,2e-5 z m 158.9813,1.59592 c 0,-0.71632 0.8746,-1.94193 1.9435,-2.72355 1.7517,-1.28083 -1.5282,-7.4989 -33.2179,-62.97496 l -35.1615,-61.5538 -4.3044,-0.0491 -4.3045,-0.0491 -34.1826,59.85146 c -18.8004,32.91829 -34.1936,60.96534 -34.2072,62.32675 -0.014,1.36143 0.7435,3.3752 1.6823,4.47506 1.5913,1.86419 6.4535,1.99974 71.7297,1.99974 51.644,-10e-6 70.0226,-0.34185 70.0226,-1.30243 z m 159.9792,0 c 0,-0.71632 0.8746,-1.94193 1.9435,-2.72355 1.7517,-1.28083 -1.5288,-7.49913 -33.2222,-62.97496 l -35.1658,-61.5538 -4.8676,-0.13176 -4.8675,-0.13177 -35.572,59.85661 c -21.0941,35.49468 -35.3072,60.54679 -34.9213,61.55236 0.3579,0.93265 1.4527,1.69574 2.433,1.69574 0.9802,0 1.4823,0.29996 1.1156,0.66658 -0.3666,0.36663 0.1905,1.60932 1.238,2.76155 1.8053,1.98591 5.5478,2.09992 71.8954,2.19019 51.676,0.0703 69.9909,-0.24559 69.9909,-1.20719 l 0,0 z M 247.2719,486.23552 c 29.2039,-50.81564 35.0211,-61.64977 33.8556,-63.05412 -0.774,-0.93263 -1.0243,-1.6957 -0.5561,-1.6957 0.4682,0 0.2111,-0.77133 -0.5714,-1.71406 -1.2357,-1.48902 -10.4916,-1.71406 -70.4981,-1.71406 -63.1429,0 -69.2403,0.16474 -70.9937,1.91811 -1.0549,1.05497 -1.7564,1.95486 -1.5587,1.99974 0.1977,0.0449 0.014,0.98276 -0.409,2.08412 -0.5383,1.40302 9.0736,19.02067 32.1076,58.8495 18.0818,31.26585 34.0324,58.69275 35.4458,60.94866 5.3617,8.55779 4.4276,9.80435 43.178,-57.62219 l 0,0 z m 126.2455,60.37586 c 0.4159,-0.41326 16.2348,-27.82537 35.1531,-60.9158 l 34.397,-60.16441 -1.9279,-3.45112 -1.9279,-3.45112 -69.3942,-0.29456 c -57.9768,-0.24609 -69.6553,-0.0335 -70.9811,1.29235 -0.8728,0.8728 -1.3418,1.83196 -1.0423,2.13146 0.2995,0.29951 -0.191,1.15497 -1.0899,1.90103 -1.3698,1.13677 3.9272,11.11174 32.7021,61.58343 18.8852,33.12483 35.0362,60.79887 35.8912,61.49786 1.592,1.30157 6.8635,1.21876 8.2199,-0.12912 l 0,0 z m 159.9792,0 c 0.4159,-0.41326 16.2348,-27.82537 35.1531,-60.9158 l 34.397,-60.16441 -1.9279,-3.45112 -1.9278,-3.45112 -69.3943,-0.29456 c -57.9768,-0.24609 -69.6553,-0.0335 -70.9811,1.29235 -0.8728,0.8728 -1.3418,1.83196 -1.0423,2.13146 0.2995,0.29951 -0.191,1.15497 -1.0899,1.90103 -1.3697,1.13677 3.9272,11.11174 32.7022,61.58343 18.8851,33.12483 35.0361,60.79887 35.8911,61.49786 1.592,1.30157 6.8635,1.21876 8.2199,-0.12912 l 0,0 z m 193.2305,-62.09603 c 33.9088,-57.09841 35.454,-59.9493 34.0644,-62.84897 l -1.4557,-3.03745 -69.477,-0.29456 c -63.8842,-0.27084 -69.6322,-0.13943 -71.4041,1.63244 -1.0598,1.05985 -1.7652,1.96374 -1.5675,2.00862 0.1977,0.0449 0.01,0.99689 -0.4211,2.11555 -0.5529,1.44097 9.1325,19.42997 33.2233,61.70626 18.7021,32.8198 34.8114,60.32188 35.7983,61.11574 1.475,1.18642 2.1439,1.0847 3.7569,-0.57135 1.0794,-1.10811 17.9465,-28.92993 37.4825,-61.82628 l 0,0 z M 280,414.0581 c 0.7825,-0.94274 1.0228,-1.71407 0.5342,-1.71407 -0.4886,0 -0.094,-0.89988 0.8778,-1.99974 1.6262,-1.84135 -0.9784,-6.79677 -32.8845,-62.5633 l -34.6506,-60.56356 -4.5572,-0.18107 -4.5573,-0.18106 -34.5053,60.42956 c -21.0866,36.92916 -34.2434,61.11225 -33.8318,62.18501 0.3705,0.9655 0.5592,1.89124 0.4192,2.05722 -0.1399,0.16596 0.5169,1.16945 1.4597,2.22995 1.5718,1.76813 7.4647,1.93179 70.9937,1.97165 60.2239,0.0378 69.4655,-0.18058 70.7021,-1.67059 z m 161.1396,-2.30841 1.9279,-3.45112 -34.5053,-60.36349 c -18.9779,-33.19993 -35.1371,-60.75398 -35.9093,-61.23125 -2.0053,-1.23936 -7.032,-0.49035 -8.6425,1.2878 -0.7528,0.83117 -16.648,28.17987 -35.3227,60.77489 -32.4808,56.69216 -33.8694,59.35727 -32.0021,61.42059 1.0736,1.18631 1.5949,2.15692 1.1585,2.15692 -0.4364,0 -0.1305,0.75443 0.6799,1.67652 1.2693,1.44427 11.1161,1.64214 71.0806,1.42838 l 69.6071,-0.24813 1.9279,-3.45111 0,0 z m 159.9792,0 1.9279,-3.45112 -34.5053,-60.36349 c -18.9779,-33.19993 -35.117,-60.74161 -35.8648,-61.20373 -1.151,-0.71136 -2.8672,-0.75482 -7.1296,-0.18049 -1.6771,0.22598 -69.7917,121.28125 -69.1633,122.91901 0.3705,0.9655 0.5592,1.89124 0.4193,2.05722 -0.14,0.16596 0.5169,1.17211 1.4596,2.23587 1.5795,1.7823 7.1772,1.91463 71.3212,1.68597 l 69.6071,-0.24813 1.9279,-3.45111 0,0 z m 159.9792,0 1.9279,-3.45112 -34.5053,-60.36349 c -18.9779,-33.19993 -35.1371,-60.75398 -35.9093,-61.23125 -1.7021,-1.05199 -6.9184,-0.58991 -8.0652,0.71444 -2.3574,2.68126 -67.9153,118.86126 -68.3479,121.12444 -0.3185,1.66585 0.039,2.65861 0.9581,2.65861 0.8065,0 1.1545,0.31191 0.7733,0.69313 -0.3812,0.3812 -0.081,1.39274 0.6666,2.24786 1.1233,1.28448 13.4602,1.51161 70.9668,1.30662 l 69.6072,-0.24813 1.9278,-3.45111 0,0 z m -467.821,-5.56662 c 0.8636,-0.78807 67.4123,-117.48083 68.2439,-119.6653 0.9211,-2.41947 0.7052,-3.44793 -1.1394,-5.42787 l -2.2758,-2.44278 -69.0747,0 -69.0748,0 -2.0682,3.84048 -2.0683,3.8405 34.6364,60.60839 34.6364,60.60837 4.0243,-0.61892 c 2.2134,-0.34042 4.0855,-0.6747 4.1602,-0.74287 l 0,0 z m 195.3423,-60.40336 35.0862,-61.42214 -2.8552,-2.85522 -2.8552,-2.85523 -69.0357,0 c -64.3363,0 -69.152,0.13613 -70.7428,1.99974 -0.9388,1.09986 -1.6958,3.11363 -1.6823,4.47505 0.014,1.36141 15.4068,29.40847 34.2072,62.32676 l 34.1826,59.85146 4.3045,-0.0491 4.3044,-0.0491 35.0863,-61.42214 0,-10e-6 z m 160.081,-0.17826 c 31.3197,-54.82836 34.9715,-61.73701 33.2179,-62.84313 -1.0835,-0.68351 -1.9701,-1.88814 -1.9701,-2.67698 0,-1.13482 -14.5514,-1.43422 -69.7052,-1.43422 -65.1568,0 -69.8372,0.13195 -71.7274,2.02216 -1.1122,1.11219 -2.0121,3.12596 -1.9998,4.47505 0.012,1.34908 15.4046,29.38605 34.205,62.30434 l 34.1826,59.85146 4.3045,-0.0491 4.3044,-0.0491 35.1881,-61.6004 0,-1e-5 z m 120.4033,61.40851 c 3.9742,-0.56147 4.4591,-1.30038 39.4234,-60.06958 19.4699,-32.72561 35.5605,-59.90455 35.7569,-60.39764 0.1964,-0.4931 -0.6607,-1.82856 -1.9045,-2.96769 -1.2439,-1.13914 -2.3045,-2.71393 -2.3569,-3.49955 -0.075,-1.12605 -14.8488,-1.42838 -69.8004,-1.42838 -65.1568,0 -69.8372,0.13195 -71.7274,2.02216 -1.1122,1.11219 -2.0121,3.05501 -1.9998,4.31737 0.012,1.26237 15.449,29.38879 34.3037,62.50316 18.8547,33.11436 34.2813,60.18108 34.2813,60.14827 0,-0.0328 1.8106,-0.31546 4.0237,-0.62812 l 0,0 z m -408.116,-134.6893 2.7121,-2.85884 -35.0831,-61.42474 -35.0831,-61.42475 -4.3037,0 -4.3037,0 -34.5532,60.46285 -34.5532,60.46283 2.0683,3.8405 2.0682,3.84048 69.1597,-0.0198 69.1597,-0.0198 2.712,-2.85886 0,6e-5 z m 159.9804,-10e-4 2.7132,-2.86004 -34.7467,-60.82627 -34.7467,-60.82623 -4.9637,0 -4.9636,0 -34.7592,60.46436 c -25.8125,44.90131 -34.3783,60.70597 -33.2794,61.40308 0.8138,0.51631 1.0991,0.94662 0.6339,0.95624 -0.4652,0.009 0.035,1.04594 1.111,2.30292 1.9172,2.2391 3.3583,2.28501 71.1224,2.26567 l 69.1656,-0.0198 2.7132,-2.86005 0,9e-5 z m 158.9801,1.59706 c 0,-0.71632 0.8746,-1.94193 1.9435,-2.72356 1.7517,-1.28082 -1.5282,-7.4989 -33.2179,-62.97494 l -35.1615,-61.55381 -4.3044,-0.0491 -4.3045,-0.0491 -34.1826,59.85147 c -18.8004,32.91829 -34.1926,60.95525 -34.205,62.30433 -0.012,1.34909 0.759,3.32001 1.7141,4.37983 1.591,1.76554 7.5985,1.9349 71.7274,2.02216 51.676,0.0703 69.9909,-0.24559 69.9909,-1.20719 l 0,10e-6 z m 159.9792,-0.28939 c 0,-0.8755 0.7713,-1.88779 1.7141,-2.24956 0.9427,-0.36176 1.714,-1.45947 1.714,-2.43936 0,-0.97989 -15.6568,-28.825 -34.793,-61.87801 l -34.7929,-60.0964 -4.4343,-0.21504 -4.4342,-0.21505 -34.1918,59.86757 c -18.8055,32.92715 -34.2019,60.97136 -34.2143,62.32044 -0.012,1.34909 0.759,3.32001 1.7141,4.37983 1.591,1.76554 7.5985,1.9349 71.7274,2.02216 59.1087,0.0804 69.9909,-0.15226 69.9909,-1.49658 l 0,0 z m -466.0946,-7.75657 c 0.4847,-0.82913 16.2431,-28.22466 35.0185,-60.87896 l 34.1372,-59.37148 -2.3616,-3.71482 -2.3616,-3.71481 -68.9298,-0.0484 c -57.1541,-0.0401 -69.1994,0.22122 -70.5079,1.52966 -0.8679,0.86792 -1.3329,1.82308 -1.0334,2.12258 0.2995,0.29951 -0.191,1.15497 -1.0899,1.90104 -1.3698,1.13676 3.9272,11.11173 32.7021,61.58343 18.8852,33.12481 35.0362,60.79885 35.8912,61.49785 1.992,1.62861 7.3883,1.05572 8.5352,-0.90612 l 0,0 z m 159.6639,0.77699 c 0.4159,-0.41326 16.2348,-27.82536 35.1531,-60.91578 l 34.397,-60.16443 -1.9279,-3.45111 -1.9279,-3.45112 -69.6282,-0.29436 -69.6283,-0.29436 -2.1464,3.9856 -2.1464,3.9856 34.0362,59.7291 c 18.7199,32.85099 34.7376,60.30099 35.5948,60.99999 1.5962,1.30156 6.8676,1.21878 8.224,-0.12913 l 0,0 z m 159.9792,0 c 0.4159,-0.41326 16.2348,-27.82536 35.1531,-60.91578 l 34.397,-60.16443 -1.9279,-3.45111 -1.9278,-3.45112 -69.3943,-0.29455 c -63.8065,-0.27084 -69.5493,-0.1394 -71.3212,1.63244 -1.0598,1.05985 -1.7652,1.96373 -1.5675,2.00862 0.1977,0.0449 0.022,0.96077 -0.3903,2.03529 -0.5124,1.33537 10.0319,20.82785 33.3173,61.5915 18.7369,32.80079 34.6941,60.26488 35.4606,61.0313 1.3985,1.39855 6.786,1.38398 8.201,-0.0222 l 0,10e-6 z m -444.9932,-60.53963 34.6056,-60.54058 -1.9278,-3.45111 -1.9279,-3.45112 -69.3942,-0.29455 c -57.9768,-0.2461 -69.6553,-0.0335 -70.9811,1.29235 -0.8728,0.87279 -1.3419,1.83195 -1.0424,2.13146 0.2996,0.2995 -0.1895,1.15378 -1.0867,1.89838 -1.3653,1.13315 4.0477,11.29435 33.2073,62.33565 l 34.8386,60.9818 4.5514,-0.18085 4.5515,-0.18087 34.6057,-60.54056 z"
       id="path5369-1"
       inkscape:connector-curvature="0" />
    <path
       style="fill:#0000ff;fill-opacity:1;stroke:#0000ff;stroke-width:2.05511808;stroke-linejoin:round;stroke-miterlimit:4;stroke-opacity:1;stroke-dasharray:none;stroke-dashoffset:0"
       d="m 410.4242,575.45675 c 0,-0.31559 7.7821,-14.20088 17.2934,-30.8562 l 17.2934,-30.2824 -2.8537,-2.8537 -2.8537,-2.85371 -69.0358,0 c -65.3313,0 -69.1312,0.11153 -70.8154,2.07856 -0.9788,1.1432 -1.6634,2.87111 -1.5212,3.8398 0.1422,0.9687 5.1996,10.27974 11.2388,20.69121 6.0391,10.41147 10.9639,19.61071 10.9439,20.44275 -0.056,2.34957 -2.3672,-1.16978 -13.6672,-20.81573 -9.6658,-16.80484 -10.5935,-18.0224 -14.0354,-18.42088 -2.0271,-0.23469 -4.5734,-0.25407 -5.6586,-0.0431 -1.1819,0.22978 -6.3984,8.15272 -13.009,19.75848 -6.0698,10.65618 -11.4811,19.64996 -12.0252,19.98619 -2.5135,1.55347 -0.187,-3.30197 9.9854,-20.83906 6.036,-10.406 11.0971,-19.755 11.2468,-20.77556 0.1498,-1.02057 -0.4178,-2.5458 -1.2614,-3.3894 -2.2492,-2.24913 -1.8703,-6.81847 0.7516,-9.06333 1.2569,-1.07626 2.2854,-2.60712 2.2854,-3.40192 0,-0.7948 -15.7236,-28.59753 -34.9414,-61.78385 l -34.9413,-60.33877 -3.9108,0.45656 c -2.4816,0.28974 -3.9107,-0.0313 -3.9107,-0.87859 0,-0.73434 -0.4455,-1.05984 -0.99,-0.72333 -1.0352,0.6398 -4.3956,-2.50217 -4.7876,-4.47644 -0.1248,-0.62849 -0.4736,-1.78548 -0.7751,-2.5711 -0.3014,-0.78561 -0.1543,-2.32827 0.3269,-3.42812 0.4813,-1.09986 0.8138,-2.32418 0.739,-2.72071 -0.1432,-0.7589 4.464,-5.25299 4.7497,-4.63314 0.091,0.19769 1.0733,0.0114 2.1825,-0.41448 1.1093,-0.42566 2.9666,-0.52557 4.1274,-0.22202 1.7555,0.45909 7.9293,-9.63174 36.7019,-59.9878 l 34.5914,-60.53974 -1.8664,-3.91382 c -2.3285,-4.88287 -2.3285,-6.21785 0,-11.10073 l 1.8664,-3.91382 -34.6761,-60.688 c -28.9886,-50.73409 -35.0152,-60.58036 -36.7437,-60.03176 -5.3509,1.6983 -13.7385,-6.692978 -11.7833,-11.788318 0.424,-1.10495 0.7744,-2.26611 0.7786,-2.58035 0.018,-1.346 3.665,-4.46343 4.5684,-3.9051 0.5445,0.33652 0.99,0.0673 0.99,-0.5983 0,-0.66558 1.5426,-1.21015 3.4281,-1.21015 1.8855,0 3.4281,0.54457 3.4281,1.21015 0,0.66558 0.4455,0.93482 0.99,0.5983 0.5445,-0.33652 1.9098,0.40447 3.0339,1.64662 1.1241,1.24216 1.6703,2.25848 1.2138,2.25848 -0.4565,0 -0.059,0.77132 0.884,1.71406 2.5889,2.58896 139.1391,2.58896 141.2877,0 0.7825,-0.94274 1.0228,-1.71406 0.5342,-1.71406 -0.4886,0 0.031,-1.01632 1.1555,-2.25848 1.1242,-1.24215 2.4894,-1.98314 3.0339,-1.64662 0.5445,0.33652 0.99,0.0673 0.99,-0.5983 0,-0.66558 1.5426,-1.21015 3.4281,-1.21015 1.8855,0 3.4281,0.54457 3.4281,1.21015 0,0.66558 0.4455,0.93482 0.99,0.5983 0.5445,-0.33652 1.9098,0.40447 3.0339,1.64662 1.1242,1.24216 1.6704,2.25848 1.2138,2.25848 -0.4565,0 -0.059,0.77132 0.884,1.71406 1.4858,1.48584 10.9197,1.71406 70.8525,1.71406 67.8304,0 69.1521,-0.0427 69.8544,-2.25561 1.051,-3.31138 6.1326,-6.88606 9.789,-6.88606 3.4968,0 10.2179,4.95832 10.2179,7.53797 0,1.38542 10.168,1.57843 69.8981,1.32681 l 69.898,-0.29446 1.9552,-3.42813 c 1.0754,-1.88547 2.5313,-3.29957 3.2353,-3.14245 0.7041,0.15712 1.2801,-0.22854 1.2801,-0.85703 0,-0.62849 1.5427,-1.14271 3.4281,-1.14271 1.8855,0 3.4282,0.54457 3.4282,1.21015 0,0.66558 0.4225,0.94903 0.9388,0.62989 0.5164,-0.31914 1.7969,0.42184 2.8456,1.64663 1.0487,1.22478 1.6179,2.22688 1.2649,2.22688 -0.3529,0 0.1336,0.77532 1.0812,1.72294 1.5042,1.50422 10.5328,1.68555 71.1224,1.42838 l 69.3994,-0.29455 1.9552,-3.42813 c 1.0754,-1.88547 2.5313,-3.29957 3.2353,-3.14245 0.7041,0.15712 1.2801,-0.22854 1.2801,-0.85703 0,-0.62849 1.5427,-1.14271 3.4282,-1.14271 1.8854,0 3.4281,0.51422 3.4281,1.14271 0,0.62849 0.4582,1.01415 1.0183,0.85703 1.134,-0.31812 5.8379,4.65666 5.8379,6.17407 0,0.53232 11.0557,0.96786 24.5683,0.96786 15.617,0 24.5682,0.41634 24.5682,1.14271 0,0.72565 -8.788,1.14271 -24.0785,1.14271 -19.6185,0 -24.3884,0.30993 -25.7517,1.67325 -0.9203,0.92029 -1.7204,2.07728 -1.778,2.5711 -0.058,0.493808 -0.3437,1.520688 -0.6358,2.281958 -0.2921,0.76126 15.3285,28.74357 34.7124,62.18292 l 35.2436,60.79878 4.6087,0.20324 4.6087,0.20325 6.3951,-10.79217 c 3.5173,-5.93568 6.6876,-10.31887 7.0451,-9.7404 0.3575,0.57846 -2.2108,5.8237 -5.7073,11.65608 -5.7989,9.67297 -6.2284,10.84509 -4.8901,13.34568 1.4593,2.72663 1.5704,2.74134 20.7001,2.74134 16.3341,0 19.2329,0.25835 19.2329,1.71407 0,1.45436 -2.8567,1.71406 -18.8547,1.71406 -16.7589,0 -19.0875,0.23284 -20.9494,2.09473 -1.1521,1.1521 -1.9829,2.82332 -1.8461,3.71381 0.1367,0.89049 5.2376,10.2271 11.3354,20.74804 6.0978,10.52093 10.8872,19.72795 10.6432,20.46004 -0.2441,0.7321 -5.6953,-7.68933 -12.1138,-18.71426 -6.7109,-11.52713 -12.531,-20.2705 -13.6961,-20.57519 -1.1144,-0.29141 -3.0354,-0.14379 -4.2689,0.32805 -1.3684,0.52339 -16.1912,24.34087 -38.0179,61.0877 -34.2672,57.69107 -35.6927,60.32098 -33.8185,62.39192 1.0761,1.18914 1.5831,2.16207 1.1266,2.16207 -0.4566,0 -0.059,0.77133 0.8839,1.71407 1.4152,1.41515 5.9131,1.71406 25.7926,1.71406 15.2905,0 24.0785,0.41705 24.0785,1.14271 0,0.72565 -8.788,1.14271 -24.0785,1.14271 -23.012,0 -26.3811,0.42673 -27.0656,3.42812 -0.072,0.31425 -0.4676,1.45051 -0.88,2.52503 -0.5124,1.33547 9.9554,20.68046 33.081,61.13492 18.6069,32.54968 34.2623,59.86102 34.7898,60.69186 1.039,1.63642 6.1663,2.58451 7.9252,1.46547 0.5972,-0.37987 4.293,-7.11841 8.2131,-14.97454 7.809,-15.6497 7.7298,-15.51613 8.6502,-14.59573 0.3522,0.3522 -2.7735,7.45311 -6.946,15.77978 -5.8844,11.74296 -7.2458,15.35534 -6.0683,16.10186 0.835,0.52934 1.1325,0.97032 0.6611,0.97994 -0.4713,0.009 0.1715,1.04593 1.4284,2.30291 2.1008,2.10073 3.8091,2.28542 21.1401,2.28542 15.998,0 18.8547,0.2597 18.8547,1.71406 0,1.45576 -2.9002,1.71406 -19.2461,1.71406 l -19.2461,0 -1.9927,3.71381 -1.9927,3.7138 17.1671,29.9961 c 9.4419,16.49786 16.5568,29.99057 15.8109,29.98381 -0.7458,-0.007 -8.9439,-13.31855 -18.2179,-29.58175 -15.5452,-27.2604 -17.1307,-29.60889 -20.3048,-30.07475 -1.8936,-0.27792 -3.8905,0.0498 -4.4375,0.72835 -0.547,0.67851 -6.5275,12.28936 -13.29,25.80189 -6.7625,13.51253 -12.5025,23.97405 -12.7555,23.24783 -0.253,-0.72623 4.9659,-12.16293 11.5976,-25.41488 6.6318,-13.25196 12.0577,-24.88661 12.0577,-25.85479 0,-0.96817 -0.7713,-2.0563 -1.714,-2.41805 -0.9428,-0.36177 -1.7141,-1.37407 -1.7141,-2.24956 0,-2.27478 -139.2804,-2.30651 -141.2704,-0.0322 -3.7061,4.23564 -3.0828,5.82704 13.9306,35.56889 9.2115,16.10311 16.4346,29.59198 16.0513,29.97528 -0.9571,0.95708 0.2827,2.96195 -18.3547,-29.68008 -15.1801,-26.58689 -17.0949,-29.4378 -19.8544,-29.56007 -1.6797,-0.0744 -3.4938,-0.0563 -4.0313,0.0401 -0.5375,0.0964 -1.7337,-0.45234 -2.6582,-1.21959 -1.3387,-1.11101 -1.8877,-1.06102 -2.6969,0.24558 -0.5588,0.90232 -7.5901,12.80044 -15.6251,26.44025 -13.1507,22.3238 -16.3233,26.97983 -16.3233,23.95572 0,-0.52386 6.942,-12.60869 15.4266,-26.85517 8.4846,-14.24648 15.4266,-26.93045 15.4266,-28.1866 0,-2.25957 -0.7456,-2.28288 -69.9909,-2.18868 -64.5247,0.0878 -70.1248,0.2478 -71.705,2.0487 -0.9427,1.07441 -1.8601,2.80928 -2.0386,3.85527 -0.1785,1.04599 7.2057,15.06562 16.4092,31.15475 9.2035,16.08912 16.42,29.56656 16.0367,29.94986 -0.9569,0.95699 0.2762,2.95037 -18.2817,-29.55268 -15.4368,-27.03669 -16.9942,-29.33647 -20.1836,-29.80457 -1.9009,-0.27899 -4.1378,0.0494 -4.9709,0.72961 -0.8331,0.68028 -8.5319,13.57812 -17.1085,28.66187 -18.4239,32.40262 -17.5471,30.97192 -18.4357,30.08335 -0.387,-0.38699 7.11,-14.38593 16.6599,-31.10879 l 17.3635,-30.40518 -2.8537,-2.8537 -2.8537,-2.85371 -69.0357,0 c -64.6876,0 -69.1417,0.12757 -70.7181,2.02545 -0.9253,1.114 -1.8284,2.89172 -2.0069,3.9505 -0.1785,1.05876 7.2056,15.08886 16.4092,31.17799 9.2035,16.08912 16.42,29.56656 16.0367,29.94986 -0.957,0.95699 0.2762,2.95037 -18.2817,-29.55268 -14.9938,-26.26074 -17.0623,-29.34646 -19.9573,-29.77136 -1.7764,-0.26071 -3.7769,-0.29164 -4.4457,-0.0687 -0.6687,0.22291 -8.8251,13.74858 -18.1254,30.05703 -14.5084,25.44122 -18.7337,31.9996 -18.7337,29.0779 z m 31.8511,-73.17247 2.7121,-2.85884 -35.0671,-61.39877 -35.0671,-61.39878 -4.783,0.11739 -4.783,0.11739 -34.5114,59.87482 c -18.9813,32.93115 -34.5364,60.51758 -34.567,61.3032 -0.031,0.78561 0.5445,1.42838 1.2777,1.42838 0.7333,0 1.0326,0.30057 0.6652,0.66794 -0.3673,0.36736 0.1755,1.6529 1.2063,2.85677 1.8086,2.11231 4.2923,2.18815 71.0397,2.16909 l 69.1656,-0.0198 2.712,-2.85885 0,3e-5 z m 159.9792,0 2.7121,-2.85884 -35.073,-61.39877 -35.0729,-61.39878 -4.3044,-0.0491 -4.3045,-0.0491 -34.1826,59.85146 c -18.8004,32.91829 -34.1937,60.96534 -34.2072,62.32675 -0.014,1.36143 0.7435,3.3752 1.6823,4.47506 1.5912,1.8641 6.3984,1.9984 70.8726,1.97999 l 69.1656,-0.0198 2.712,-2.85885 0,2e-5 z m 158.9813,1.59592 c 0,-0.71632 0.8746,-1.94193 1.9435,-2.72355 1.7517,-1.28083 -1.5282,-7.4989 -33.2179,-62.97496 l -35.1615,-61.5538 -4.3044,-0.0491 -4.3045,-0.0491 -34.1826,59.85146 c -18.8004,32.91829 -34.1936,60.96534 -34.2072,62.32675 -0.014,1.36143 0.7435,3.3752 1.6823,4.47506 1.5913,1.86419 6.4535,1.99974 71.7297,1.99974 51.644,-1e-5 70.0226,-0.34185 70.0226,-1.30243 z m 159.9792,0 c 0,-0.71632 0.8746,-1.94193 1.9435,-2.72355 1.7517,-1.28083 -1.5288,-7.49913 -33.2222,-62.97496 l -35.1658,-61.5538 -4.8676,-0.13176 -4.8675,-0.13177 -35.572,59.85661 c -21.0941,35.49468 -35.3072,60.54679 -34.9213,61.55236 0.3579,0.93265 1.4527,1.69574 2.433,1.69574 0.9802,0 1.4823,0.29996 1.1156,0.66658 -0.3666,0.36663 0.1905,1.60932 1.238,2.76155 1.8053,1.98591 5.5478,2.09992 71.8954,2.19019 51.676,0.0703 69.9909,-0.24559 69.9909,-1.20719 l 0,0 z M 328.5596,436.23552 c 29.2039,-50.81564 35.0211,-61.64977 33.8556,-63.05412 -0.774,-0.93263 -1.0243,-1.6957 -0.5561,-1.6957 0.4682,0 0.2111,-0.77133 -0.5714,-1.71406 -1.2357,-1.48902 -10.4916,-1.71406 -70.4981,-1.71406 -63.1429,0 -69.2403,0.16474 -70.9937,1.91811 -1.0549,1.05497 -1.7564,1.95486 -1.5587,1.99974 0.1977,0.0449 0.014,0.98276 -0.409,2.08412 -0.5383,1.40302 9.0736,19.02067 32.1076,58.8495 18.0818,31.26585 34.0324,58.69275 35.4458,60.94866 5.3617,8.55779 4.4276,9.80435 43.178,-57.62219 l 0,0 z m 126.2455,60.37586 c 0.4159,-0.41326 16.2348,-27.82537 35.1531,-60.9158 l 34.397,-60.16441 -1.9279,-3.45112 -1.9279,-3.45112 -69.3942,-0.29456 c -57.9768,-0.24609 -69.6553,-0.0335 -70.9811,1.29235 -0.8728,0.8728 -1.3418,1.83196 -1.0423,2.13146 0.2995,0.29951 -0.191,1.15497 -1.0899,1.90103 -1.3698,1.13677 3.9272,11.11174 32.7021,61.58343 18.8852,33.12483 35.0362,60.79887 35.8912,61.49786 1.592,1.30157 6.8635,1.21876 8.2199,-0.12912 l 0,0 z m 159.9792,0 c 0.4159,-0.41326 16.2348,-27.82537 35.1531,-60.9158 l 34.397,-60.16441 -1.9279,-3.45112 -1.9278,-3.45112 -69.3943,-0.29456 c -57.9768,-0.24609 -69.6553,-0.0335 -70.9811,1.29235 -0.8728,0.8728 -1.3418,1.83196 -1.0423,2.13146 0.2995,0.29951 -0.191,1.15497 -1.0899,1.90103 -1.3697,1.13677 3.9272,11.11174 32.7022,61.58343 18.8851,33.12483 35.0361,60.79887 35.8911,61.49786 1.592,1.30157 6.8635,1.21876 8.2199,-0.12912 l 0,0 z m 193.2305,-62.09603 c 33.9088,-57.09841 35.454,-59.9493 34.0644,-62.84897 l -1.4557,-3.03745 -69.477,-0.29456 c -63.8842,-0.27084 -69.6322,-0.13943 -71.4041,1.63244 -1.0598,1.05985 -1.7652,1.96374 -1.5675,2.00862 0.1977,0.0449 0.01,0.99689 -0.4211,2.11555 -0.5529,1.44097 9.1325,19.42997 33.2233,61.70626 18.7021,32.8198 34.8114,60.32188 35.7983,61.11574 1.475,1.18642 2.1439,1.0847 3.7569,-0.57135 1.0794,-1.10811 17.9465,-28.92993 37.4825,-61.82628 l 0,0 z M 361.2877,364.0581 c 0.7825,-0.94274 1.0228,-1.71407 0.5342,-1.71407 -0.4886,0 -0.094,-0.89988 0.8778,-1.99974 1.6262,-1.84135 -0.9784,-6.79677 -32.8845,-62.5633 l -34.6506,-60.56356 -4.5572,-0.18107 -4.5573,-0.18106 -34.5053,60.42956 c -21.0866,36.92916 -34.2434,61.11225 -33.8318,62.18501 0.3705,0.9655 0.5592,1.89124 0.4192,2.05722 -0.1399,0.16596 0.5169,1.16945 1.4597,2.22995 1.5718,1.76813 7.4647,1.93179 70.9937,1.97165 60.2239,0.0378 69.4655,-0.18058 70.7021,-1.67059 z m 161.1396,-2.30841 1.9279,-3.45112 -34.5053,-60.36349 c -18.9779,-33.19993 -35.1371,-60.75398 -35.9093,-61.23125 -2.0053,-1.23936 -7.032,-0.49035 -8.6425,1.2878 -0.7528,0.83117 -16.648,28.17987 -35.3227,60.77489 -32.4808,56.69216 -33.8694,59.35727 -32.0021,61.42059 1.0736,1.18631 1.5949,2.15692 1.1585,2.15692 -0.4364,0 -0.1305,0.75443 0.6799,1.67652 1.2693,1.44427 11.1161,1.64214 71.0806,1.42838 l 69.6071,-0.24813 1.9279,-3.45111 0,0 z m 159.9792,0 1.9279,-3.45112 -34.5053,-60.36349 c -18.9779,-33.19993 -35.117,-60.74161 -35.8648,-61.20373 -1.151,-0.71136 -2.8672,-0.75482 -7.1296,-0.18049 -1.6771,0.22598 -69.7917,121.28125 -69.1633,122.91901 0.3705,0.9655 0.5592,1.89124 0.4193,2.05722 -0.14,0.16596 0.5169,1.17211 1.4596,2.23587 1.5795,1.7823 7.1772,1.91463 71.3212,1.68597 l 69.6071,-0.24813 1.9279,-3.45111 0,0 z m 159.9792,0 1.9279,-3.45112 -34.5053,-60.36349 c -18.9779,-33.19993 -35.1371,-60.75398 -35.9093,-61.23125 -1.7021,-1.05199 -6.9184,-0.58991 -8.0652,0.71444 -2.3574,2.68126 -67.9153,118.86126 -68.3479,121.12444 -0.3185,1.66585 0.039,2.65861 0.9581,2.65861 0.8065,0 1.1545,0.31191 0.7733,0.69313 -0.3812,0.3812 -0.081,1.39274 0.6666,2.24786 1.1233,1.28448 13.4602,1.51161 70.9668,1.30662 l 69.6072,-0.24813 1.9278,-3.45111 0,0 z m -467.821,-5.56662 c 0.8636,-0.78807 67.4123,-117.48083 68.2439,-119.6653 0.9211,-2.41947 0.7052,-3.44793 -1.1394,-5.42787 l -2.2758,-2.44278 -69.0747,0 -69.0748,0 -2.0682,3.84048 -2.0683,3.8405 34.6364,60.60839 34.6364,60.60837 4.0243,-0.61892 c 2.2134,-0.34042 4.0855,-0.6747 4.1602,-0.74287 l 0,0 z m 195.3423,-60.40336 35.0862,-61.42214 -2.8552,-2.85522 -2.8552,-2.85523 -69.0357,0 c -64.3363,0 -69.152,0.13613 -70.7428,1.99974 -0.9388,1.09986 -1.6958,3.11363 -1.6823,4.47505 0.014,1.36141 15.4068,29.40847 34.2072,62.32676 l 34.1826,59.85146 4.3045,-0.0491 4.3044,-0.0491 35.0863,-61.42214 0,-10e-6 z m 160.081,-0.17826 c 31.3197,-54.82836 34.9715,-61.73701 33.2179,-62.84313 -1.0835,-0.68351 -1.9701,-1.88814 -1.9701,-2.67698 0,-1.13482 -14.5514,-1.43422 -69.7052,-1.43422 -65.1568,0 -69.8372,0.13195 -71.7274,2.02216 -1.1122,1.11219 -2.0121,3.12596 -1.9998,4.47505 0.012,1.34908 15.4046,29.38605 34.205,62.30434 l 34.1826,59.85146 4.3045,-0.0491 4.3044,-0.0491 35.1881,-61.6004 0,-1e-5 z m 120.4033,61.40851 c 3.9742,-0.56147 4.4591,-1.30038 39.4234,-60.06958 19.4699,-32.72561 35.5605,-59.90455 35.7569,-60.39764 0.1964,-0.4931 -0.6607,-1.82856 -1.9045,-2.96769 -1.2439,-1.13914 -2.3045,-2.71393 -2.3569,-3.49955 -0.075,-1.12605 -14.8488,-1.42838 -69.8004,-1.42838 -65.1568,0 -69.8372,0.13195 -71.7274,2.02216 -1.1122,1.11219 -2.0121,3.05501 -1.9998,4.31737 0.012,1.26237 15.449,29.38879 34.3037,62.50316 18.8547,33.11436 34.2813,60.18108 34.2813,60.14827 0,-0.0328 1.8106,-0.31546 4.0237,-0.62812 l 0,0 z m -408.116,-134.6893 2.7121,-2.85884 -35.0831,-61.42474 -35.0831,-61.42475 -4.3037,0 -4.3037,0 -34.5532,60.46285 -34.5532,60.46283 2.0683,3.8405 2.0682,3.84048 69.1597,-0.0198 69.1597,-0.0198 2.712,-2.85886 0,6e-5 z m 159.9804,-0.001 2.7132,-2.86004 -34.7467,-60.82627 -34.7467,-60.82623 -4.9637,0 -4.9636,0 -34.7592,60.46436 c -25.8125,44.90131 -34.3783,60.70597 -33.2794,61.40308 0.8138,0.51631 1.0991,0.94662 0.6339,0.95624 -0.4652,0.009 0.035,1.04594 1.111,2.30292 1.9172,2.2391 3.3583,2.28501 71.1224,2.26567 l 69.1656,-0.0198 2.7132,-2.86005 0,9e-5 z m 158.9801,1.59706 c 0,-0.71632 0.8746,-1.94193 1.9435,-2.72356 1.7517,-1.28082 -1.5282,-7.4989 -33.2179,-62.97494 l -35.1615,-61.55381 -4.3044,-0.0491 -4.3045,-0.0491 -34.1826,59.85147 c -18.8004,32.91829 -34.1926,60.95525 -34.205,62.30433 -0.012,1.34909 0.759,3.32001 1.7141,4.37983 1.591,1.76554 7.5985,1.9349 71.7274,2.02216 51.676,0.0703 69.9909,-0.24559 69.9909,-1.20719 l 0,1e-5 z m 159.9792,-0.28939 c 0,-0.8755 0.7713,-1.88779 1.7141,-2.24956 0.9427,-0.36176 1.714,-1.45947 1.714,-2.43936 0,-0.97989 -15.6568,-28.825 -34.793,-61.87801 l -34.7929,-60.0964 -4.4343,-0.21504 -4.4342,-0.21505 -34.1918,59.86757 c -18.8055,32.92715 -34.2019,60.97136 -34.2143,62.32044 -0.012,1.34909 0.759,3.32001 1.7141,4.37983 1.591,1.76554 7.5985,1.9349 71.7274,2.02216 59.1087,0.0804 69.9909,-0.15226 69.9909,-1.49658 l 0,0 z m -466.0946,-7.75657 c 0.4847,-0.82913 16.2431,-28.22466 35.0185,-60.87896 l 34.1372,-59.37148 -2.3616,-3.714818 -2.3616,-3.71481 -68.9298,-0.0484 c -57.1541,-0.0401 -69.1994,0.22122 -70.5079,1.52966 -0.8679,0.86792 -1.3329,1.82308 -1.0334,2.12258 0.2995,0.29951 -0.191,1.154968 -1.0899,1.901038 -1.3698,1.13676 3.9272,11.11173 32.7021,61.58343 18.8852,33.12481 35.0362,60.79885 35.8912,61.49785 1.992,1.62861 7.3883,1.05572 8.5352,-0.90612 l 0,0 z m 159.6639,0.77699 c 0.4159,-0.41326 16.2348,-27.82536 35.1531,-60.91578 l 34.397,-60.16443 -1.9279,-3.451108 -1.9279,-3.45112 -69.6282,-0.29436 -69.6283,-0.29436 -2.1464,3.9856 -2.1464,3.985598 34.0362,59.7291 c 18.7199,32.85099 34.7376,60.30099 35.5948,60.99999 1.5962,1.30156 6.8676,1.21878 8.224,-0.12913 l 0,0 z m 159.9792,0 c 0.4159,-0.41326 16.2348,-27.82536 35.1531,-60.91578 l 34.397,-60.16443 -1.9279,-3.451108 -1.9278,-3.45112 -69.3943,-0.29455 c -63.8065,-0.27084 -69.5493,-0.1394 -71.3212,1.63244 -1.0598,1.05985 -1.7652,1.96373 -1.5675,2.00862 0.1977,0.0449 0.022,0.960768 -0.3903,2.035288 -0.5124,1.33537 10.0319,20.82785 33.3173,61.5915 18.7369,32.80079 34.6941,60.26488 35.4606,61.0313 1.3985,1.39855 6.786,1.38398 8.201,-0.0222 l 0,1e-5 z m -444.9932,-60.53963 34.6056,-60.54058 -1.9278,-3.451108 -1.9279,-3.45112 -69.3942,-0.29455 c -57.9768,-0.2461 -69.6553,-0.0335 -70.9811,1.29235 -0.8728,0.87279 -1.3419,1.83195 -1.0424,2.13146 0.2996,0.2995 -0.1895,1.153778 -1.0867,1.898378 -1.3653,1.13315 4.0477,11.29435 33.2073,62.33565 l 34.8386,60.9818 4.5514,-0.18085 4.5515,-0.18087 34.6057,-60.54056 z"
       id="path5369-1-5"
       inkscape:connector-curvature="0" />
    <text
       xml:space="preserve"
       style="font-size:36px;font-style:normal;font-variant:normal;font-weight:normal;font-stretch:normal;text-align:start;line-height:125%;letter-spacing:0px;word-spacing:0px;writing-mode:lr-tb;text-anchor:start;fill:#ff0000;fill-opacity:1;stroke:#ff0000;stroke-width:0.99921262;stroke-miterlimit:4;stroke-dasharray:none;font-family:Sans;-inkscape-font-specification:Sans"
       x="-20"
       y="44.094482"
       id="text6175"
       sodipodi:linespacing="125%"><tspan
         sodipodi:role="line"
         id="tspan6177"
         x="-20"
         y="44.094482">(0,0,0)</tspan></text>
    <text
       xml:space="preserve"
       style="font-size:36px;font-style:normal;font-variant:normal;font-weight:normal;font-stretch:normal;text-align:start;line-height:125%;letter-spacing:0px;word-spacing:0px;writing-mode:lr-tb;text-anchor:start;fill:#008000;fill-opacity:1;stroke:#008000;font-family:Sans;-inkscape-font-specification:Sans"
       x="-20"
       y="144.09448"
       id="text6200"
       sodipodi:linespacing="125%"><tspan
         sodipodi:role="line"
         id="tspan6202"
         x="-20"
         y="144.09448">(0,0,1)</tspan></text>
    <text
       xml:space="preserve"
       style="font-size:36px;font-style:normal;font-variant:normal;font-weight:normal;font-stretch:normal;text-align:start;line-height:125%;letter-spacing:0px;word-spacing:0px;writing-mode:lr-tb;text-anchor:start;fill:#0000ff;fill-opacity:1;stroke:#0000ff;font-family:Sans;-inkscape-font-specification:Sans"
       x="60"
       y="104.09448"
       id="text6204"
       sodipodi:linespacing="125%"><tspan
         sodipodi:role="line"
         id="tspan6206"
         x="60"
         y="104.09448">(0,0,2)</tspan></text>
  </g>
</svg>
