<?xml version="1.0" standalone="no"?>
<!DOCTYPE svg PUBLIC "-//W3C//DTD SVG 1.1//EN" 
  "http://www.w3.org/Graphics/SVG/1.1/DTD/svg11.dtd">
<svg width="20cm" height="5cm" viewBox="0 0 256 64"
     xmlns="http://www.w3.org/2000/svg" version="1.1">
  <title>Mamba Logo</title>
  <desc>Logo of the Mamba Image API</desc>
  
  <!-- The underline -->
<!--  <line x1="0" y1="54" x2="256" y2="54"-->
<!--            stroke-width="2" stroke="#0c5aa6" />-->
  
  <!-- The snake body -->
  <path d="M 44 49 47 47 54 47
        A 1,1 0 0,0 55,46
        L 55 15 74 15 74 24
        A 2,2 0 0,0 77 24
        L 77 15 96 15 96 46
        A 1,1 0 0,0 97 47
        L 111 47 
        A 2,2 0 0,0 111 44
        L 102 44 102 25 123 25 123 46
        A 1,1 0 0,0 124 47
        L 128 47
        A 1,1 0 0,0 129 46
        L 129 25 150 25 150 34
        A 2,2 0 0,0 153 34
        L 153 25 174 25 174 46
        A 1,1 0 0,0 175 47
        L 179 47
        A 1,1 0 0,0 180 46
        L 180 15 191 15 191 24
        A 1,1 0 0,0 192 25
        L 201 25 201 44 192 44
        A 2,2 0 0,0 192 47
        L 216 47 
        A 2,2 0 0,0 216 44
        L 207 44 207 25 228 25 228 46
        A 1,1 0 0,0 229 47
        L 239 47
        A 1,1 0 0,0 240 46
        L 243 46 243 47
        A 1,1 0 0,0 244 48
        L 244 50
        A 1,1 0 0,0 243 51
        L 224 51 224 30
        A 1,1 0 0,0 223 29
        L 212 29
        A 1,1 0 0,0 211 30
        L 211 39
        A 1,1 0 0,0 212 40
        L 221 40 221 51 187 51 187 40 196 40
        A 1,1 0 0,0 197 39
        L 197 30
        A 1,1 0 0,0 196 29
        L 187 29 187 20
        A 2,2 0 0,0 184 20
        L 184 51 170 51 170 30
        A 1,1 0 0,0 169 29
        L 158 29
        A 1,1 0 0,0 157 30
        L 157 39 146 39 146 30
        A 1,1 0 0,0 145 29
        L 134 29
        A 1,1 0 0,0 133 30
        L 133 51 119 51 119 30
        A 1,1 0 0,0 118 29
        L 107 29
        A 1,1 0 0,0 106 30
        L 106 39
        A 1,1 0 0,0 107 40
        L 116 40 116 51 92 51 92 20
        A 1,1 0 0,0 91 19
        L 82 19
        A 1,1 0 0,0 81 20
        L 81 29 70 29 70 20
        A 1,1 0 0,0 69 19
        L 60 19
        A 1,1 0 0,0 59 20
        L 59 51 47 51 z"
        fill="#FFC640" stroke="#A67A15" stroke-width="1" />
<!--        fill="#408ad2" stroke="#0c5aa6" stroke-width="1" />-->
  <!-- The snake eye -->
  <path d="M 241 47 241 48 z"
        fill="#000000" stroke="#000000" stroke-width="1" />
        
  <!-- The erode sign body -->
  <path d="M 43 35 41 38 41 41 39 43 39 46
        A 1,1 0 0,1 38 47
        L 15 47
        A 1,1 0 0,1 14 46
        L 14 43 12 41 12 25 14 23 14 20
        A 1,1 0 0,1 15 19
        L 38 19
        A 1,1 0 0,1 39 20
        L 39 23 41 25 41 30
        A 1,1 0 0,1 40 31
        L 18 31
        A 1,1 0 0,1 17 30
        L 14 30 14 31
        A 1,1 0 0,1 13 32
        L 13 34
        A 1,1 0 0,1 14 35
        L 45 35 45 25 43 23 43 20 41 18 41 16
        A 1,1 0 0,0 40 15
        L 13 15
        A 1,1 0 0,0 12 16
        L 12 18 10 20 10 23 8 25 8 41 10 43 10 46 12 48 12 50
        A 1,1 0 0,0 13 51
        L 40 51
        A 1,1 0 0,0 41 50
        L 41 48 43 46 43 43 45 41 45 38
        z"
        fill="#FFC640" stroke="#A67A15" stroke-width="1" />
  <!-- The erode sign eye -->
  <path d="M 16 31 16 32 z"
        fill="#000000" stroke="#000000" stroke-width="1" />
        
</svg>
