<?xml version="1.0" encoding="UTF-8" standalone="no"?>
<!-- Created with Inkscape (http://www.inkscape.org/) -->

<svg
   xmlns:dc="http://purl.org/dc/elements/1.1/"
   xmlns:cc="http://creativecommons.org/ns#"
   xmlns:rdf="http://www.w3.org/1999/02/22-rdf-syntax-ns#"
   xmlns:svg="http://www.w3.org/2000/svg"
   xmlns="http://www.w3.org/2000/svg"
   xmlns:sodipodi="http://sodipodi.sourceforge.net/DTD/sodipodi-0.dtd"
   xmlns:inkscape="http://www.inkscape.org/namespaces/inkscape"
   width="481.70404"
   height="508.13953"
   id="svg2"
   version="1.1"
   inkscape:version="0.48.5 r"
   sodipodi:docname="Cuboc_on_cubic.svg">
  <defs
     id="defs4" />
  <sodipodi:namedview
     id="base"
     pagecolor="#ffffff"
     bordercolor="#666666"
     borderopacity="1.0"
     inkscape:pageopacity="0.0"
     inkscape:pageshadow="2"
     inkscape:zoom="1.5587626"
     inkscape:cx="195.27532"
     inkscape:cy="340.56503"
     inkscape:document-units="px"
     inkscape:current-layer="layer1"
     showgrid="false"
     inkscape:window-width="1360"
     inkscape:window-height="706"
     inkscape:window-x="-8"
     inkscape:window-y="-8"
     inkscape:window-maximized="1"
     inkscape:snap-object-midpoints="true"
     fit-margin-top="1"
     fit-margin-left="1"
     fit-margin-right="1"
     fit-margin-bottom="1" />
  <metadata
     id="metadata7">
    <rdf:RDF>
      <cc:Work
         rdf:about="">
        <dc:format>image/svg+xml</dc:format>
        <dc:type
           rdf:resource="http://purl.org/dc/dcmitype/StillImage" />
        <dc:title />
      </cc:Work>
    </rdf:RDF>
  </metadata>
  <g
     inkscape:label="Calque 1"
     inkscape:groupmode="layer"
     id="layer1"
     transform="translate(-176.77192,-486.91172)">
    <g
       id="g5249"
       transform="translate(12.88081,408.32168)">
      <path
         inkscape:connector-curvature="0"
         id="path4100"
         d="M 487.19683,379.115 322.28942,567.1219"
         style="fill:none;stroke:#808080;stroke-width:4;stroke-linecap:butt;stroke-linejoin:miter;stroke-miterlimit:4;stroke-opacity:1;stroke-dasharray:none" />
      <path
         inkscape:connector-curvature="0"
         id="path4098"
         d="m 265.5946,192.20116 10e-6,280.91729"
         style="fill:none;stroke:#808080;stroke-width:4;stroke-linecap:butt;stroke-linejoin:miter;stroke-miterlimit:4;stroke-opacity:1;stroke-dasharray:none" />
      <path
         inkscape:connector-curvature="0"
         id="path4094"
         d="M 348.04831,379.115 183.14091,567.1219"
         style="fill:none;stroke:#808080;stroke-width:4;stroke-linecap:butt;stroke-linejoin:miter;stroke-miterlimit:4;stroke-opacity:1;stroke-dasharray:none" />
      <path
         inkscape:connector-curvature="0"
         id="path4092"
         d="M 487.19681,240.29595 404.74313,334.2994"
         style="fill:none;stroke:#808080;stroke-width:4;stroke-linecap:butt;stroke-linejoin:miter;stroke-miterlimit:4;stroke-opacity:1;stroke-dasharray:none" />
      <path
         inkscape:connector-curvature="0"
         id="path4090"
         d="m 348.04831,240.29595 -164.9074,186.3673"
         style="fill:none;stroke:#808080;stroke-width:4;stroke-linecap:butt;stroke-linejoin:miter;stroke-miterlimit:4;stroke-opacity:1;stroke-dasharray:none" />
      <path
         inkscape:connector-curvature="0"
         id="path4084"
         d="m 348.04831,240.29595 278.29704,0"
         style="fill:none;stroke:#cccccc;stroke-width:4;stroke-linecap:butt;stroke-linejoin:miter;stroke-miterlimit:4;stroke-opacity:1;stroke-dasharray:none" />
      <path
         inkscape:connector-curvature="0"
         id="path4082"
         d="m 348.04831,379.115 278.29704,0"
         style="fill:none;stroke:#b3b3b3;stroke-width:4;stroke-linecap:butt;stroke-linejoin:miter;stroke-miterlimit:4;stroke-opacity:1;stroke-dasharray:none" />
      <path
         inkscape:connector-curvature="0"
         id="path4080"
         d="m 487.19684,98.197692 -3e-5,280.917308"
         style="fill:none;stroke:#b3b3b3;stroke-width:4;stroke-linecap:butt;stroke-linejoin:miter;stroke-miterlimit:4;stroke-opacity:1;stroke-dasharray:none" />
      <path
         inkscape:connector-curvature="0"
         id="path4078"
         d="m 348.04831,98.197706 0,280.917294"
         style="fill:#808080;stroke:#b3b3b3;stroke-width:4;stroke-linecap:butt;stroke-linejoin:miter;stroke-miterlimit:4;stroke-opacity:1;stroke-dasharray:none" />
      <path
         transform="matrix(1,0,0,1.0820776,194.00005,-52.957025)"
         style="fill:#e2e3db;stroke:#000000;stroke-width:1.10000002;stroke-miterlimit:4;stroke-opacity:1;stroke-dasharray:none"
         d="m 171.72593,271.00919 c 0,9.20521 -7.91456,16.66751 -17.67767,16.66751 -9.7631,0 -17.67767,-7.4623 -17.67767,-16.66751 0,-9.20522 7.91457,-16.66752 17.67767,-16.66752 9.76311,0 17.67767,7.4623 17.67767,16.66752 z"
         sodipodi:ry="16.667517"
         sodipodi:rx="17.67767"
         sodipodi:cy="271.00919"
         sodipodi:cx="154.04826"
         id="path2985-71"
         sodipodi:type="arc" />
      <path
         transform="matrix(1,0,0,1.0820776,333.14855,-52.957025)"
         style="fill:#e2e3db;fill-opacity:1;stroke:#000000;stroke-width:1.10000002;stroke-miterlimit:4;stroke-opacity:1;stroke-dasharray:none"
         d="m 171.72593,271.00919 c 0,9.20521 -7.91456,16.66751 -17.67767,16.66751 -9.7631,0 -17.67767,-7.4623 -17.67767,-16.66751 0,-9.20522 7.91457,-16.66752 17.67767,-16.66752 9.76311,0 17.67767,7.4623 17.67767,16.66752 z"
         sodipodi:ry="16.667517"
         sodipodi:rx="17.67767"
         sodipodi:cy="271.00919"
         sodipodi:cx="154.04826"
         id="path2985-1-1"
         sodipodi:type="arc" />
      <path
         transform="matrix(1,0,0,1.0820776,194.00005,85.862023)"
         style="fill:#0000ff;fill-opacity:1;stroke:#000000;stroke-width:1.10000002;stroke-miterlimit:4;stroke-opacity:1;stroke-dasharray:none"
         d="m 171.72593,271.00919 c 0,9.20521 -7.91456,16.66751 -17.67767,16.66751 -9.7631,0 -17.67767,-7.4623 -17.67767,-16.66751 0,-9.20522 7.91457,-16.66752 17.67767,-16.66752 9.76311,0 17.67767,7.4623 17.67767,16.66752 z"
         sodipodi:ry="16.667517"
         sodipodi:rx="17.67767"
         sodipodi:cy="271.00919"
         sodipodi:cx="154.04826"
         id="path2985-18"
         sodipodi:type="arc" />
      <path
         inkscape:connector-curvature="0"
         id="path4086"
         d="m 265.5946,334.2994 278.29705,1e-5"
         style="fill:none;stroke:#808080;stroke-width:4;stroke-linecap:butt;stroke-linejoin:miter;stroke-miterlimit:4;stroke-opacity:1;stroke-dasharray:none" />
      <path
         transform="matrix(1,0,0,1.0820776,333.14855,85.862023)"
         style="fill:#0000ff;fill-opacity:1;stroke:#000000;stroke-width:1.10000002;stroke-miterlimit:4;stroke-opacity:1;stroke-dasharray:none"
         d="m 171.72593,271.00919 c 0,9.20521 -7.91456,16.66751 -17.67767,16.66751 -9.7631,0 -17.67767,-7.4623 -17.67767,-16.66751 0,-9.20522 7.91457,-16.66752 17.67767,-16.66752 9.76311,0 17.67767,7.4623 17.67767,16.66752 z"
         sodipodi:ry="16.667517"
         sodipodi:rx="17.67767"
         sodipodi:cy="271.00919"
         sodipodi:cx="154.04826"
         id="path2985-1-9"
         sodipodi:type="arc" />
      <path
         inkscape:connector-curvature="0"
         id="path4074"
         d="M 626.34535,240.29595 461.43794,428.30286"
         style="fill:none;stroke:#000000;stroke-width:4;stroke-linecap:butt;stroke-linejoin:miter;stroke-miterlimit:4;stroke-opacity:1;stroke-dasharray:none" />
      <path
         inkscape:connector-curvature="0"
         id="path4076"
         d="m 543.89166,192.20115 -2e-5,280.9173"
         style="fill:none;stroke:#000000;stroke-width:4;stroke-linecap:butt;stroke-linejoin:miter;stroke-miterlimit:4;stroke-opacity:1;stroke-dasharray:none" />
      <text
         sodipodi:linespacing="125%"
         id="text4170"
         y="386.88696"
         x="474.62845"
         style="font-size:22px;font-style:normal;font-weight:bold;line-height:125%;letter-spacing:0px;word-spacing:0px;fill:#ffffff;fill-opacity:1;stroke:#ffffff;font-family:Sans;-inkscape-font-specification:Sans Bold"
         xml:space="preserve"><tspan
           y="386.88696"
           x="474.62845"
           id="tspan4172"
           sodipodi:role="line">10</tspan></text>
      <path
         inkscape:connector-curvature="0"
         id="path4244"
         d="m 543.89165,192.20116 82.4537,48.09479 -82.45371,232.8225 -82.45369,-46.4552 z"
         style="fill:#ff00ff;stroke:#800080;stroke-width:5;stroke-linecap:butt;stroke-linejoin:miter;stroke-miterlimit:4;stroke-opacity:1;stroke-dasharray:none" />
      <path
         inkscape:connector-curvature="0"
         id="path4042"
         d="m 322.28941,286.20461 164.90741,-188.006918 0,0 0,0"
         style="fill:#000000;fill-opacity:0;stroke:#2b0000;stroke-width:4.16091824;stroke-linecap:butt;stroke-linejoin:miter;stroke-miterlimit:4;stroke-opacity:1;stroke-dasharray:none" />
      <path
         inkscape:connector-curvature="0"
         id="path4044"
         d="M 348.04831,98.197692 C 183.14091,286.20461 183.14091,286.20461 183.14091,286.20461"
         style="fill:#b3b3b3;stroke:#b3b3b3;stroke-width:4.16091824;stroke-linecap:butt;stroke-linejoin:miter;stroke-miterlimit:4;stroke-opacity:1;stroke-dasharray:none" />
      <path
         inkscape:connector-curvature="0"
         id="path4054"
         d="m 348.04831,98.197692 278.29705,0"
         style="fill:#b3b3b3;stroke:#b3b3b3;stroke-width:4.16091824;stroke-linecap:butt;stroke-linejoin:miter;stroke-miterlimit:4;stroke-opacity:1;stroke-dasharray:none" />
      <path
         inkscape:connector-curvature="0"
         id="path4056"
         d="m 265.59461,192.20115 278.29704,0 0,0"
         style="fill:none;stroke:#000000;stroke-width:4.16091824;stroke-linecap:butt;stroke-linejoin:miter;stroke-miterlimit:4;stroke-opacity:1;stroke-dasharray:none" />
      <text
         sodipodi:linespacing="125%"
         id="text4158"
         y="342.06601"
         x="259.49841"
         style="font-size:22px;font-style:normal;font-weight:bold;line-height:125%;letter-spacing:0px;word-spacing:0px;fill:#000000;fill-opacity:1;stroke:none;font-family:Sans;-inkscape-font-specification:Sans Bold"
         xml:space="preserve"><tspan
           y="342.06601"
           x="259.49841"
           id="tspan4160"
           sodipodi:role="line">7</tspan></text>
      <path
         transform="matrix(1,0,0,1.0820776,111.54634,41.046428)"
         style="fill:#e2e3db;fill-opacity:1;stroke:#000000;stroke-width:1.10000002;stroke-miterlimit:4;stroke-opacity:1;stroke-dasharray:none"
         d="m 171.72593,271.00919 c 0,9.20521 -7.91456,16.66751 -17.67767,16.66751 -9.7631,0 -17.67767,-7.4623 -17.67767,-16.66751 0,-9.20522 7.91457,-16.66752 17.67767,-16.66752 9.76311,0 17.67767,7.4623 17.67767,16.66752 z"
         sodipodi:ry="16.667517"
         sodipodi:rx="17.67767"
         sodipodi:cy="271.00919"
         sodipodi:cx="154.04826"
         id="path2985-4-2"
         sodipodi:type="arc" />
      <path
         inkscape:connector-curvature="0"
         id="path4254"
         d="m 265.5946,192.20116 56.69483,94.00345 -139.14852,142.09825 z"
         style="fill:#ff00ff;stroke:#800080;stroke-width:5;stroke-linecap:butt;stroke-linejoin:miter;stroke-miterlimit:4;stroke-opacity:1;stroke-dasharray:none" />
      <text
         sodipodi:linespacing="125%"
         id="text4122"
         y="248.92094"
         x="481.52493"
         style="font-size:22px;font-style:normal;font-weight:bold;line-height:125%;letter-spacing:0px;word-spacing:0px;fill:#000000;fill-opacity:1;stroke:none;font-family:Sans;-inkscape-font-specification:Sans Bold"
         xml:space="preserve"><tspan
           y="248.92094"
           x="481.52493"
           id="tspan4124"
           sodipodi:role="line">1</tspan></text>
      <path
         transform="matrix(1,0,0,1.0820776,250.69486,41.046428)"
         style="fill:#e2e3db;fill-opacity:1;stroke:#000000;stroke-width:1.10000002;stroke-miterlimit:4;stroke-opacity:1;stroke-dasharray:none"
         d="m 171.72593,271.00919 c 0,9.20521 -7.91456,16.66751 -17.67767,16.66751 -9.7631,0 -17.67767,-7.4623 -17.67767,-16.66751 0,-9.20522 7.91457,-16.66752 17.67767,-16.66752 9.76311,0 17.67767,7.4623 17.67767,16.66752 z"
         sodipodi:ry="16.667517"
         sodipodi:rx="17.67767"
         sodipodi:cy="271.00919"
         sodipodi:cx="154.04826"
         id="path2985-1-0-7"
         sodipodi:type="arc" />
      <path
         inkscape:connector-curvature="0"
         id="path4096"
         d="M 404.74312,334.2994 322.2894,428.30286"
         style="fill:#808080;stroke:#808080;stroke-width:4;stroke-linecap:butt;stroke-linejoin:miter;stroke-miterlimit:4;stroke-opacity:1;stroke-dasharray:none" />
      <text
         sodipodi:linespacing="125%"
         id="text4134"
         y="342.07138"
         x="398.70602"
         style="font-size:22px;font-style:normal;font-weight:bold;line-height:125%;letter-spacing:0px;word-spacing:0px;fill:#000000;fill-opacity:1;stroke:none;font-family:Sans;-inkscape-font-specification:Sans Bold"
         xml:space="preserve"><tspan
           y="342.07138"
           x="398.70602"
           id="tspan4136"
           sodipodi:role="line">0</tspan></text>
      <path
         inkscape:connector-curvature="0"
         id="path4248"
         d="m 322.28941,286.20461 221.60224,-94.00345 0,0 -82.4537,234.46209 0,0 -139.14854,-140.45864 z"
         style="fill:#ff00ff;stroke:#800080;stroke-width:5;stroke-linecap:butt;stroke-linejoin:miter;stroke-miterlimit:4;stroke-opacity:1;stroke-dasharray:none" />
      <path
         inkscape:connector-curvature="0"
         id="path4058"
         d="m 183.14091,286.20461 278.29704,0"
         style="fill:none;stroke:#b3b3b3;stroke-width:4.16091824;stroke-linecap:butt;stroke-linejoin:miter;stroke-miterlimit:4;stroke-opacity:1;stroke-dasharray:none" />
      <path
         transform="matrix(1,0,0,1.0820776,194.00005,-195.05526)"
         style="fill:#b3b3b3;fill-opacity:1;stroke:#b3b3b3;stroke-width:1.10000002;stroke-miterlimit:4;stroke-opacity:1;stroke-dasharray:none"
         d="m 171.72593,271.00919 c 0,9.20521 -7.91456,16.66751 -17.67767,16.66751 -9.7631,0 -17.67767,-7.4623 -17.67767,-16.66751 0,-9.20522 7.91457,-16.66752 17.67767,-16.66752 9.76311,0 17.67767,7.4623 17.67767,16.66752 z"
         sodipodi:ry="16.667517"
         sodipodi:rx="17.67767"
         sodipodi:cy="271.00919"
         sodipodi:cx="154.04826"
         id="path2985"
         sodipodi:type="arc" />
      <text
         sodipodi:linespacing="125%"
         id="text4162"
         y="248.06255"
         x="341.97897"
         style="font-size:22px;font-style:normal;font-weight:bold;line-height:125%;letter-spacing:0px;word-spacing:0px;fill:#000000;fill-opacity:1;stroke:none;font-family:Sans;-inkscape-font-specification:Sans Bold"
         xml:space="preserve"><tspan
           y="248.06255"
           x="341.97897"
           id="tspan4164"
           sodipodi:role="line">8</tspan></text>
      <path
         inkscape:connector-curvature="0"
         id="path4240"
         d="M 265.59461,192.20115 487.19682,98.197706 543.89166,192.20115 322.28943,286.20461 265.59461,192.20115"
         style="fill:#ff00ff;stroke:#800080;stroke-width:5;stroke-linecap:butt;stroke-linejoin:miter;stroke-miterlimit:4;stroke-opacity:1;stroke-dasharray:none" />
      <path
         transform="matrix(1,0,0,1.0820776,250.69486,-101.05181)"
         style="fill:#d40000;stroke:#000000;stroke-width:1.10000002;stroke-miterlimit:4;stroke-opacity:1;stroke-dasharray:none"
         d="m 171.72593,271.00919 c 0,9.20521 -7.91456,16.66751 -17.67767,16.66751 -9.7631,0 -17.67767,-7.4623 -17.67767,-16.66751 0,-9.20522 7.91457,-16.66752 17.67767,-16.66752 9.76311,0 17.67767,7.4623 17.67767,16.66752 z"
         sodipodi:ry="16.667517"
         sodipodi:rx="17.67767"
         sodipodi:cy="271.00919"
         sodipodi:cx="154.04826"
         id="path2985-1-0"
         sodipodi:type="arc" />
      <path
         inkscape:connector-curvature="0"
         id="path4060"
         d="m 183.14091,286.20461 0,280.91729"
         style="fill:none;stroke:#b3b3b3;stroke-width:4.16091824;stroke-linecap:butt;stroke-linejoin:miter;stroke-miterlimit:4;stroke-opacity:1;stroke-dasharray:none" />
      <path
         inkscape:connector-curvature="0"
         id="path4062"
         d="m 322.28941,286.20461 c 0,0 0,0 0,0 z"
         style="fill:none;stroke:#000000;stroke-width:1.04022956px;stroke-linecap:butt;stroke-linejoin:miter;stroke-opacity:1" />
      <path
         inkscape:connector-curvature="0"
         id="path4064"
         d="m 322.28941,286.20461 -10e-6,280.91729"
         style="fill:none;stroke:#000000;stroke-width:4.16091824;stroke-linecap:butt;stroke-linejoin:miter;stroke-miterlimit:4;stroke-opacity:1;stroke-dasharray:none" />
      <path
         inkscape:connector-curvature="0"
         id="path4088"
         d="m 543.89164,473.11845 -278.29705,0"
         style="fill:none;stroke:#808080;stroke-width:4;stroke-linecap:butt;stroke-linejoin:miter;stroke-miterlimit:4;stroke-opacity:1;stroke-dasharray:none" />
      <path
         transform="matrix(1,0,0,1.0820776,250.69486,179.86548)"
         style="fill:#0000ff;fill-opacity:1;stroke:#000000;stroke-width:1.10000002;stroke-miterlimit:4;stroke-opacity:1;stroke-dasharray:none"
         d="m 171.72593,271.00919 c 0,9.20521 -7.91456,16.66751 -17.67767,16.66751 -9.7631,0 -17.67767,-7.4623 -17.67767,-16.66751 0,-9.20522 7.91457,-16.66752 17.67767,-16.66752 9.76311,0 17.67767,7.4623 17.67767,16.66752 z"
         sodipodi:ry="16.667517"
         sodipodi:rx="17.67767"
         sodipodi:cy="271.00919"
         sodipodi:cx="154.04826"
         id="path2985-1-0-9"
         sodipodi:type="arc" />
      <path
         inkscape:connector-curvature="0"
         id="path4256"
         d="m 461.43795,426.66325 82.45369,46.4552 -221.60222,94.00345 139.14852,-138.81904"
         style="fill:#ff00ff;stroke:#800080;stroke-width:5;stroke-linecap:butt;stroke-linejoin:miter;stroke-miterlimit:4;stroke-opacity:1;stroke-dasharray:none" />
      <path
         inkscape:connector-curvature="0"
         id="path4066"
         d="m 461.43795,286.20461 -10e-6,280.91729 0,0 0,0"
         style="fill:none;stroke:#b3b3b3;stroke-width:4.16091824;stroke-linecap:butt;stroke-linejoin:miter;stroke-miterlimit:4;stroke-opacity:1;stroke-dasharray:none" />
      <path
         inkscape:connector-curvature="0"
         id="path4068"
         d="m 183.14091,426.66325 278.29703,1.6396"
         style="fill:none;stroke:#000000;stroke-width:4.16091824;stroke-linecap:butt;stroke-linejoin:miter;stroke-miterlimit:4;stroke-opacity:1;stroke-dasharray:none" />
      <path
         inkscape:connector-curvature="0"
         id="path4070"
         d="m 183.14091,567.1219 278.29703,0"
         style="fill:none;stroke:#b3b3b3;stroke-width:4.16091824;stroke-linecap:butt;stroke-linejoin:miter;stroke-miterlimit:4;stroke-opacity:1;stroke-dasharray:none" />
      <path
         transform="matrix(1,0,0,1.0820776,29.092642,-7.0483588)"
         style="fill:#b3b3b3;stroke:#b3b3b3;stroke-width:1.10000002;stroke-miterlimit:4;stroke-opacity:1;stroke-dasharray:none"
         d="m 171.72593,271.00919 c 0,9.20521 -7.91456,16.66751 -17.67767,16.66751 -9.7631,0 -17.67767,-7.4623 -17.67767,-16.66751 0,-9.20522 7.91457,-16.66752 17.67767,-16.66752 9.76311,0 17.67767,7.4623 17.67767,16.66752 z"
         sodipodi:ry="16.667517"
         sodipodi:rx="17.67767"
         sodipodi:cy="271.00919"
         sodipodi:cx="154.04826"
         id="path2985-45"
         sodipodi:type="arc" />
      <path
         transform="matrix(1,0,0,1.0820776,29.092642,273.86893)"
         style="fill:#b3b3b3;fill-opacity:1;stroke:#b3b3b3;stroke-width:1.10000002;stroke-miterlimit:4;stroke-opacity:1;stroke-dasharray:none"
         d="m 171.72593,271.00919 c 0,9.20521 -7.91456,16.66751 -17.67767,16.66751 -9.7631,0 -17.67767,-7.4623 -17.67767,-16.66751 0,-9.20522 7.91457,-16.66752 17.67767,-16.66752 9.76311,0 17.67767,7.4623 17.67767,16.66752 z"
         sodipodi:ry="16.667517"
         sodipodi:rx="17.67767"
         sodipodi:cy="271.00919"
         sodipodi:cx="154.04826"
         id="path2985-45-4"
         sodipodi:type="arc" />
      <path
         inkscape:connector-curvature="0"
         id="path4072"
         d="m 626.34536,98.197706 -10e-6,280.917294 0,0 -164.90741,188.0069"
         style="fill:none;stroke:#b3b3b3;stroke-width:4;stroke-linecap:butt;stroke-linejoin:miter;stroke-miterlimit:4;stroke-opacity:1;stroke-dasharray:none" />
      <path
         transform="matrix(1,0,0,1.0820776,307.38968,273.86893)"
         style="fill:#b3b3b3;fill-opacity:1;stroke:#b3b3b3;stroke-width:1.10000002;stroke-miterlimit:4;stroke-opacity:1;stroke-dasharray:none"
         d="m 171.72593,271.00919 c 0,9.20521 -7.91456,16.66751 -17.67767,16.66751 -9.7631,0 -17.67767,-7.4623 -17.67767,-16.66751 0,-9.20522 7.91457,-16.66752 17.67767,-16.66752 9.76311,0 17.67767,7.4623 17.67767,16.66752 z"
         sodipodi:ry="16.667517"
         sodipodi:rx="17.67767"
         sodipodi:cy="271.00919"
         sodipodi:cx="154.04826"
         id="path2985-7-1-1"
         sodipodi:type="arc" />
      <path
         transform="matrix(1,0,0,1.0820776,472.29709,85.862023)"
         style="fill:#b3b3b3;fill-opacity:1;stroke:#b3b3b3;stroke-width:1.10000002;stroke-miterlimit:4;stroke-opacity:1;stroke-dasharray:none"
         d="m 171.72593,271.00919 c 0,9.20521 -7.91456,16.66751 -17.67767,16.66751 -9.7631,0 -17.67767,-7.4623 -17.67767,-16.66751 0,-9.20522 7.91457,-16.66752 17.67767,-16.66752 9.76311,0 17.67767,7.4623 17.67767,16.66752 z"
         sodipodi:ry="16.667517"
         sodipodi:rx="17.67767"
         sodipodi:cy="271.00919"
         sodipodi:cx="154.04826"
         id="path2985-7-2"
         sodipodi:type="arc" />
      <path
         transform="matrix(1,0,0,1.0820776,389.84338,41.046428)"
         style="fill:#e2e3db;fill-opacity:1;stroke:#000000;stroke-width:1.10000002;stroke-miterlimit:4;stroke-opacity:1;stroke-dasharray:none"
         d="m 171.72593,271.00919 c 0,9.20521 -7.91456,16.66751 -17.67767,16.66751 -9.7631,0 -17.67767,-7.4623 -17.67767,-16.66751 0,-9.20522 7.91457,-16.66752 17.67767,-16.66752 9.76311,0 17.67767,7.4623 17.67767,16.66752 z"
         sodipodi:ry="16.667517"
         sodipodi:rx="17.67767"
         sodipodi:cy="271.00919"
         sodipodi:cx="154.04826"
         id="path2985-7-9-6"
         sodipodi:type="arc" />
      <path
         transform="matrix(1,0,0,1.0820776,111.54633,179.86548)"
         style="fill:#0000ff;fill-opacity:1;stroke:#000000;stroke-width:1.10000002;stroke-miterlimit:4;stroke-opacity:1;stroke-dasharray:none"
         d="m 171.72593,271.00919 c 0,9.20521 -7.91456,16.66751 -17.67767,16.66751 -9.7631,0 -17.67767,-7.4623 -17.67767,-16.66751 0,-9.20522 7.91457,-16.66752 17.67767,-16.66752 9.76311,0 17.67767,7.4623 17.67767,16.66752 z"
         sodipodi:ry="16.667517"
         sodipodi:rx="17.67767"
         sodipodi:cy="271.00919"
         sodipodi:cx="154.04826"
         id="path2985-4-7"
         sodipodi:type="arc" />
      <path
         transform="matrix(1,0,0,1.0820776,389.84338,179.86548)"
         style="fill:#0000ff;fill-opacity:1;stroke:#000000;stroke-width:1.10000002;stroke-miterlimit:4;stroke-opacity:1;stroke-dasharray:none"
         d="m 171.72593,271.00919 c 0,9.20521 -7.91456,16.66751 -17.67767,16.66751 -9.7631,0 -17.67767,-7.4623 -17.67767,-16.66751 0,-9.20522 7.91457,-16.66752 17.67767,-16.66752 9.76311,0 17.67767,7.4623 17.67767,16.66752 z"
         sodipodi:ry="16.667517"
         sodipodi:rx="17.67767"
         sodipodi:cy="271.00919"
         sodipodi:cx="154.04826"
         id="path2985-7-9-5"
         sodipodi:type="arc" />
      <text
         sodipodi:linespacing="125%"
         id="text4198"
         y="387.02124"
         x="335.42624"
         style="font-size:22px;font-style:normal;font-weight:bold;line-height:125%;letter-spacing:0px;word-spacing:0px;fill:#ffffff;fill-opacity:1;stroke:none;font-family:Sans;-inkscape-font-specification:Sans Bold"
         xml:space="preserve"><tspan
           y="387.02124"
           x="335.42624"
           id="tspan4200"
           sodipodi:role="line">17</tspan></text>
      <text
         sodipodi:linespacing="125%"
         id="text4194"
         y="480.89041"
         x="252.87585"
         style="font-size:22px;font-style:normal;font-weight:bold;line-height:125%;letter-spacing:0px;word-spacing:0px;fill:#ffffff;fill-opacity:1;stroke:none;font-family:Sans;-inkscape-font-specification:Sans Bold"
         xml:space="preserve"><tspan
           y="480.89041"
           x="252.87585"
           id="tspan4196"
           sodipodi:role="line">16</tspan></text>
      <text
         sodipodi:linespacing="125%"
         id="text4166"
         y="480.88504"
         x="398.78659"
         style="font-size:22px;font-style:normal;font-weight:bold;line-height:125%;letter-spacing:0px;word-spacing:0px;fill:#ffffff;fill-opacity:1;stroke:none;font-family:Sans;-inkscape-font-specification:Sans Bold"
         xml:space="preserve"><tspan
           y="480.88504"
           x="398.78659"
           id="tspan4168"
           sodipodi:role="line">9</tspan></text>
      <path
         inkscape:connector-curvature="0"
         id="path4252"
         d="M 322.28943,286.20461 461.43795,426.66325 322.28942,567.1219 183.14091,426.66325 z"
         style="fill:#ff00ff;stroke:#800080;stroke-width:5;stroke-linecap:butt;stroke-linejoin:miter;stroke-miterlimit:4;stroke-opacity:1;stroke-dasharray:none" />
      <path
         transform="matrix(1,0,0,1.0820776,168.24114,135.04989)"
         style="fill:#e2e3db;fill-opacity:1;stroke:#000000;stroke-width:1.10000002;stroke-miterlimit:4;stroke-opacity:1;stroke-dasharray:none"
         d="m 171.72593,271.00919 c 0,9.20521 -7.91456,16.66751 -17.67767,16.66751 -9.7631,0 -17.67767,-7.4623 -17.67767,-16.66751 0,-9.20522 7.91457,-16.66752 17.67767,-16.66752 9.76311,0 17.67767,7.4623 17.67767,16.66752 z"
         sodipodi:ry="16.667517"
         sodipodi:rx="17.67767"
         sodipodi:cy="271.00919"
         sodipodi:cx="154.04826"
         id="path2985-1-5-4"
         sodipodi:type="arc" />
      <text
         sodipodi:linespacing="125%"
         id="text4142"
         y="342.07138"
         x="537.83307"
         style="font-size:22px;font-style:normal;font-weight:bold;line-height:125%;letter-spacing:0px;word-spacing:0px;fill:#000000;fill-opacity:1;stroke:none;font-family:Sans;-inkscape-font-specification:Sans Bold"
         xml:space="preserve"><tspan
           y="342.07138"
           x="537.83307"
           id="tspan4144"
           sodipodi:role="line">3</tspan></text>
      <text
         sodipodi:linespacing="125%"
         id="text4150"
         y="435.93518"
         x="316.01596"
         style="font-size:22px;font-style:normal;font-weight:bold;line-height:125%;letter-spacing:0px;word-spacing:0px;fill:#000000;fill-opacity:1;stroke:none;font-family:Sans;-inkscape-font-specification:Sans Bold"
         xml:space="preserve"><tspan
           y="435.93518"
           x="316.01596"
           id="tspan4152"
           sodipodi:role="line">5</tspan></text>
      <text
         sodipodi:linespacing="125%"
         id="text4178"
         y="481.02469"
         x="531.33405"
         style="font-size:22px;font-style:normal;font-weight:bold;line-height:125%;letter-spacing:0px;word-spacing:0px;fill:#ffffff;fill-opacity:1;stroke:none;font-family:Sans;-inkscape-font-specification:Sans Bold"
         xml:space="preserve"><tspan
           y="481.02469"
           x="531.33405"
           id="tspan4180"
           sodipodi:role="line">12</tspan></text>
      <text
         sodipodi:linespacing="125%"
         id="text4182"
         y="574.89392"
         x="448.79977"
         style="font-size:22px;font-style:normal;font-weight:bold;line-height:125%;letter-spacing:0px;word-spacing:0px;fill:#ffffff;fill-opacity:1;stroke:none;font-family:Sans;-inkscape-font-specification:Sans Bold"
         xml:space="preserve"><tspan
           y="574.89392"
           x="448.79977"
           id="tspan4184"
           sodipodi:role="line">13</tspan></text>
      <text
         sodipodi:linespacing="125%"
         id="text4190"
         y="574.89392"
         x="170.36307"
         style="font-size:22px;font-style:normal;font-weight:bold;line-height:125%;letter-spacing:0px;word-spacing:0px;fill:#ffffff;fill-opacity:1;stroke:none;font-family:Sans;-inkscape-font-specification:Sans Bold"
         xml:space="preserve"><tspan
           y="574.89392"
           x="170.36307"
           id="tspan4192"
           sodipodi:role="line">15</tspan></text>
      <text
         sodipodi:linespacing="125%"
         id="text4202"
         y="199.96776"
         x="392.12643"
         style="font-size:22px;font-style:normal;font-weight:bold;line-height:125%;letter-spacing:0px;word-spacing:0px;fill:#000000;fill-opacity:1;stroke:none;font-family:Sans;-inkscape-font-specification:Sans Bold"
         xml:space="preserve"><tspan
           y="199.96776"
           x="392.12643"
           id="tspan4204"
           sodipodi:role="line">18</tspan></text>
      <text
         sodipodi:linespacing="125%"
         id="text4210"
         y="387.02124"
         x="615.02307"
         style="font-size:22px;font-style:normal;font-weight:bold;line-height:125%;letter-spacing:0px;word-spacing:0px;fill:#ffffff;fill-opacity:1;stroke:none;font-family:Sans;-inkscape-font-specification:Sans Bold"
         xml:space="preserve"><tspan
           y="387.02124"
           x="615.02307"
           id="tspan4212"
           sodipodi:role="line">11</tspan></text>
      <text
         sodipodi:linespacing="125%"
         id="text4226"
         y="294.11087"
         x="170.87869"
         style="font-size:22px;font-style:normal;font-weight:bold;line-height:125%;letter-spacing:0px;word-spacing:0px;fill:#ffffff;fill-opacity:1;stroke:none;font-family:Sans;-inkscape-font-specification:Sans Bold"
         xml:space="preserve"><tspan
           y="294.11087"
           x="170.87869"
           id="tspan4228"
           sodipodi:role="line">24</tspan></text>
      <text
         sodipodi:linespacing="125%"
         id="text4234"
         y="105.96968"
         x="335.92575"
         style="font-size:22px;font-style:normal;font-weight:bold;line-height:125%;letter-spacing:0px;word-spacing:0px;fill:#ffffff;fill-opacity:1;stroke:none;font-family:Sans;-inkscape-font-specification:Sans Bold"
         xml:space="preserve"><tspan
           y="105.96968"
           x="335.92575"
           id="tspan4236"
           sodipodi:role="line">26</tspan></text>
      <path
         inkscape:connector-curvature="0"
         id="path4246"
         d="M 487.19684,98.197692 626.34535,240.29595 543.89165,192.20116 487.19684,98.197692"
         style="fill:#ff00ff;stroke:#800080;stroke-width:5;stroke-linecap:butt;stroke-linejoin:miter;stroke-miterlimit:4;stroke-opacity:1;stroke-dasharray:none" />
      <path
         inkscape:connector-curvature="0"
         id="path4052"
         d="m 626.34536,98.197692 -164.90741,188.006918 0,0"
         style="fill:none;stroke:#b3b3b3;stroke-width:4.16091824;stroke-linecap:butt;stroke-linejoin:miter;stroke-miterlimit:4;stroke-opacity:1;stroke-dasharray:none" />
      <path
         transform="matrix(1,0,0,1.0820776,307.38969,-7.0483588)"
         style="fill:#b3b3b3;fill-opacity:1;stroke:#b3b3b3;stroke-width:1.10000002;stroke-miterlimit:4;stroke-opacity:1;stroke-dasharray:none"
         d="m 171.72593,271.00919 c 0,9.20521 -7.91456,16.66751 -17.67767,16.66751 -9.7631,0 -17.67767,-7.4623 -17.67767,-16.66751 0,-9.20522 7.91457,-16.66752 17.67767,-16.66752 9.76311,0 17.67767,7.4623 17.67767,16.66752 z"
         sodipodi:ry="16.667517"
         sodipodi:rx="17.67767"
         sodipodi:cy="271.00919"
         sodipodi:cx="154.04826"
         id="path2985-7-1"
         sodipodi:type="arc" />
      <text
         sodipodi:linespacing="125%"
         id="text4218"
         y="294.11087"
         x="449.47653"
         style="font-size:22px;font-style:normal;font-weight:bold;line-height:125%;letter-spacing:0px;word-spacing:0px;fill:#ffffff;fill-opacity:1;stroke:none;font-family:Sans;-inkscape-font-specification:Sans Bold"
         xml:space="preserve"><tspan
           y="294.11087"
           x="449.47653"
           id="tspan4220"
           sodipodi:role="line">22</tspan></text>
      <path
         transform="matrix(1,0,0,1.0820776,472.2971,-195.05526)"
         style="fill:#b3b3b3;fill-opacity:1;stroke:#b3b3b3;stroke-width:1.10000002;stroke-miterlimit:4;stroke-opacity:1;stroke-dasharray:none"
         d="m 171.72593,271.00919 c 0,9.20521 -7.91456,16.66751 -17.67767,16.66751 -9.7631,0 -17.67767,-7.4623 -17.67767,-16.66751 0,-9.20522 7.91457,-16.66752 17.67767,-16.66752 9.76311,0 17.67767,7.4623 17.67767,16.66752 z"
         sodipodi:ry="16.667517"
         sodipodi:rx="17.67767"
         sodipodi:cy="271.00919"
         sodipodi:cx="154.04826"
         id="path2985-7"
         sodipodi:type="arc" />
      <text
         sodipodi:linespacing="125%"
         id="text4126"
         y="105.96968"
         x="614.37317"
         style="font-size:22px;font-style:normal;font-weight:bold;line-height:125%;letter-spacing:0px;word-spacing:0px;fill:#ffffff;fill-opacity:1;stroke:none;font-family:Sans;-inkscape-font-specification:Sans Bold"
         xml:space="preserve"><tspan
           y="105.96968"
           x="614.37317"
           id="tspan4128"
           sodipodi:role="line">20</tspan></text>
      <path
         transform="matrix(1,0,0,1.0820776,472.29709,-52.957025)"
         style="fill:#e2e3db;fill-opacity:1;stroke:#000000;stroke-width:1.10000002;stroke-miterlimit:4;stroke-opacity:1;stroke-dasharray:none"
         d="m 171.72593,271.00919 c 0,9.20521 -7.91456,16.66751 -17.67767,16.66751 -9.7631,0 -17.67767,-7.4623 -17.67767,-16.66751 0,-9.20522 7.91457,-16.66752 17.67767,-16.66752 9.76311,0 17.67767,7.4623 17.67767,16.66752 z"
         sodipodi:ry="16.667517"
         sodipodi:rx="17.67767"
         sodipodi:cy="271.00919"
         sodipodi:cx="154.04826"
         id="path2985-7-5"
         sodipodi:type="arc" />
      <text
         sodipodi:linespacing="125%"
         id="text4138"
         y="248.20219"
         x="620.50696"
         style="font-size:22px;font-style:normal;font-weight:bold;line-height:125%;letter-spacing:0px;word-spacing:0px;fill:#000000;fill-opacity:1;stroke:none;font-family:Sans;-inkscape-font-specification:Sans Bold"
         xml:space="preserve"><tspan
           y="248.20219"
           x="620.50696"
           id="tspan4140"
           sodipodi:role="line">2</tspan></text>
      <path
         transform="matrix(1,0,0,1.0820776,333.14856,-195.05526)"
         style="fill:#d40000;fill-opacity:1;stroke:#000000;stroke-width:1.10000002;stroke-miterlimit:4;stroke-opacity:1;stroke-dasharray:none"
         d="m 171.72593,271.00919 c 0,9.20521 -7.91456,16.66751 -17.67767,16.66751 -9.7631,0 -17.67767,-7.4623 -17.67767,-16.66751 0,-9.20522 7.91457,-16.66752 17.67767,-16.66752 9.76311,0 17.67767,7.4623 17.67767,16.66752 z"
         sodipodi:ry="16.667517"
         sodipodi:rx="17.67767"
         sodipodi:cy="271.00919"
         sodipodi:cx="154.04826"
         id="path2985-1"
         sodipodi:type="arc" />
      <text
         sodipodi:linespacing="125%"
         id="text4206"
         y="105.96431"
         x="474.59625"
         style="font-size:22px;font-style:normal;font-weight:bold;line-height:125%;letter-spacing:0px;word-spacing:0px;fill:#000000;fill-opacity:1;stroke:none;font-family:Sans;-inkscape-font-specification:Sans Bold"
         xml:space="preserve"><tspan
           y="105.96431"
           x="474.59625"
           id="tspan4208"
           sodipodi:role="line">19</tspan></text>
      <path
         transform="matrix(1,0,0,1.0820776,389.84339,-101.05181)"
         style="fill:#d40000;fill-opacity:1;stroke:#000000;stroke-width:1.10000002;stroke-miterlimit:4;stroke-opacity:1;stroke-dasharray:none"
         d="m 171.72593,271.00919 c 0,9.20521 -7.91456,16.66751 -17.67767,16.66751 -9.7631,0 -17.67767,-7.4623 -17.67767,-16.66751 0,-9.20522 7.91457,-16.66752 17.67767,-16.66752 9.76311,0 17.67767,7.4623 17.67767,16.66752 z"
         sodipodi:ry="16.667517"
         sodipodi:rx="17.67767"
         sodipodi:cy="271.00919"
         sodipodi:cx="154.04826"
         id="path2985-7-9"
         sodipodi:type="arc" />
      <text
         sodipodi:linespacing="125%"
         id="text4214"
         y="200.10741"
         x="533.16559"
         style="font-size:22px;font-style:normal;font-weight:bold;line-height:125%;letter-spacing:0px;word-spacing:0px;fill:#000000;fill-opacity:1;stroke:none;font-family:Sans;-inkscape-font-specification:Sans Bold"
         xml:space="preserve"><tspan
           y="200.10741"
           x="533.16559"
           id="tspan4216"
           sodipodi:role="line">21</tspan></text>
      <path
         transform="matrix(1,0,0,1.0820776,168.24114,273.86893)"
         style="fill:#0000ff;fill-opacity:1;stroke:#000000;stroke-width:1.10000002;stroke-miterlimit:4;stroke-opacity:1;stroke-dasharray:none"
         d="m 171.72593,271.00919 c 0,9.20521 -7.91456,16.66751 -17.67767,16.66751 -9.7631,0 -17.67767,-7.4623 -17.67767,-16.66751 0,-9.20522 7.91457,-16.66752 17.67767,-16.66752 9.76311,0 17.67767,7.4623 17.67767,16.66752 z"
         sodipodi:ry="16.667517"
         sodipodi:rx="17.67767"
         sodipodi:cy="271.00919"
         sodipodi:cx="154.04826"
         id="path2985-1-5-3"
         sodipodi:type="arc" />
      <text
         sodipodi:linespacing="125%"
         id="text4186"
         y="575.0282"
         x="309.431"
         style="font-size:22px;font-style:normal;font-weight:bold;line-height:125%;letter-spacing:0px;word-spacing:0px;fill:#ffffff;fill-opacity:1;stroke:none;font-family:Sans;-inkscape-font-specification:Sans Bold"
         xml:space="preserve"><tspan
           y="575.0282"
           x="309.431"
           id="tspan4188"
           sodipodi:role="line">14</tspan></text>
      <path
         transform="matrix(1,0,0,1.0820776,307.38968,135.04989)"
         style="fill:#e2e3db;fill-opacity:1;stroke:#000000;stroke-width:1.10000002;stroke-miterlimit:4;stroke-opacity:1;stroke-dasharray:none"
         d="m 171.72593,271.00919 c 0,9.20521 -7.91456,16.66751 -17.67767,16.66751 -9.7631,0 -17.67767,-7.4623 -17.67767,-16.66751 0,-9.20522 7.91457,-16.66752 17.67767,-16.66752 9.76311,0 17.67767,7.4623 17.67767,16.66752 z"
         sodipodi:ry="16.667517"
         sodipodi:rx="17.67767"
         sodipodi:cy="271.00919"
         sodipodi:cx="154.04826"
         id="path2985-7-1-2"
         sodipodi:type="arc" />
      <text
         sodipodi:linespacing="125%"
         id="text4146"
         y="436.20911"
         x="455.36862"
         style="font-size:22px;font-style:normal;font-weight:bold;line-height:125%;letter-spacing:0px;word-spacing:0px;fill:#000000;fill-opacity:1;stroke:none;font-family:Sans;-inkscape-font-specification:Sans Bold"
         xml:space="preserve"><tspan
           y="436.20911"
           x="455.36862"
           id="tspan4148"
           sodipodi:role="line">4</tspan></text>
      <path
         transform="matrix(1,0,0,1.0820776,29.092642,135.04989)"
         style="fill:#e2e3db;fill-opacity:1;stroke:#000000;stroke-width:1.10000002;stroke-miterlimit:4;stroke-opacity:1;stroke-dasharray:none"
         d="m 171.72593,271.00919 c 0,9.20521 -7.91456,16.66751 -17.67767,16.66751 -9.7631,0 -17.67767,-7.4623 -17.67767,-16.66751 0,-9.20522 7.91457,-16.66752 17.67767,-16.66752 9.76311,0 17.67767,7.4623 17.67767,16.66752 z"
         sodipodi:ry="16.667517"
         sodipodi:rx="17.67767"
         sodipodi:cy="271.00919"
         sodipodi:cx="154.04826"
         id="path2985-45-1"
         sodipodi:type="arc" />
      <text
         sodipodi:linespacing="125%"
         id="text4154"
         y="436.07483"
         x="176.94803"
         style="font-size:22px;font-style:normal;font-weight:bold;line-height:125%;letter-spacing:0px;word-spacing:0px;fill:#000000;fill-opacity:1;stroke:none;font-family:Sans;-inkscape-font-specification:Sans Bold"
         xml:space="preserve"><tspan
           y="436.07483"
           x="176.94803"
           id="tspan4156"
           sodipodi:role="line">6</tspan></text>
      <path
         transform="matrix(1,0,0,1.0820776,168.24115,-7.0483588)"
         style="fill:#d40000;fill-opacity:1;stroke:#000000;stroke-width:1.10000002;stroke-miterlimit:4;stroke-opacity:1;stroke-dasharray:none"
         d="m 171.72593,271.00919 c 0,9.20521 -7.91456,16.66751 -17.67767,16.66751 -9.7631,0 -17.67767,-7.4623 -17.67767,-16.66751 0,-9.20522 7.91457,-16.66752 17.67767,-16.66752 9.76311,0 17.67767,7.4623 17.67767,16.66752 z"
         sodipodi:ry="16.667517"
         sodipodi:rx="17.67767"
         sodipodi:cy="271.00919"
         sodipodi:cx="154.04826"
         id="path2985-6"
         sodipodi:type="arc" />
      <text
         sodipodi:linespacing="125%"
         id="text4222"
         y="293.97659"
         x="310.24744"
         style="font-size:22px;font-style:normal;font-weight:bold;line-height:125%;letter-spacing:0px;word-spacing:0px;fill:#000000;fill-opacity:1;stroke:none;font-family:Sans;-inkscape-font-specification:Sans Bold"
         xml:space="preserve"><tspan
           y="293.97659"
           x="310.24744"
           id="tspan4224"
           sodipodi:role="line">23</tspan></text>
      <path
         transform="matrix(1,0,0,1.0820776,111.54634,-101.05181)"
         style="fill:#d40000;stroke:#000000;stroke-width:1.10000002;stroke-miterlimit:4;stroke-opacity:1;stroke-dasharray:none"
         d="m 171.72593,271.00919 c 0,9.20521 -7.91456,16.66751 -17.67767,16.66751 -9.7631,0 -17.67767,-7.4623 -17.67767,-16.66751 0,-9.20522 7.91457,-16.66752 17.67767,-16.66752 9.76311,0 17.67767,7.4623 17.67767,16.66752 z"
         sodipodi:ry="16.667517"
         sodipodi:rx="17.67767"
         sodipodi:cy="271.00919"
         sodipodi:cx="154.04826"
         id="path2985-4"
         sodipodi:type="arc" />
      <text
         sodipodi:linespacing="125%"
         id="text4230"
         y="199.97313"
         x="253.41296"
         style="font-size:22px;font-style:normal;font-weight:bold;line-height:125%;letter-spacing:0px;word-spacing:0px;fill:#000000;fill-opacity:1;stroke:none;font-family:Sans;-inkscape-font-specification:Sans Bold"
         xml:space="preserve"><tspan
           y="199.97313"
           x="253.41296"
           id="tspan4232"
           sodipodi:role="line">25</tspan></text>
    </g>
  </g>
</svg>
