<?xml version="1.0" encoding="UTF-8" standalone="no"?>
<!-- Created with Inkscape (http://www.inkscape.org/) -->

<svg
   xmlns:dc="http://purl.org/dc/elements/1.1/"
   xmlns:cc="http://creativecommons.org/ns#"
   xmlns:rdf="http://www.w3.org/1999/02/22-rdf-syntax-ns#"
   xmlns:svg="http://www.w3.org/2000/svg"
   xmlns="http://www.w3.org/2000/svg"
   xmlns:sodipodi="http://sodipodi.sourceforge.net/DTD/sodipodi-0.dtd"
   xmlns:inkscape="http://www.inkscape.org/namespaces/inkscape"
   width="385.27557"
   height="351.20978"
   id="svg2"
   version="1.1"
   inkscape:version="0.48.5 r10040"
   sodipodi:docname="Fccubic_grid_3D.svg">
  <defs
     id="defs4" />
  <sodipodi:namedview
     id="base"
     pagecolor="#ffffff"
     bordercolor="#666666"
     borderopacity="1.0"
     inkscape:pageopacity="0.0"
     inkscape:pageshadow="2"
     inkscape:zoom="2.1483594"
     inkscape:cx="258.63321"
     inkscape:cy="184.64055"
     inkscape:document-units="px"
     inkscape:current-layer="layer1"
     showgrid="false"
     inkscape:snap-global="true"
     inkscape:snap-object-midpoints="true"
     inkscape:snap-smooth-nodes="true"
     inkscape:window-width="1920"
     inkscape:window-height="1134"
     inkscape:window-x="0"
     inkscape:window-y="27"
     inkscape:window-maximized="1"
     fit-margin-top="1"
     fit-margin-left="1"
     fit-margin-right="1"
     fit-margin-bottom="1" />
  <metadata
     id="metadata7">
    <rdf:RDF>
      <cc:Work
         rdf:about="">
        <dc:format>image/svg+xml</dc:format>
        <dc:type
           rdf:resource="http://purl.org/dc/dcmitype/StillImage" />
        <dc:title />
      </cc:Work>
    </rdf:RDF>
  </metadata>
  <g
     inkscape:label="Calque 1"
     inkscape:groupmode="layer"
     id="layer1"
     transform="translate(-91.619917,-112.35301)">
    <path
       style="fill:none;stroke:#000000;stroke-width:3.83491468;stroke-linecap:butt;stroke-linejoin:miter;stroke-miterlimit:4;stroke-opacity:1;stroke-dasharray:none"
       d="m 339.0968,127.26005 121.75287,0 -53.83288,61.5045 -121.75287,0"
       id="path6130"
       inkscape:connector-curvature="0" />
    <path
       transform="matrix(1,0,0,0.91916071,246.52438,-90.877349)"
       sodipodi:type="arc"
       style="fill:#ff8f8f;fill-opacity:1;stroke:#000000;stroke-width:2;stroke-linejoin:round;stroke-miterlimit:4;stroke-opacity:1;stroke-dasharray:none;stroke-dashoffset:10"
       id="path6204-0-7"
       sodipodi:cx="214.32529"
       sodipodi:cy="237.32237"
       sodipodi:rx="14.087108"
       sodipodi:ry="14.087108"
       d="m 228.41239,237.32237 c 0,7.7801 -6.30701,14.08711 -14.0871,14.08711 -7.7801,0 -14.08711,-6.30701 -14.08711,-14.08711 0,-7.78009 6.30701,-14.08711 14.08711,-14.08711 7.78009,0 14.0871,6.30702 14.0871,14.08711 z" />
    <path
       style="fill:none;stroke:#000000;stroke-width:3.83491468;stroke-linecap:butt;stroke-linejoin:miter;stroke-miterlimit:4;stroke-opacity:1;stroke-dasharray:none"
       d="m 339.0968,127.26005 67.91999,61.5045"
       id="path6132"
       inkscape:connector-curvature="0" />
    <path
       transform="matrix(1,0,0,0.91916071,192.6915,-29.372856)"
       sodipodi:type="arc"
       style="fill:#ff8f8f;fill-opacity:1;stroke:#000000;stroke-width:2;stroke-linejoin:round;stroke-miterlimit:4;stroke-opacity:1;stroke-dasharray:none;stroke-dashoffset:10"
       id="path6204-0-1-6"
       sodipodi:cx="214.32529"
       sodipodi:cy="237.32237"
       sodipodi:rx="14.087108"
       sodipodi:ry="14.087108"
       d="m 228.41239,237.32237 c 0,7.7801 -6.30701,14.08711 -14.0871,14.08711 -7.7801,0 -14.08711,-6.30701 -14.08711,-14.08711 0,-7.78009 6.30701,-14.08711 14.08711,-14.08711 7.78009,0 14.0871,6.30702 14.0871,14.08711 z" />
    <path
       style="fill:none;stroke:#000000;stroke-width:3.83491468;stroke-linecap:butt;stroke-linejoin:miter;stroke-miterlimit:4;stroke-opacity:1;stroke-dasharray:none"
       d="m 214.32529,226.4534 121.75285,0 67.91999,61.50451 -53.83288,61.50449 -121.75286,0 -67.91998,-61.50449 z"
       id="path6409"
       inkscape:connector-curvature="0" />
    <path
       style="fill:none;stroke:#000000;stroke-width:3.83491468;stroke-linecap:butt;stroke-linejoin:miter;stroke-miterlimit:4;stroke-opacity:1;stroke-dasharray:none"
       d="m 403.99813,287.95791 -121.75287,0 67.91999,61.50449"
       id="path6138"
       inkscape:connector-curvature="0" />
    <path
       transform="matrix(1,0,0,0.91916071,189.67284,69.820505)"
       sodipodi:type="arc"
       style="fill:#ffffff;fill-opacity:1;stroke:#000000;stroke-width:2;stroke-linejoin:round;stroke-miterlimit:4;stroke-opacity:1;stroke-dasharray:none;stroke-dashoffset:10"
       id="path6204-0-1"
       sodipodi:cx="214.32529"
       sodipodi:cy="237.32237"
       sodipodi:rx="14.087108"
       sodipodi:ry="14.087108"
       d="m 228.41239,237.32237 c 0,7.7801 -6.30701,14.08711 -14.0871,14.08711 -7.7801,0 -14.08711,-6.30701 -14.08711,-14.08711 0,-7.78009 6.30701,-14.08711 14.08711,-14.08711 7.78009,0 14.0871,6.30702 14.0871,14.08711 z" />
    <path
       style="fill:none;stroke:#000000;stroke-width:3.83491468;stroke-linecap:butt;stroke-linejoin:miter;stroke-miterlimit:4.0999999;stroke-opacity:1;stroke-dasharray:none"
       d="m 160.49241,287.95791 121.75286,-1e-5 -53.83288,61.5045"
       id="path6136"
       inkscape:connector-curvature="0" />
    <path
       sodipodi:type="arc"
       style="fill:#ffffff;fill-opacity:1;stroke:#000000;stroke-width:2;stroke-linejoin:round;stroke-miterlimit:4;stroke-opacity:1;stroke-dasharray:none;stroke-dashoffset:10"
       id="path6204-1"
       sodipodi:cx="214.32529"
       sodipodi:cy="237.32237"
       sodipodi:rx="14.087108"
       sodipodi:ry="14.087108"
       d="m 228.41239,237.32237 c 0,7.7801 -6.30701,14.08711 -14.0871,14.08711 -7.7801,0 -14.08711,-6.30701 -14.08711,-14.08711 0,-7.78009 6.30701,-14.08711 14.08711,-14.08711 7.78009,0 14.0871,6.30702 14.0871,14.08711 z"
       transform="matrix(1,0,0,0.91916071,-53.832879,69.820505)" />
    <path
       style="fill:none;stroke:#000000;stroke-width:3.83491468;stroke-linecap:butt;stroke-linejoin:miter;stroke-miterlimit:4;stroke-opacity:1;stroke-dasharray:none"
       d="m 214.32529,226.4534 67.91998,61.5045 53.83287,-61.5045"
       id="path6134"
       inkscape:connector-curvature="0" />
    <path
       transform="matrix(1,0,0,0.91916071,121.75285,8.3159987)"
       sodipodi:type="arc"
       style="fill:#ffffff;fill-opacity:1;stroke:#000000;stroke-width:2;stroke-linejoin:round;stroke-miterlimit:4;stroke-opacity:1;stroke-dasharray:none;stroke-dashoffset:10"
       id="path6204-7"
       sodipodi:cx="214.32529"
       sodipodi:cy="237.32237"
       sodipodi:rx="14.087108"
       sodipodi:ry="14.087108"
       d="m 228.41239,237.32237 c 0,7.7801 -6.30701,14.08711 -14.0871,14.08711 -7.7801,0 -14.08711,-6.30701 -14.08711,-14.08711 0,-7.78009 6.30701,-14.08711 14.08711,-14.08711 7.78009,0 14.0871,6.30702 14.0871,14.08711 z" />
    <path
       style="fill:none;stroke:#4d4d4d;stroke-width:0.95872867px;stroke-linecap:butt;stroke-linejoin:miter;stroke-opacity:1"
       d="m 339.0968,127.26005 -2.01244,140.35049"
       id="path6405"
       inkscape:connector-curvature="0" />
    <path
       sodipodi:type="arc"
       style="fill:#ffffff;fill-opacity:1;stroke:#000000;stroke-width:2;stroke-linejoin:round;stroke-miterlimit:4;stroke-opacity:1;stroke-dasharray:none;stroke-dashoffset:10"
       id="path6204"
       sodipodi:cx="214.32529"
       sodipodi:cy="237.32237"
       sodipodi:rx="14.087108"
       sodipodi:ry="14.087108"
       d="m 228.41239,237.32237 c 0,7.7801 -6.30701,14.08711 -14.0871,14.08711 -7.7801,0 -14.08711,-6.30701 -14.08711,-14.08711 0,-7.78009 6.30701,-14.08711 14.08711,-14.08711 7.78009,0 14.0871,6.30702 14.0871,14.08711 z"
       transform="matrix(1,0,0,0.91916071,0,8.3159987)" />
    <path
       style="fill:none;stroke:#4d4d4d;stroke-width:0.63464004px;stroke-linecap:butt;stroke-linejoin:miter;stroke-opacity:1"
       d="m 218.35017,266.18271 0,-140.54969"
       id="path6366"
       inkscape:connector-curvature="0" />
    <path
       style="fill:none;stroke:#000000;stroke-width:3.83491468;stroke-linecap:butt;stroke-linejoin:miter;stroke-miterlimit:4;stroke-opacity:1;stroke-dasharray:none"
       d="m 217.34395,127.26005 121.75285,0 -53.83288,61.5045 -67.91997,-61.5045"
       id="path6411"
       inkscape:connector-curvature="0" />
    <path
       transform="matrix(1,0,0,0.91916071,124.77151,-90.877349)"
       sodipodi:type="arc"
       style="fill:#ff5454;fill-opacity:1;stroke:#000000;stroke-width:2;stroke-linejoin:round;stroke-miterlimit:4;stroke-opacity:1;stroke-dasharray:none;stroke-dashoffset:10"
       id="path6204-7-5"
       sodipodi:cx="214.32529"
       sodipodi:cy="237.32237"
       sodipodi:rx="14.087108"
       sodipodi:ry="14.087108"
       d="m 228.41239,237.32237 c 0,7.7801 -6.30701,14.08711 -14.0871,14.08711 -7.7801,0 -14.08711,-6.30701 -14.08711,-14.08711 0,-7.78009 6.30701,-14.08711 14.08711,-14.08711 7.78009,0 14.0871,6.30702 14.0871,14.08711 z" />
    <path
       sodipodi:type="arc"
       style="fill:#ff5454;fill-opacity:1;stroke:#000000;stroke-width:2;stroke-linejoin:round;stroke-miterlimit:4;stroke-opacity:1;stroke-dasharray:none;stroke-dashoffset:10"
       id="path6204-00"
       sodipodi:cx="214.32529"
       sodipodi:cy="237.32237"
       sodipodi:rx="14.087108"
       sodipodi:ry="14.087108"
       d="m 228.41239,237.32237 c 0,7.7801 -6.30701,14.08711 -14.0871,14.08711 -7.7801,0 -14.08711,-6.30701 -14.08711,-14.08711 0,-7.78009 6.30701,-14.08711 14.08711,-14.08711 7.78009,0 14.0871,6.30702 14.0871,14.08711 z"
       transform="matrix(1,0,0,0.91916071,3.0186656,-90.877349)" />
    <path
       style="fill:none;stroke:#4d4d4d;stroke-width:0.95872867;stroke-linecap:butt;stroke-linejoin:miter;stroke-miterlimit:4;stroke-opacity:1;stroke-dasharray:0.95872869, 2.87618608;stroke-dashoffset:0"
       d="m 351.17147,308.10606 0,140.54969"
       id="path6366-4"
       inkscape:connector-curvature="0" />
    <path
       transform="matrix(1,0,0,0.91916071,135.83996,131.325)"
       sodipodi:type="arc"
       style="fill:#ffffff;fill-opacity:1;stroke:#000000;stroke-width:2;stroke-linejoin:round;stroke-miterlimit:4;stroke-opacity:1;stroke-dasharray:none;stroke-dashoffset:10"
       id="path6204-7-3"
       sodipodi:cx="214.32529"
       sodipodi:cy="237.32237"
       sodipodi:rx="14.087108"
       sodipodi:ry="14.087108"
       d="m 228.41239,237.32237 c 0,7.7801 -6.30701,14.08711 -14.0871,14.08711 -7.7801,0 -14.08711,-6.30701 -14.08711,-14.08711 0,-7.78009 6.30701,-14.08711 14.08711,-14.08711 7.78009,0 14.0871,6.30702 14.0871,14.08711 z" />
    <path
       style="fill:none;stroke:#4d4d4d;stroke-width:0.95872867;stroke-linecap:butt;stroke-linejoin:miter;stroke-miterlimit:4;stroke-opacity:1;stroke-dasharray:0.95872869, 2.87618608;stroke-dashoffset:0"
       d="m 230.42484,447.02872 2.01244,-140.35049"
       id="path6405-0"
       inkscape:connector-curvature="0" />
    <path
       sodipodi:type="arc"
       style="fill:#ffffff;fill-opacity:1;stroke:#000000;stroke-width:2;stroke-linejoin:round;stroke-miterlimit:4;stroke-opacity:1;stroke-dasharray:none;stroke-dashoffset:10"
       id="path6204-10"
       sodipodi:cx="214.32529"
       sodipodi:cy="237.32237"
       sodipodi:rx="14.087108"
       sodipodi:ry="14.087108"
       d="m 228.41239,237.32237 c 0,7.7801 -6.30701,14.08711 -14.0871,14.08711 -7.7801,0 -14.08711,-6.30701 -14.08711,-14.08711 0,-7.78009 6.30701,-14.08711 14.08711,-14.08711 7.78009,0 14.0871,6.30702 14.0871,14.08711 z"
       transform="matrix(1,0,0,0.91916071,14.087105,131.325)" />
    <path
       style="fill:none;stroke:#4d4d4d;stroke-width:0.95872867;stroke-linecap:butt;stroke-linejoin:miter;stroke-miterlimit:4;stroke-opacity:1;stroke-dasharray:0.95872869, 2.87618608;stroke-dashoffset:0"
       d="M 284.25772,385.52422 283.75459,242.39908"
       id="path6407-9"
       inkscape:connector-curvature="0" />
    <path
       transform="matrix(1,0,0,0.91916071,67.919971,69.820505)"
       sodipodi:type="arc"
       style="fill:#ffffff;fill-opacity:1;stroke:#000000;stroke-width:2;stroke-linejoin:round;stroke-miterlimit:4;stroke-opacity:1;stroke-dasharray:none;stroke-dashoffset:10"
       id="path6204-7-6"
       sodipodi:cx="214.32529"
       sodipodi:cy="237.32237"
       sodipodi:rx="14.087108"
       sodipodi:ry="14.087108"
       d="m 228.41239,237.32237 c 0,7.7801 -6.30701,14.08711 -14.0871,14.08711 -7.7801,0 -14.08711,-6.30701 -14.08711,-14.08711 0,-7.78009 6.30701,-14.08711 14.08711,-14.08711 7.78009,0 14.0871,6.30702 14.0871,14.08711 z" />
    <path
       style="fill:#4d4d4d;stroke:#4d4d4d;stroke-width:0.95872867px;stroke-linecap:butt;stroke-linejoin:miter;stroke-opacity:1"
       d="m 285.26392,188.76455 0.50313,143.12514"
       id="path6407"
       inkscape:connector-curvature="0" />
    <path
       transform="matrix(1,0,0,0.91916071,70.938636,-29.372856)"
       sodipodi:type="arc"
       style="fill:#ff5454;fill-opacity:1;stroke:#000000;stroke-width:2;stroke-linejoin:round;stroke-miterlimit:4;stroke-opacity:1;stroke-dasharray:none;stroke-dashoffset:10"
       id="path6204-7-6-4"
       sodipodi:cx="214.32529"
       sodipodi:cy="237.32237"
       sodipodi:rx="14.087108"
       sodipodi:ry="14.087108"
       d="m 228.41239,237.32237 c 0,7.7801 -6.30701,14.08711 -14.0871,14.08711 -7.7801,0 -14.08711,-6.30701 -14.08711,-14.08711 0,-7.78009 6.30701,-14.08711 14.08711,-14.08711 7.78009,0 14.0871,6.30702 14.0871,14.08711 z" />
    <path
       style="fill:none;stroke:#000000;stroke-width:3.83491468;stroke-linecap:butt;stroke-linejoin:miter;stroke-miterlimit:4;stroke-opacity:1;stroke-dasharray:none"
       d="m 283.2515,387.15125 67.91997,61.5045 -121.75285,0 z"
       id="path6437"
       inkscape:connector-curvature="0" />
    <path
       sodipodi:type="arc"
       style="fill:#77bcff;fill-opacity:1;stroke:#000000;stroke-width:2;stroke-linejoin:round;stroke-miterlimit:4;stroke-opacity:1;stroke-dasharray:none;stroke-dashoffset:10"
       id="path6204-5"
       sodipodi:cx="214.32529"
       sodipodi:cy="237.32237"
       sodipodi:rx="14.087108"
       sodipodi:ry="14.087108"
       d="m 228.41239,237.32237 c 0,7.7801 -6.30701,14.08711 -14.0871,14.08711 -7.7801,0 -14.08711,-6.30701 -14.08711,-14.08711 0,-7.78009 6.30701,-14.08711 14.08711,-14.08711 7.78009,0 14.0871,6.30702 14.0871,14.08711 z"
       transform="matrix(-1,0,0,-0.91916071,565.49676,666.79315)" />
    <path
       sodipodi:type="arc"
       style="fill:#4d4d4d;fill-opacity:1;stroke:#4d4d4d;stroke-width:4;stroke-linejoin:round;stroke-miterlimit:4;stroke-opacity:1;stroke-dasharray:none;stroke-dashoffset:10"
       id="path6441"
       sodipodi:cx="47.795544"
       sodipodi:cy="186.50816"
       sodipodi:rx="2.5155549"
       sodipodi:ry="2.5155549"
       d="m 50.311099,186.50816 c 0,1.38931 -1.126253,2.51556 -2.515555,2.51556 -1.389303,0 -2.515555,-1.12625 -2.515555,-2.51556 0,-1.3893 1.126252,-2.51555 2.515555,-2.51555 1.389302,0 2.515555,1.12625 2.515555,2.51555 z"
       transform="matrix(1,0,0,0.91916071,303.37593,137.79916)" />
    <path
       transform="matrix(1,0,0,0.91916071,170.55463,96.64201)"
       sodipodi:type="arc"
       style="fill:#4d4d4d;fill-opacity:1;stroke:#4d4d4d;stroke-width:4;stroke-linejoin:round;stroke-miterlimit:4;stroke-opacity:1;stroke-dasharray:none;stroke-dashoffset:10"
       id="path6441-3"
       sodipodi:cx="47.795544"
       sodipodi:cy="186.50816"
       sodipodi:rx="2.5155549"
       sodipodi:ry="2.5155549"
       d="m 50.311099,186.50816 c 0,1.38931 -1.126253,2.51556 -2.515555,2.51556 -1.389303,0 -2.515555,-1.12625 -2.515555,-2.51556 0,-1.3893 1.126252,-2.51555 2.515555,-2.51555 1.389302,0 2.515555,1.12625 2.515555,2.51555 z" />
    <path
       transform="matrix(1,0,0,0.91916071,290.29504,96.642009)"
       sodipodi:type="arc"
       style="fill:#4d4d4d;fill-opacity:1;stroke:#4d4d4d;stroke-width:4;stroke-linejoin:round;stroke-miterlimit:4;stroke-opacity:1;stroke-dasharray:none;stroke-dashoffset:10"
       id="path6441-5"
       sodipodi:cx="47.795544"
       sodipodi:cy="186.50816"
       sodipodi:rx="2.5155549"
       sodipodi:ry="2.5155549"
       d="m 50.311099,186.50816 c 0,1.38931 -1.126253,2.51556 -2.515555,2.51556 -1.389303,0 -2.515555,-1.12625 -2.515555,-2.51556 0,-1.3893 1.126252,-2.51555 2.515555,-2.51555 1.389302,0 2.515555,1.12625 2.515555,2.51555 z" />
    <path
       transform="matrix(1,0,0,0.91916071,236.21061,67.970739)"
       sodipodi:type="arc"
       style="fill:#4d4d4d;fill-opacity:1;stroke:#4d4d4d;stroke-width:4;stroke-linejoin:round;stroke-miterlimit:4;stroke-opacity:1;stroke-dasharray:none;stroke-dashoffset:10"
       id="path6441-6"
       sodipodi:cx="47.795544"
       sodipodi:cy="186.50816"
       sodipodi:rx="2.5155549"
       sodipodi:ry="2.5155549"
       d="m 50.311099,186.50816 c 0,1.38931 -1.126253,2.51556 -2.515555,2.51556 -1.389303,0 -2.515555,-1.12625 -2.515555,-2.51556 0,-1.3893 1.126252,-2.51555 2.515555,-2.51555 1.389302,0 2.515555,1.12625 2.515555,2.51555 z" />
    <path
       transform="matrix(1,0,0,0.91916071,237.71994,159.17852)"
       sodipodi:type="arc"
       style="fill:#4d4d4d;fill-opacity:1;stroke:#4d4d4d;stroke-width:4;stroke-linejoin:round;stroke-miterlimit:4;stroke-opacity:1;stroke-dasharray:none;stroke-dashoffset:10"
       id="path6441-7"
       sodipodi:cx="47.795544"
       sodipodi:cy="186.50816"
       sodipodi:rx="2.5155549"
       sodipodi:ry="2.5155549"
       d="m 50.311099,186.50816 c 0,1.38931 -1.126253,2.51556 -2.515555,2.51556 -1.389303,0 -2.515555,-1.12625 -2.515555,-2.51556 0,-1.3893 1.126252,-2.51555 2.515555,-2.51555 1.389302,0 2.515555,1.12625 2.515555,2.51555 z" />
    <path
       transform="matrix(1,0,0,0.91916071,183.63552,136.41184)"
       sodipodi:type="arc"
       style="fill:#4d4d4d;fill-opacity:1;stroke:#4d4d4d;stroke-width:4;stroke-linejoin:round;stroke-miterlimit:4;stroke-opacity:1;stroke-dasharray:none;stroke-dashoffset:10"
       id="path6441-2"
       sodipodi:cx="47.795544"
       sodipodi:cy="186.50816"
       sodipodi:rx="2.5155549"
       sodipodi:ry="2.5155549"
       d="m 50.311099,186.50816 c 0,1.38931 -1.126253,2.51556 -2.515555,2.51556 -1.389303,0 -2.515555,-1.12625 -2.515555,-2.51556 0,-1.3893 1.126252,-2.51555 2.515555,-2.51555 1.389302,0 2.515555,1.12625 2.515555,2.51555 z" />
    <path
       style="fill:none;stroke:#000000;stroke-width:3.83491468;stroke-linecap:butt;stroke-linejoin:miter;stroke-miterlimit:4;stroke-opacity:1;stroke-dasharray:none"
       d="m 283.2515,387.15125 -121.75287,0 -53.83288,61.5045 121.75287,0"
       id="path6140"
       inkscape:connector-curvature="0" />
    <path
       transform="matrix(-1,0,0,-0.91916071,497.57679,605.28865)"
       sodipodi:type="arc"
       style="fill:#77bcff;fill-opacity:1;stroke:#000000;stroke-width:2;stroke-linejoin:round;stroke-miterlimit:4;stroke-opacity:1;stroke-dasharray:none;stroke-dashoffset:10"
       id="path6204-7-6-6"
       sodipodi:cx="214.32529"
       sodipodi:cy="237.32237"
       sodipodi:rx="14.087108"
       sodipodi:ry="14.087108"
       d="m 228.41239,237.32237 c 0,7.7801 -6.30701,14.08711 -14.0871,14.08711 -7.7801,0 -14.08711,-6.30701 -14.08711,-14.08711 0,-7.78009 6.30701,-14.08711 14.08711,-14.08711 7.78009,0 14.0871,6.30702 14.0871,14.08711 z" />
    <path
       transform="matrix(-1,0,0,-0.91916071,321.99104,666.79315)"
       sodipodi:type="arc"
       style="fill:#aad1f7;fill-opacity:1;stroke:#000000;stroke-width:2;stroke-linejoin:round;stroke-miterlimit:4;stroke-opacity:1;stroke-dasharray:none;stroke-dashoffset:10"
       id="path6204-0-8"
       sodipodi:cx="214.32529"
       sodipodi:cy="237.32237"
       sodipodi:rx="14.087108"
       sodipodi:ry="14.087108"
       d="m 228.41239,237.32237 c 0,7.7801 -6.30701,14.08711 -14.0871,14.08711 -7.7801,0 -14.08711,-6.30701 -14.08711,-14.08711 0,-7.78009 6.30701,-14.08711 14.08711,-14.08711 7.78009,0 14.0871,6.30702 14.0871,14.08711 z" />
    <path
       style="fill:none;stroke:#000000;stroke-width:3.83491468;stroke-linecap:butt;stroke-linejoin:miter;stroke-miterlimit:4;stroke-opacity:1;stroke-dasharray:none"
       d="m 161.49863,387.15125 67.91999,61.5045"
       id="path6142"
       inkscape:connector-curvature="0" />
    <path
       transform="matrix(-1,0,0,-0.91916071,443.74391,666.79315)"
       sodipodi:type="arc"
       style="fill:#77bcff;fill-opacity:1;stroke:#000000;stroke-width:2;stroke-linejoin:round;stroke-miterlimit:4;stroke-opacity:1;stroke-dasharray:none;stroke-dashoffset:10"
       id="path6204-7-7"
       sodipodi:cx="214.32529"
       sodipodi:cy="237.32237"
       sodipodi:rx="14.087108"
       sodipodi:ry="14.087108"
       d="m 228.41239,237.32237 c 0,7.7801 -6.30701,14.08711 -14.0871,14.08711 -7.7801,0 -14.08711,-6.30701 -14.08711,-14.08711 0,-7.78009 6.30701,-14.08711 14.08711,-14.08711 7.78009,0 14.0871,6.30702 14.0871,14.08711 z" />
    <path
       transform="matrix(-1,0,0,-0.91916071,375.82392,605.28865)"
       sodipodi:type="arc"
       style="fill:#aad1f7;fill-opacity:1;stroke:#000000;stroke-width:2;stroke-linejoin:round;stroke-miterlimit:4;stroke-opacity:1;stroke-dasharray:none;stroke-dashoffset:10"
       id="path6204-0-1-8"
       sodipodi:cx="214.32529"
       sodipodi:cy="237.32237"
       sodipodi:rx="14.087108"
       sodipodi:ry="14.087108"
       d="m 228.41239,237.32237 c 0,7.7801 -6.30701,14.08711 -14.0871,14.08711 -7.7801,0 -14.08711,-6.30701 -14.08711,-14.08711 0,-7.78009 6.30701,-14.08711 14.08711,-14.08711 7.78009,0 14.0871,6.30702 14.0871,14.08711 z" />
    <text
       xml:space="preserve"
       style="font-size:17.25711632px;font-style:normal;font-weight:normal;line-height:125%;letter-spacing:0px;word-spacing:0px;fill:#000000;fill-opacity:1;stroke:none;font-family:Sans"
       x="265.11111"
       y="306.63574"
       id="text6144"
       sodipodi:linespacing="125%"
       transform="scale(1.043048,0.95872869)"><tspan
         sodipodi:role="line"
         id="tspan6146"
         x="265.11111"
         y="306.63574">0</tspan></text>
    <text
       xml:space="preserve"
       style="font-size:17.25711632px;font-style:normal;font-weight:normal;line-height:125%;letter-spacing:0px;word-spacing:0px;fill:#000000;fill-opacity:1;stroke:none;font-family:Sans"
       x="316.56631"
       y="242.492"
       id="text6148"
       sodipodi:linespacing="125%"
       transform="scale(1.043048,0.95872869)"><tspan
         sodipodi:role="line"
         id="tspan6150"
         x="316.56631"
         y="242.492">1</tspan></text>
    <text
       xml:space="preserve"
       style="font-size:17.25711632px;font-style:normal;font-weight:normal;line-height:125%;letter-spacing:0px;word-spacing:0px;fill:#000000;fill-opacity:1;stroke:none;font-family:Sans"
       x="382.06659"
       y="306.7579"
       id="text6152"
       sodipodi:linespacing="125%"
       transform="scale(1.043048,0.95872869)"><tspan
         sodipodi:role="line"
         id="tspan6154"
         x="382.06659"
         y="306.7579">2</tspan></text>
    <text
       xml:space="preserve"
       style="font-size:17.25711632px;font-style:normal;font-weight:normal;line-height:125%;letter-spacing:0px;word-spacing:0px;fill:#000000;fill-opacity:1;stroke:none;font-family:Sans"
       x="330.25742"
       y="370.78787"
       id="text6156"
       sodipodi:linespacing="125%"
       transform="scale(1.043048,0.95872869)"><tspan
         sodipodi:role="line"
         id="tspan6158"
         x="330.25742"
         y="370.78787">3</tspan></text>
    <text
       xml:space="preserve"
       style="font-size:17.25711632px;font-style:normal;font-weight:normal;line-height:125%;letter-spacing:0px;word-spacing:0px;fill:#000000;fill-opacity:1;stroke:none;font-family:Sans"
       x="213.55896"
       y="370.7963"
       id="text6160"
       sodipodi:linespacing="125%"
       transform="scale(1.043048,0.95872869)"><tspan
         sodipodi:role="line"
         id="tspan6162"
         x="213.55896"
         y="370.7963">4</tspan></text>
    <text
       xml:space="preserve"
       style="font-size:17.25711632px;font-style:normal;font-weight:normal;line-height:125%;letter-spacing:0px;word-spacing:0px;fill:#000000;fill-opacity:1;stroke:none;font-family:Sans"
       x="148.46739"
       y="306.52197"
       id="text6164"
       sodipodi:linespacing="125%"
       transform="scale(1.043048,0.95872869)"><tspan
         sodipodi:role="line"
         id="tspan6166"
         x="148.46739"
         y="306.52197">5</tspan></text>
    <text
       xml:space="preserve"
       style="font-size:17.25711632px;font-style:normal;font-weight:normal;line-height:125%;letter-spacing:0px;word-spacing:0px;fill:#000000;fill-opacity:1;stroke:none;font-family:Sans"
       x="199.93106"
       y="242.48358"
       id="text6168"
       sodipodi:linespacing="125%"
       transform="scale(1.043048,0.95872869)"><tspan
         sodipodi:role="line"
         id="tspan6170"
         x="199.93106"
         y="242.48358">6</tspan></text>
    <text
       xml:space="preserve"
       style="font-size:17.25711632000000151px;font-style:normal;font-weight:normal;line-height:125%;letter-spacing:0px;word-spacing:0px;fill:#000000;fill-opacity:1;stroke:none;font-family:Sans"
       x="331.21793"
       y="474.2597"
       id="text6172"
       sodipodi:linespacing="125%"
       transform="scale(1.043048,0.95872869)"><tspan
         sodipodi:role="line"
         id="tspan6174"
         x="331.21793"
         y="474.2597">7</tspan></text>
    <text
       xml:space="preserve"
       style="font-size:17.25711632000000151px;font-style:normal;font-weight:normal;line-height:125%;letter-spacing:0px;word-spacing:0px;fill:#000000;fill-opacity:1;stroke:none;font-family:Sans"
       x="214.46468"
       y="474.25128"
       id="text6176"
       sodipodi:linespacing="125%"
       transform="scale(1.043048,0.95872869)"><tspan
         sodipodi:role="line"
         id="tspan6178"
         x="214.46468"
         y="474.25128">8</tspan></text>
    <text
       xml:space="preserve"
       style="font-size:17.25711632000000151px;font-style:normal;font-weight:normal;line-height:125%;letter-spacing:0px;word-spacing:0px;fill:#000000;fill-opacity:1;stroke:none;font-family:Sans"
       x="266.1348"
       y="410.09915"
       id="text6180"
       sodipodi:linespacing="125%"
       transform="scale(1.043048,0.95872869)"><tspan
         sodipodi:role="line"
         id="tspan6182"
         x="266.1348"
         y="410.09915">9</tspan></text>
    <text
       xml:space="preserve"
       style="font-size:17.25711632px;font-style:normal;font-weight:normal;line-height:125%;letter-spacing:0px;word-spacing:0px;fill:#000000;fill-opacity:1;stroke:none;font-family:Sans"
       x="197.0152"
       y="139.02017"
       id="text6184"
       sodipodi:linespacing="125%"
       transform="scale(1.043048,0.95872869)"><tspan
         sodipodi:role="line"
         id="tspan6186"
         x="197.0152"
         y="139.02017">10</tspan></text>
    <text
       xml:space="preserve"
       style="font-size:17.25711632px;font-style:normal;font-weight:normal;line-height:125%;letter-spacing:0px;word-spacing:0px;fill:#000000;fill-opacity:1;stroke:none;font-family:Sans"
       x="313.96643"
       y="139.02859"
       id="text6188"
       sodipodi:linespacing="125%"
       transform="scale(1.043048,0.95872869)"><tspan
         sodipodi:role="line"
         id="tspan6190"
         x="313.96643"
         y="139.02859">11</tspan></text>
    <text
       xml:space="preserve"
       style="font-size:17.25711632px;font-style:normal;font-weight:normal;line-height:125%;letter-spacing:0px;word-spacing:0px;fill:#000000;fill-opacity:1;stroke:none;font-family:Sans"
       x="262.42273"
       y="203.29448"
       id="text6192"
       sodipodi:linespacing="125%"
       transform="scale(1.043048,0.95872869)"><tspan
         sodipodi:role="line"
         id="tspan6194"
         x="262.42273"
         y="203.29448">12</tspan></text>
  </g>
</svg>
